<svg width="47" height="47" viewBox="0 0 47 47" fill="none" xmlns="http://www.w3.org/2000/svg">
<path d="M46.603 2C46.603 1.17158 45.9314 0.500004 45.103 0.500005L31.603 0.500004C30.7745 0.500004 30.103 1.17158 30.103 2C30.103 2.82843 30.7745 3.5 31.603 3.5H43.603V15.5C43.603 16.3284 44.2745 17 45.103 17C45.9314 17 46.603 16.3284 46.603 15.5L46.603 2ZM28.486 20.7383L46.1636 3.06066L44.0423 0.939344L26.3646 18.617L28.486 20.7383Z" fill="black"/>
<path d="M0.500066 44.6029C0.500065 45.4313 1.17164 46.1029 2.00007 46.1029L15.5001 46.1029C16.3285 46.1029 17.0001 45.4313 17.0001 44.6029C17.0001 43.7745 16.3285 43.1029 15.5001 43.1029H3.50007V31.1029C3.50007 30.2745 2.82849 29.6029 2.00007 29.6029C1.17164 29.6029 0.500065 30.2745 0.500065 31.1029L0.500066 44.6029ZM18.6171 25.8646L0.939405 43.5422L3.06073 45.6636L20.7384 27.9859L18.6171 25.8646Z" fill="black"/>
</svg>
