<svg width="145" height="144" viewBox="0 0 145 144" fill="none" xmlns="http://www.w3.org/2000/svg">
<path d="M72.5 12C105.813 12 132.917 38.9169 132.917 72C132.917 81.8259 130.311 91.0045 126.084 99.1933L132.633 122.484C134.159 127.894 128.772 133.238 123.323 131.725L99.8586 125.221C91.6187 129.412 82.3873 132 72.5 132C39.1871 132 12.0834 105.083 12.0834 72C12.0834 38.9169 39.1871 12 72.5 12ZM72.5 21C44.0852 21 21.1459 43.7811 21.1459 72C21.1459 100.219 44.0852 123 72.5 123C81.5715 123 90.0442 120.655 97.4396 116.561C98.4837 115.982 99.7159 115.837 100.868 116.156L123.182 122.344L116.951 100.195C116.629 99.0516 116.776 97.828 117.358 96.791C121.487 89.4404 123.854 81.0135 123.854 72C123.854 43.7811 100.915 21 72.5 21Z" fill="white"/>
</svg>
