<svg width="90" height="90" viewBox="0 0 90 90" fill="none" xmlns="http://www.w3.org/2000/svg">
<rect width="90" height="90" fill="#FF0000"/>
<path d="M66.8802 33.5759L49.8204 42.331C47.6468 43.4465 47.6468 46.5535 49.8204 47.669L66.8802 56.4241C68.8766 57.4487 71.25 55.999 71.25 53.7551V36.2449C71.25 34.001 68.8766 32.5513 66.8802 33.5759Z" fill="white" stroke="white" stroke-width="4"/>
<rect x="15" y="29" width="41" height="32" rx="3" fill="white" stroke="white" stroke-width="4"/>
<path d="M22 43L23 42L28 47L33 42L34 43L35 44L30 49L35 54L33 56L28 51L23 56L21 54L26 49L21 44L22 43Z" fill="#FF0000"/>
</svg>
