<svg width="147" height="52" viewBox="0 0 147 52" fill="none" xmlns="http://www.w3.org/2000/svg">
<path d="M36.5936 36.93C36.5936 41.4413 34.9409 44.9923 31.6356 47.583C28.3302 50.129 24.1092 51.402 18.9726 51.402C14.9079 51.402 10.9772 50.2853 7.18056 48.052C5.30456 46.8907 3.76356 45.2603 2.55756 43.161C1.35156 41.017 0.748559 38.5827 0.748559 35.858L9.19056 35.456C9.19056 37.868 10.2179 39.744 12.2726 41.084C14.3272 42.424 16.6052 43.094 19.1066 43.094C24.6899 43.094 27.4816 41.1287 27.4816 37.198C27.4816 33.982 25.5832 32.0837 21.7866 31.503L14.0146 30.699C10.1286 30.1183 7.04656 28.7337 4.76856 26.545C2.49056 24.3563 1.35156 21.2073 1.35156 17.098C1.35156 12.9887 2.98189 9.594 6.24256 6.914C9.50323 4.234 13.6126 2.894 18.5706 2.894C23.5732 2.894 27.5932 4.167 30.6306 6.713C33.6679 9.21433 35.1866 12.4527 35.1866 16.428L26.8786 16.83C26.1192 12.944 23.5062 11.001 19.0396 11.001C16.3149 11.001 14.1709 11.5817 12.6076 12.743C11.0889 13.9043 10.3296 15.289 10.3296 16.897C10.3296 18.4603 10.8879 19.711 12.0046 20.649C13.1212 21.5423 14.5059 22.1007 16.1586 22.324L23.7966 23.128C32.3279 24.2893 36.5936 28.89 36.5936 36.93ZM72.0245 33.915H49.7135C49.7135 37.399 50.2495 39.945 51.3215 41.553C52.4382 43.161 54.6492 43.965 57.9545 43.965C60.0985 43.965 61.6842 43.295 62.7115 41.955C63.7389 40.5703 64.2525 39.2527 64.2525 38.002H72.0915C72.0915 42.7813 70.7962 46.2877 68.2055 48.521C65.6595 50.7543 62.2649 51.871 58.0215 51.871C53.8229 51.871 50.5622 51.268 48.2395 50.062C43.4602 47.6053 41.0705 41.084 41.0705 30.498C41.0705 24.2 42.4329 19.5993 45.1575 16.696C47.8822 13.748 52.0362 12.274 57.6195 12.274C67.3122 12.274 72.1585 17.6563 72.1585 28.421C72.1585 29.5823 72.1139 31.4137 72.0245 33.915ZM49.9145 27.952H64.2525C64.2525 25.004 63.6942 22.86 62.5775 21.52C61.4609 20.18 59.7412 19.51 57.4185 19.51C55.1405 19.51 53.3092 20.2023 51.9245 21.587C50.5845 22.927 49.9145 25.0487 49.9145 27.952ZM109.736 51H101.026V26.545C101.026 24.3563 100.579 22.86 99.6856 22.056C98.7922 21.252 97.5416 20.85 95.9336 20.85L88.0946 24.133V51H79.3846V12.743H85.8836L87.8936 17.299L98.6136 12.341C101.606 12.341 104.197 13.4577 106.386 15.691C108.619 17.8797 109.736 21.0957 109.736 25.339V51ZM146.267 51H140.438L137.758 46.377L128.445 51.402C123.263 51.402 119.779 49.526 117.993 45.774C117.099 43.9427 116.474 41.9773 116.117 39.878C115.804 37.734 115.648 35.523 115.648 33.245C115.648 30.9223 115.67 29.225 115.715 28.153C115.759 27.0363 115.871 25.7633 116.05 24.334C116.228 22.86 116.474 21.6317 116.787 20.649C117.144 19.6663 117.635 18.6613 118.261 17.634C118.886 16.562 119.645 15.7133 120.539 15.088C122.549 13.7033 125.162 13.011 128.378 13.011H137.557V0.615998H146.267V51ZM137.557 38.806V20.85H130.924C128.467 20.85 126.747 21.788 125.765 23.664C124.827 25.54 124.358 28.354 124.358 32.106C124.358 35.8133 124.804 38.4263 125.698 39.945C126.636 41.4637 128.378 42.223 130.924 42.223L137.557 38.806Z" fill="url(#paint0_linear_66_386)"/>
<defs>
<linearGradient id="paint0_linear_66_386" x1="75" y1="-17" x2="75" y2="51" gradientUnits="userSpaceOnUse">
<stop stop-color="#3D7FFF"/>
<stop offset="1" stop-color="#20A2EB"/>
</linearGradient>
</defs>
</svg>
