<svg width="373" height="420" viewBox="0 0 373 420" fill="none" xmlns="http://www.w3.org/2000/svg">
<path d="M109.695 350.44H117.435C117.435 355.88 116.075 360.06 113.355 362.98C110.635 365.9 106.795 367.36 101.835 367.36C90.9152 367.36 85.4552 360.94 85.4552 348.1V344.5C85.4552 334.38 88.2552 328.04 93.8552 325.48C96.0552 324.44 98.7152 323.92 101.835 323.92C106.395 323.92 110.095 325.18 112.935 327.7C115.815 330.18 117.255 333.78 117.255 338.5H109.455C109.015 336.14 108.235 334.36 107.115 333.16C105.995 331.96 104.235 331.36 101.835 331.36C99.0352 331.36 96.9552 332.24 95.5952 334C94.6352 335.24 94.0752 337.36 93.9152 340.36C93.8352 341.32 93.7952 342.62 93.7952 344.26V347.98C93.7952 352.58 94.4352 355.72 95.7152 357.4C97.0352 359.08 99.0752 359.92 101.835 359.92C104.635 359.92 106.555 359.16 107.595 357.64C108.675 356.08 109.375 353.68 109.695 350.44ZM142.481 351.52V348.4C142.481 345.44 142.041 343.18 141.161 341.62C140.321 340.06 138.541 339.28 135.821 339.28C131.421 339.28 129.221 342.24 129.221 348.16V351.28C129.221 357.64 131.421 360.82 135.821 360.82C138.661 360.82 140.521 359.76 141.401 357.64C142.121 355.96 142.481 353.92 142.481 351.52ZM150.281 349.72C150.281 357.12 148.881 362.08 146.081 364.6C143.721 366.76 140.301 367.84 135.821 367.84C130.101 367.84 126.241 366.16 124.241 362.8C122.361 359.72 121.421 355.36 121.421 349.72C121.421 344.44 122.361 340.3 124.241 337.3C126.321 333.94 130.101 332.26 135.581 332.26C141.101 332.26 144.921 333.74 147.041 336.7C149.201 339.62 150.281 343.96 150.281 349.72ZM183.099 367H175.299V345.1C175.299 343.14 174.899 341.8 174.099 341.08C173.299 340.36 172.179 340 170.739 340L163.719 342.94V367H155.919V332.74H161.739L163.539 336.82L173.139 332.38C175.819 332.38 178.139 333.38 180.099 335.38C182.099 337.34 183.099 340.22 183.099 344.02V367ZM205.553 367H200.693C197.733 367 195.473 366.12 193.913 364.36C192.393 362.6 191.633 360.5 191.633 358.06V340.06H188.333V334.12H191.633V327.4H199.433V334.12H204.953V340.06H199.433V357.58C199.433 359.46 200.333 360.4 202.133 360.4H205.553V367ZM235.587 367H230.367L227.967 362.86L219.627 367.36C214.987 367.36 211.867 365.68 210.267 362.32C209.467 360.68 208.907 358.92 208.587 357.04C208.307 355.12 208.167 353.14 208.167 351.1C208.167 349.02 208.187 347.5 208.227 346.54C208.267 345.54 208.367 344.4 208.527 343.12C208.687 341.8 208.907 340.7 209.187 339.82C209.507 338.94 209.947 338.04 210.507 337.12C211.067 336.16 211.747 335.4 212.547 334.84C214.347 333.6 216.687 332.98 219.567 332.98H227.787L235.587 332.5V367ZM227.787 356.08V340H221.847C219.647 340 218.107 340.84 217.227 342.52C216.387 344.2 215.967 346.72 215.967 350.08C215.967 353.4 216.367 355.74 217.167 357.1C218.007 358.46 219.567 359.14 221.847 359.14L227.787 356.08ZM261.578 354.46L268.658 354.4C268.618 354.72 268.578 355.3 268.538 356.14C268.498 356.98 268.458 357.56 268.418 357.88C268.418 358.16 268.378 358.62 268.298 359.26C268.218 359.9 268.118 360.38 267.998 360.7C267.918 360.98 267.798 361.36 267.638 361.84C266.918 363.92 264.958 365.56 261.758 366.76C259.718 367.48 257.578 367.84 255.338 367.84C253.138 367.84 251.138 367.48 249.338 366.76C247.538 366.04 246.118 365.12 245.078 364C242.718 361.52 241.538 356.88 241.538 350.08C241.538 343.24 242.718 338.58 245.078 336.1C246.118 334.98 247.538 334.06 249.338 333.34C251.138 332.62 253.138 332.26 255.338 332.26C259.658 332.26 262.938 333.34 265.178 335.5C267.418 337.66 268.538 340.66 268.538 344.5H261.458C261.458 342.74 261.018 341.44 260.138 340.6C259.258 339.72 257.618 339.28 255.218 339.28C252.858 339.28 251.278 340.02 250.478 341.5C249.718 342.98 249.338 345.2 249.338 348.16V351.28C249.338 356.04 250.258 358.96 252.098 360.04C252.938 360.56 254.038 360.82 255.398 360.82C256.758 360.82 257.858 360.7 258.698 360.46C259.578 360.18 260.198 359.72 260.558 359.08C260.958 358.44 261.218 357.82 261.338 357.22C261.458 356.58 261.538 355.66 261.578 354.46ZM289.811 367H284.951C281.991 367 279.731 366.12 278.171 364.36C276.651 362.6 275.891 360.5 275.891 358.06V340.06H272.591V334.12H275.891V327.4H283.691V334.12H289.211V340.06H283.691V357.58C283.691 359.46 284.591 360.4 286.391 360.4H289.811V367Z" fill="#9B55F6"/>
<rect x="2.5" y="60.5" width="368" height="357" rx="44.5" stroke="url(#paint0_linear_30_72)" stroke-width="5"/>
<ellipse cx="187.5" cy="192.5" rx="104.5" ry="80.5" fill="url(#paint1_linear_30_72)"/>
<path d="M105.257 295.88L108.5 245L114.5 250L119.5 253.5L124 256.5L130.5 260L136 262.5L141 264.5L146.5 266.5L105.257 295.88Z" fill="url(#paint2_linear_30_72)"/>
<defs>
<linearGradient id="paint0_linear_30_72" x1="186.5" y1="58" x2="186.5" y2="420" gradientUnits="userSpaceOnUse">
<stop stop-color="#4200FF"/>
<stop offset="1" stop-color="#FE7478"/>
</linearGradient>
<linearGradient id="paint1_linear_30_72" x1="187.5" y1="112" x2="187.5" y2="273" gradientUnits="userSpaceOnUse">
<stop stop-color="#4200FF"/>
<stop offset="0.38125" stop-color="#7820EB"/>
<stop offset="1" stop-color="#FF0000" stop-opacity="0.56"/>
</linearGradient>
<linearGradient id="paint2_linear_30_72" x1="106" y1="296.5" x2="108" y2="245" gradientUnits="userSpaceOnUse">
<stop offset="0.000213433" stop-color="#FF0000" stop-opacity="0.08"/>
<stop offset="1" stop-color="#E5577D"/>
</linearGradient>
</defs>
</svg>
