<svg width="295" height="235" viewBox="0 0 295 235" fill="none" xmlns="http://www.w3.org/2000/svg">
<path d="M0 16C0 7.16345 7.16344 0 16 0H93.5C97.0899 0 100 2.91015 100 6.5V6.5C100 10.0899 97.0899 13 93.5 13H13V93.5C13 97.0899 10.0899 100 6.5 100V100V100C2.91015 100 0 97.0899 0 93.5V16Z" fill="white"/>
<path d="M279 0C287.837 0 295 7.16344 295 16V93.5C295 97.0899 292.09 100 288.5 100V100C284.91 100 282 97.0899 282 93.5V13L201.5 13C197.91 13 195 10.0899 195 6.5V6.5V6.5C195 2.91015 197.91 0 201.5 0L279 0Z" fill="white"/>
<path d="M295 219C295 227.837 287.837 235 279 235H201.5C197.91 235 195 232.09 195 228.5V228.5C195 224.91 197.91 222 201.5 222H282V141.5C282 137.91 284.91 135 288.5 135V135V135C292.09 135 295 137.91 295 141.5V219Z" fill="white"/>
<path d="M16 235C7.16345 235 0 227.837 0 219L0 141.5C0 137.91 2.91015 135 6.5 135V135C10.0899 135 13 137.91 13 141.5L13 222H93.5C97.0899 222 100 224.91 100 228.5V228.5V228.5C100 232.09 97.0899 235 93.5 235H16Z" fill="white"/>
<path d="M116.659 71.46L116.719 76.08C116.559 79 116.199 81.46 115.639 83.46C115.079 85.46 113.979 87.28 112.339 88.92C109.619 91.64 105.659 93 100.459 93C94.339 93 90.139 92.2 87.859 90.6C85.579 88.96 84.439 86.02 84.439 81.78V50.28H101.059C105.859 50.28 109.619 51.64 112.339 54.36C114.539 56.56 115.839 59.24 116.239 62.4C116.519 64.64 116.659 67.66 116.659 71.46ZM106.519 82.92C107.279 82 107.759 80.74 107.959 79.14C108.199 77.5 108.319 74.96 108.319 71.52C108.319 68.08 108.199 65.6 107.959 64.08C107.759 62.52 107.279 61.28 106.519 60.36C105.079 58.6 102.999 57.72 100.279 57.72H92.779V81.36C92.779 82.96 93.319 84.06 94.399 84.66C95.479 85.26 97.399 85.56 100.159 85.56C102.959 85.56 105.079 84.68 106.519 82.92ZM141.57 58.86L139.41 66.54C138.81 66.3 138.13 66.18 137.37 66.18C135.37 66.18 132.91 67.04 129.99 68.76V93H122.19V58.74H128.01L129.81 61.74L138.09 58.32C138.49 58.28 139.03 58.26 139.71 58.26C140.39 58.26 141.01 58.46 141.57 58.86ZM165.309 77.52V74.4C165.309 71.44 164.869 69.18 163.989 67.62C163.149 66.06 161.369 65.28 158.649 65.28C154.249 65.28 152.049 68.24 152.049 74.16V77.28C152.049 83.64 154.249 86.82 158.649 86.82C161.489 86.82 163.349 85.76 164.229 83.64C164.949 81.96 165.309 79.92 165.309 77.52ZM173.109 75.72C173.109 83.12 171.709 88.08 168.909 90.6C166.549 92.76 163.129 93.84 158.649 93.84C152.929 93.84 149.069 92.16 147.069 88.8C145.189 85.72 144.249 81.36 144.249 75.72C144.249 70.44 145.189 66.3 147.069 63.3C149.149 59.94 152.929 58.26 158.409 58.26C163.929 58.26 167.749 59.74 169.869 62.7C172.029 65.62 173.109 69.96 173.109 75.72ZM206.707 74.94C206.707 83.86 204.407 89.56 199.807 92.04C197.927 93.04 195.627 93.54 192.907 93.54L187.147 89.82V103.2H179.347V58.98H194.707C199.347 58.98 202.507 60.3 204.187 62.94C205.867 65.54 206.707 69.54 206.707 74.94ZM198.907 76.14C198.907 69.38 196.747 66 192.427 66H187.147V81.9L192.427 85.32C194.747 85.32 196.407 84.6 197.407 83.16C198.407 81.68 198.907 79.34 198.907 76.14ZM115.622 174H107.282V156.72H91.6223V174H83.2823V131.28H91.6223V149.34H107.282V131.28H115.622V174ZM150.037 158.7H130.057C130.057 161.82 130.537 164.1 131.497 165.54C132.497 166.98 134.477 167.7 137.437 167.7C139.357 167.7 140.777 167.1 141.697 165.9C142.617 164.66 143.077 163.48 143.077 162.36H150.097C150.097 166.64 148.937 169.78 146.617 171.78C144.337 173.78 141.297 174.78 137.497 174.78C133.737 174.78 130.817 174.24 128.737 173.16C124.457 170.96 122.317 165.12 122.317 155.64C122.317 150 123.537 145.88 125.977 143.28C128.417 140.64 132.137 139.32 137.137 139.32C145.817 139.32 150.157 144.14 150.157 153.78C150.157 154.82 150.117 156.46 150.037 158.7ZM130.237 153.36H143.077C143.077 150.72 142.577 148.8 141.577 147.6C140.577 146.4 139.037 145.8 136.957 145.8C134.917 145.8 133.277 146.42 132.037 147.66C130.837 148.86 130.237 150.76 130.237 153.36ZM175.408 139.86L173.248 147.54C172.648 147.3 171.968 147.18 171.208 147.18C169.208 147.18 166.748 148.04 163.828 149.76V174H156.028V139.74H161.848L163.648 142.74L171.928 139.32C172.328 139.28 172.868 139.26 173.548 139.26C174.228 139.26 174.848 139.46 175.408 139.86ZM206.287 158.7H186.307C186.307 161.82 186.787 164.1 187.747 165.54C188.747 166.98 190.727 167.7 193.687 167.7C195.607 167.7 197.027 167.1 197.947 165.9C198.867 164.66 199.327 163.48 199.327 162.36H206.347C206.347 166.64 205.187 169.78 202.867 171.78C200.587 173.78 197.547 174.78 193.747 174.78C189.987 174.78 187.067 174.24 184.987 173.16C180.707 170.96 178.567 165.12 178.567 155.64C178.567 150 179.787 145.88 182.227 143.28C184.667 140.64 188.387 139.32 193.387 139.32C202.067 139.32 206.407 144.14 206.407 153.78C206.407 154.82 206.367 156.46 206.287 158.7ZM186.487 153.36H199.327C199.327 150.72 198.827 148.8 197.827 147.6C196.827 146.4 195.287 145.8 193.207 145.8C191.167 145.8 189.527 146.42 188.287 147.66C187.087 148.86 186.487 150.76 186.487 153.36Z" fill="white"/>
</svg>
