<svg width="58" height="53" viewBox="0 0 58 53" fill="none" xmlns="http://www.w3.org/2000/svg">
<path d="M0 21.5H38V40.5C38 42.7091 36.2091 44.5 34 44.5H4C1.79086 44.5 0 42.7091 0 40.5V21.5Z" fill="white"/>
<path d="M17.9393 38.5607C18.5251 39.1464 19.4749 39.1464 20.0607 38.5607L29.6066 29.0147C30.1924 28.4289 30.1924 27.4792 29.6066 26.8934C29.0208 26.3076 28.0711 26.3076 27.4853 26.8934L19 35.3787L10.5147 26.8934C9.92893 26.3076 8.97918 26.3076 8.3934 26.8934C7.80761 27.4792 7.80761 28.4289 8.3934 29.0147L17.9393 38.5607ZM17.5 21.5V37.5H20.5V21.5H17.5Z" fill="#0091DC"/>
<line x1="19" y1="6" x2="19" y2="21.5" stroke="white" stroke-width="3"/>
<line x1="56.5" y1="0.5" x2="56.5" y2="52.5" stroke="white" stroke-width="3"/>
</svg>
