<svg width="373" height="420" viewBox="0 0 373 420" fill="none" xmlns="http://www.w3.org/2000/svg">
<path d="M253.1 148.6C253.1 156.4 251.5 163 248.3 168.4C245.3 173.8 243.2 177.4 242 179.2C241 180.8 238.8 183.8 235.4 188.2C232.2 192.4 230.5 194.6 230.3 194.8L210.2 215.5C206.6 220.1 204.8 225.2 204.8 230.8V240.1H165.8V228.1C165.8 214.7 169.6 204.3 177.2 196.9L195.8 179.8C205 171.6 210.6 164.4 212.6 158.2C213.6 155 214.1 151.7 214.1 148.3C214.1 138.3 212.1 131.7 208.1 128.5C204.3 125.3 197.8 123.7 188.6 123.7C179.6 123.7 172.9 125.4 168.5 128.8C164.1 132.2 161.9 138.9 161.9 148.9C161.9 158.7 165 168.3 171.2 177.7L140.9 189.7C134.5 181.9 130 175.1 127.4 169.3C124.8 163.3 123.5 156.4 123.5 148.6C123.5 128.4 128.6 113.4 138.8 103.6C149 93.6 166 88.6 189.8 88.6C232 88.6 253.1 108.6 253.1 148.6ZM206 263.8C209.2 266.8 210.8 273.3 210.8 283.3C210.8 293.3 209.2 299.9 206 303.1C203 306.3 196.5 307.9 186.5 307.9C176.5 307.9 169.9 306.3 166.7 303.1C163.5 299.9 161.9 293.3 161.9 283.3C161.9 273.3 163.5 266.8 166.7 263.8C169.9 260.6 176.5 259 186.5 259C196.5 259 203 260.6 206 263.8Z" fill="url(#paint0_linear_30_72)"/>
<path d="M73.72 376H65.38V358.72H49.72V376H41.38V333.28H49.72V351.34H65.38V333.28H73.72V376ZM100.994 360.52V357.4C100.994 354.44 100.554 352.18 99.6742 350.62C98.8342 349.06 97.0542 348.28 94.3342 348.28C89.9342 348.28 87.7342 351.24 87.7342 357.16V360.28C87.7342 366.64 89.9342 369.82 94.3342 369.82C97.1742 369.82 99.0342 368.76 99.9142 366.64C100.634 364.96 100.994 362.92 100.994 360.52ZM108.794 358.72C108.794 366.12 107.394 371.08 104.594 373.6C102.234 375.76 98.8142 376.84 94.3342 376.84C88.6142 376.84 84.7542 375.16 82.7542 371.8C80.8742 368.72 79.9342 364.36 79.9342 358.72C79.9342 353.44 80.8742 349.3 82.7542 346.3C84.8342 342.94 88.6142 341.26 94.0942 341.26C99.6142 341.26 103.434 342.74 105.554 345.7C107.714 348.62 108.794 352.96 108.794 358.72ZM155.952 341.74L146.412 376H139.992L133.452 355.18L126.912 376H120.492L110.892 341.74H119.172L124.212 364.06L129.432 345.7C130.032 343.06 131.392 341.74 133.512 341.74C134.512 341.74 135.312 342.06 135.912 342.7C136.512 343.34 137.012 344.34 137.412 345.7L142.692 364.06L147.732 341.74H155.952ZM189.145 376H184.285C181.325 376 179.065 375.12 177.505 373.36C175.985 371.6 175.225 369.5 175.225 367.06V349.06H171.925V343.12H175.225V336.4H183.025V343.12H188.545V349.06H183.025V366.58C183.025 368.46 183.925 369.4 185.725 369.4H189.145V376ZM214.139 360.52V357.4C214.139 354.44 213.699 352.18 212.819 350.62C211.979 349.06 210.199 348.28 207.479 348.28C203.079 348.28 200.879 351.24 200.879 357.16V360.28C200.879 366.64 203.079 369.82 207.479 369.82C210.319 369.82 212.179 368.76 213.059 366.64C213.779 364.96 214.139 362.92 214.139 360.52ZM221.939 358.72C221.939 366.12 220.539 371.08 217.739 373.6C215.379 375.76 211.959 376.84 207.479 376.84C201.759 376.84 197.899 375.16 195.899 371.8C194.019 368.72 193.079 364.36 193.079 358.72C193.079 353.44 194.019 349.3 195.899 346.3C197.979 342.94 201.759 341.26 207.239 341.26C212.759 341.26 216.579 342.74 218.699 345.7C220.859 348.62 221.939 352.96 221.939 358.72ZM267.742 376H261.922L260.122 371.92L250.522 376.36C247.842 376.36 245.502 375.38 243.502 373.42C241.542 371.42 240.562 368.52 240.562 364.72V341.74H248.362V363.04C248.362 366.84 249.882 368.74 252.922 368.74L259.942 364.96V341.74H267.742V376ZM300.037 366.52V367.42C299.797 370.42 298.517 372.68 296.197 374.2C293.917 375.72 291.057 376.48 287.617 376.48C282.537 376.48 278.977 375.56 276.937 373.72C275.057 372.04 274.117 369.56 274.117 366.28V365.56H281.197C281.197 367.4 281.677 368.66 282.637 369.34C283.597 370.02 285.257 370.36 287.617 370.36C290.817 370.36 292.417 369.2 292.417 366.88C292.417 364.96 291.857 363.68 290.737 363.04C290.217 362.72 289.557 362.48 288.757 362.32L282.697 361.3C277.417 360.46 274.777 357.16 274.777 351.4C274.777 348.2 275.937 345.72 278.257 343.96C280.617 342.16 283.597 341.26 287.197 341.26C295.397 341.26 299.497 344.8 299.497 351.88V352.66H292.717C292.637 350.78 292.137 349.5 291.217 348.82C290.297 348.14 288.997 347.8 287.317 347.8C285.677 347.8 284.437 348.14 283.597 348.82C282.757 349.46 282.337 350.18 282.337 350.98C282.337 353.26 283.257 354.56 285.097 354.88L292.357 356.2C297.477 357.16 300.037 360.6 300.037 366.52ZM332.255 360.7H312.275C312.275 363.82 312.755 366.1 313.715 367.54C314.715 368.98 316.695 369.7 319.655 369.7C321.575 369.7 322.995 369.1 323.915 367.9C324.835 366.66 325.295 365.48 325.295 364.36H332.315C332.315 368.64 331.155 371.78 328.835 373.78C326.555 375.78 323.515 376.78 319.715 376.78C315.955 376.78 313.035 376.24 310.955 375.16C306.675 372.96 304.535 367.12 304.535 357.64C304.535 352 305.755 347.88 308.195 345.28C310.635 342.64 314.355 341.32 319.355 341.32C328.035 341.32 332.375 346.14 332.375 355.78C332.375 356.82 332.335 358.46 332.255 360.7ZM312.455 355.36H325.295C325.295 352.72 324.795 350.8 323.795 349.6C322.795 348.4 321.255 347.8 319.175 347.8C317.135 347.8 315.495 348.42 314.255 349.66C313.055 350.86 312.455 352.76 312.455 355.36Z" fill="#9B55F6"/>
<rect x="2.5" y="60.5" width="368" height="357" rx="44.5" stroke="url(#paint1_linear_30_72)" stroke-width="5"/>
<defs>
<linearGradient id="paint0_linear_30_72" x1="193.5" y1="0" x2="193.5" y2="315" gradientUnits="userSpaceOnUse">
<stop stop-color="#4200FF"/>
<stop offset="0.485787" stop-color="#7820EB"/>
<stop offset="0.9998" stop-color="#FE7478"/>
<stop offset="0.9999" stop-color="#6F00FF" stop-opacity="0.0830565"/>
<stop offset="1" stop-opacity="0"/>
<stop offset="1" stop-color="#FE7478"/>
</linearGradient>
<linearGradient id="paint1_linear_30_72" x1="186.5" y1="58" x2="186.5" y2="420" gradientUnits="userSpaceOnUse">
<stop stop-color="#4200FF"/>
<stop offset="1" stop-color="#FE7478"/>
</linearGradient>
</defs>
</svg>
