<svg width="60" height="60" viewBox="0 0 60 60" fill="none" xmlns="http://www.w3.org/2000/svg">
<circle cx="30" cy="30" r="30" fill="#7820EB"/>
<path d="M30.17 18.33C31.11 18.33 31.72 18.48 32 18.78C32.28 19.06 32.42 19.67 32.42 20.61C32.42 21.53 32.27 22.14 31.97 22.44C31.69 22.72 31.08 22.86 30.14 22.86C29.22 22.86 28.61 22.71 28.31 22.41C28.03 22.11 27.89 21.5 27.89 20.58C27.89 19.66 28.03 19.06 28.31 18.78C28.61 18.48 29.23 18.33 30.17 18.33ZM32.09 42H28.19V25.5H32.09V42Z" fill="white"/>
<circle cx="30" cy="30" r="24.5" stroke="white"/>
</svg>
