<svg width="414" height="289" viewBox="0 0 414 289" fill="none" xmlns="http://www.w3.org/2000/svg">
<path d="M279 4H123C108.641 4 97 15.6406 97 30V186C97 200.359 108.641 212 123 212H279C293.359 212 305 200.359 305 186V108.866V30C305 15.6406 293.359 4 279 4Z" fill="white" stroke="#4200FF" stroke-width="8"/>
<path d="M224.986 45.52H172.276C166.116 45.52 161.776 46.71 159.256 49.09C156.876 51.47 155.686 55.6 155.686 61.48V82.27H210.496L208.396 108.31H155.686V169H126.496V49.93C126.496 38.87 128.876 31.03 133.636 26.41C138.536 21.79 146.866 19.48 158.626 19.48H224.986V45.52Z" fill="#4100FF"/>
<rect x="207" y="82" width="80" height="25" fill="#4200FF"/>
<rect x="229" y="87" width="80" height="25" transform="rotate(90 229 87)" fill="#4200FF"/>
<path d="M264.666 147.2C264.666 159.32 260.226 168.86 251.346 175.82C242.466 182.66 231.126 186.08 217.326 186.08C206.406 186.08 195.846 183.08 185.646 177.08C180.606 173.96 176.466 169.58 173.226 163.94C169.986 158.18 168.366 151.64 168.366 144.32L191.046 143.24C191.046 149.72 193.806 154.76 199.326 158.36C204.846 161.96 210.966 163.76 217.686 163.76C232.686 163.76 240.186 158.48 240.186 147.92C240.186 139.28 235.086 134.18 224.886 132.62L204.006 130.46C193.566 128.9 185.286 125.18 179.166 119.3C173.046 113.42 169.986 104.96 169.986 93.92C169.986 82.88 174.366 73.76 183.126 66.56C191.886 59.36 202.926 55.76 216.246 55.76C229.686 55.76 240.486 59.18 248.646 66.02C256.806 72.74 260.886 81.44 260.886 92.12L238.566 93.2C236.526 82.76 229.506 77.54 217.506 77.54C210.186 77.54 204.426 79.1 200.226 82.22C196.146 85.34 194.106 89.06 194.106 93.38C194.106 97.58 195.606 100.94 198.606 103.46C201.606 105.86 205.326 107.36 209.766 107.96L230.286 110.12C253.206 113.24 264.666 125.6 264.666 147.2Z" fill="#9B55F6"/>
<path d="M251.346 175.82L254.092 179.385L254.107 179.373L254.122 179.362L251.346 175.82ZM185.646 177.08L183.278 180.906L183.321 180.933L183.365 180.959L185.646 177.08ZM173.226 163.94L169.304 166.146L169.314 166.164L169.324 166.182L173.226 163.94ZM168.366 144.32L168.152 139.825L163.866 140.029V144.32H168.366ZM191.046 143.24H195.546V138.521L190.832 138.745L191.046 143.24ZM199.326 158.36L196.868 162.129L196.868 162.129L199.326 158.36ZM224.886 132.62L225.566 128.172L225.458 128.155L225.349 128.144L224.886 132.62ZM204.006 130.46L203.341 134.911L203.442 134.926L203.543 134.936L204.006 130.46ZM179.166 119.3L176.048 122.545L176.048 122.545L179.166 119.3ZM248.646 66.02L245.755 69.4687L245.77 69.4812L245.785 69.4937L248.646 66.02ZM260.886 92.12L261.104 96.6147L265.386 96.4075V92.12H260.886ZM238.566 93.2L234.15 94.063L234.896 97.8828L238.784 97.6947L238.566 93.2ZM200.226 82.22L197.543 78.6076L197.518 78.6263L197.493 78.6454L200.226 82.22ZM198.606 103.46L195.712 106.906L195.753 106.94L195.795 106.974L198.606 103.46ZM209.766 107.96L209.164 112.419L209.229 112.428L209.295 112.435L209.766 107.96ZM230.286 110.12L230.893 105.661L230.825 105.652L230.757 105.645L230.286 110.12ZM260.166 147.2C260.166 158.056 256.272 166.242 248.57 172.278L254.122 179.362C264.18 171.478 269.166 160.584 269.166 147.2H260.166ZM248.6 172.255C240.675 178.359 230.368 181.58 217.326 181.58V190.58C231.885 190.58 244.257 186.961 254.092 179.385L248.6 172.255ZM217.326 181.58C207.275 181.58 197.496 178.83 187.928 173.201L183.365 180.959C194.196 187.33 205.537 190.58 217.326 190.58V181.58ZM188.015 173.254C183.67 170.564 180.033 166.756 177.128 161.698L169.324 166.182C172.899 172.404 177.543 177.356 183.278 180.906L188.015 173.254ZM177.148 161.734C174.327 156.718 172.866 150.952 172.866 144.32H163.866C163.866 152.328 165.646 159.642 169.304 166.146L177.148 161.734ZM168.58 148.815L191.26 147.735L190.832 138.745L168.152 139.825L168.58 148.815ZM186.546 143.24C186.546 151.272 190.1 157.716 196.868 162.129L201.784 154.591C197.512 151.804 195.546 148.168 195.546 143.24H186.546ZM196.868 162.129C203.134 166.216 210.111 168.26 217.686 168.26V159.26C211.821 159.26 206.558 157.704 201.784 154.591L196.868 162.129ZM217.686 168.26C225.577 168.26 232.299 166.896 237.152 163.48C242.293 159.86 244.686 154.409 244.686 147.92H235.686C235.686 151.991 234.329 154.46 231.971 156.12C229.324 157.984 224.796 159.26 217.686 159.26V168.26ZM244.686 147.92C244.686 142.659 243.101 137.99 239.543 134.433C236.079 130.969 231.22 129.036 225.566 128.172L224.206 137.068C228.752 137.764 231.543 139.161 233.179 140.797C234.722 142.34 235.686 144.541 235.686 147.92H244.686ZM225.349 128.144L204.469 125.984L203.543 134.936L224.423 137.096L225.349 128.144ZM204.671 126.009C194.927 124.553 187.582 121.146 182.284 116.055L176.048 122.545C182.99 129.214 192.206 133.247 203.341 134.911L204.671 126.009ZM182.284 116.055C177.291 111.258 174.486 104.122 174.486 93.92H165.486C165.486 105.798 168.801 115.582 176.048 122.545L182.284 116.055ZM174.486 93.92C174.486 84.2678 178.231 76.4084 185.984 70.0364L180.269 63.0836C170.501 71.1115 165.486 81.4922 165.486 93.92H174.486ZM185.984 70.0364C193.802 63.6099 203.778 60.26 216.246 60.26V51.26C202.075 51.26 189.97 55.11 180.269 63.0836L185.984 70.0364ZM216.246 60.26C228.914 60.26 238.6 63.4705 245.755 69.4687L251.537 62.5713C242.373 54.8894 230.459 51.26 216.246 51.26V60.26ZM245.785 69.4937C252.895 75.3487 256.386 82.7685 256.386 92.12H265.386C265.386 80.1114 260.717 70.1313 251.507 62.5463L245.785 69.4937ZM260.669 87.6253L238.349 88.7052L238.784 97.6947L261.104 96.6147L260.669 87.6253ZM242.983 92.337C241.797 86.2669 239.051 81.2601 234.456 77.8439C229.928 74.4766 224.12 73.04 217.506 73.04V82.04C222.892 82.04 226.594 83.2134 229.086 85.0661C231.512 86.8699 233.296 89.693 234.15 94.063L242.983 92.337ZM217.506 73.04C209.596 73.04 202.774 74.7214 197.543 78.6076L202.91 85.8323C206.078 83.4786 210.777 82.04 217.506 82.04V73.04ZM197.493 78.6454C192.536 82.4361 189.606 87.3855 189.606 93.38H198.606C198.606 90.7345 199.757 88.2439 202.96 85.7946L197.493 78.6454ZM189.606 93.38C189.606 98.8003 191.613 103.463 195.712 106.906L201.501 100.014C199.599 98.4171 198.606 96.3597 198.606 93.38H189.606ZM195.795 106.974C199.531 109.963 204.051 111.729 209.164 112.419L210.369 103.501C206.601 102.991 203.681 101.757 201.417 99.9461L195.795 106.974ZM209.295 112.435L229.815 114.595L230.757 105.645L210.237 103.485L209.295 112.435ZM229.679 114.579C240.489 116.05 247.974 119.615 252.771 124.79C257.531 129.923 260.166 137.204 260.166 147.2H269.166C269.166 135.596 266.071 125.897 259.371 118.67C252.708 111.485 243.003 107.31 230.893 105.661L229.679 114.579Z" fill="white"/>
<rect x="229" y="143" width="52" height="25" transform="rotate(90 229 143)" fill="#4200FF"/>
<rect x="217" y="82" width="70" height="21" fill="#4200FF"/>
<path d="M94.5854 239.6H82.0354C80.5687 239.6 79.5354 239.883 78.9354 240.45C78.3687 241.017 78.0854 242 78.0854 243.4V248.35H91.1354L90.6354 254.55H78.0854V269H71.1354V240.65C71.1354 238.017 71.702 236.15 72.8354 235.05C74.002 233.95 75.9854 233.4 78.7854 233.4H94.5854V239.6ZM119.778 269H115.428L113.428 265.55L106.478 269.3C102.611 269.3 100.011 267.9 98.6775 265.1C98.0109 263.733 97.5442 262.267 97.2775 260.7C97.0442 259.1 96.9275 257.45 96.9275 255.75C96.9275 254.017 96.9442 252.75 96.9775 251.95C97.0109 251.117 97.0942 250.167 97.2275 249.1C97.3609 248 97.5442 247.083 97.7775 246.35C98.0442 245.617 98.4109 244.867 98.8775 244.1C99.3442 243.3 99.9109 242.667 100.578 242.2C102.078 241.167 104.028 240.65 106.428 240.65H113.278L119.778 240.25V269ZM113.278 259.9V246.5H108.328C106.494 246.5 105.211 247.2 104.478 248.6C103.778 250 103.428 252.1 103.428 254.9C103.428 257.667 103.761 259.617 104.428 260.75C105.128 261.883 106.428 262.45 108.328 262.45L113.278 259.9ZM151.387 269H143.587L136.087 258.9L133.237 262.95V269H126.737V231.4H133.237V255.15L142.337 241.6H149.687L140.337 254.4L151.387 269ZM176.166 256.25H159.516C159.516 258.85 159.916 260.75 160.716 261.95C161.55 263.15 163.2 263.75 165.666 263.75C167.266 263.75 168.45 263.25 169.216 262.25C169.983 261.217 170.366 260.233 170.366 259.3H176.216C176.216 262.867 175.25 265.483 173.316 267.15C171.416 268.817 168.883 269.65 165.716 269.65C162.583 269.65 160.15 269.2 158.416 268.3C154.85 266.467 153.066 261.6 153.066 253.7C153.066 249 154.083 245.567 156.116 243.4C158.15 241.2 161.25 240.1 165.416 240.1C172.65 240.1 176.266 244.117 176.266 252.15C176.266 253.017 176.233 254.383 176.166 256.25ZM159.666 251.8H170.366C170.366 249.6 169.95 248 169.116 247C168.283 246 167 245.5 165.266 245.5C163.566 245.5 162.2 246.017 161.166 247.05C160.166 248.05 159.666 249.633 159.666 251.8Z" fill="#4200FF"/>
<path d="M213.38 261.1V261.85C213.18 264.35 212.113 266.233 210.18 267.5C208.28 268.767 205.897 269.4 203.03 269.4C198.797 269.4 195.83 268.633 194.13 267.1C192.563 265.7 191.78 263.633 191.78 260.9V260.3H197.68C197.68 261.833 198.08 262.883 198.88 263.45C199.68 264.017 201.063 264.3 203.03 264.3C205.697 264.3 207.03 263.333 207.03 261.4C207.03 259.8 206.563 258.733 205.63 258.2C205.197 257.933 204.647 257.733 203.98 257.6L198.93 256.75C194.53 256.05 192.33 253.3 192.33 248.5C192.33 245.833 193.297 243.767 195.23 242.3C197.197 240.8 199.68 240.05 202.68 240.05C209.513 240.05 212.93 243 212.93 248.9V249.55H207.28C207.213 247.983 206.797 246.917 206.03 246.35C205.263 245.783 204.18 245.5 202.78 245.5C201.413 245.5 200.38 245.783 199.68 246.35C198.98 246.883 198.63 247.483 198.63 248.15C198.63 250.05 199.397 251.133 200.93 251.4L206.98 252.5C211.247 253.3 213.38 256.167 213.38 261.1ZM234.279 256.1V253.5C234.279 251.033 233.912 249.15 233.179 247.85C232.479 246.55 230.995 245.9 228.729 245.9C225.062 245.9 223.229 248.367 223.229 253.3V255.9C223.229 261.2 225.062 263.85 228.729 263.85C231.095 263.85 232.645 262.967 233.379 261.2C233.979 259.8 234.279 258.1 234.279 256.1ZM240.779 254.6C240.779 260.767 239.612 264.9 237.279 267C235.312 268.8 232.462 269.7 228.729 269.7C223.962 269.7 220.745 268.3 219.079 265.5C217.512 262.933 216.729 259.3 216.729 254.6C216.729 250.2 217.512 246.75 219.079 244.25C220.812 241.45 223.962 240.05 228.529 240.05C233.129 240.05 236.312 241.283 238.079 243.75C239.879 246.183 240.779 249.8 240.779 254.6ZM260.577 258.55L266.477 258.5C266.444 258.767 266.41 259.25 266.377 259.95C266.344 260.65 266.31 261.133 266.277 261.4C266.277 261.633 266.244 262.017 266.177 262.55C266.11 263.083 266.027 263.483 265.927 263.75C265.86 263.983 265.76 264.3 265.627 264.7C265.027 266.433 263.394 267.8 260.727 268.8C259.027 269.4 257.244 269.7 255.377 269.7C253.544 269.7 251.877 269.4 250.377 268.8C248.877 268.2 247.694 267.433 246.827 266.5C244.86 264.433 243.877 260.567 243.877 254.9C243.877 249.2 244.86 245.317 246.827 243.25C247.694 242.317 248.877 241.55 250.377 240.95C251.877 240.35 253.544 240.05 255.377 240.05C258.977 240.05 261.71 240.95 263.577 242.75C265.444 244.55 266.377 247.05 266.377 250.25H260.477C260.477 248.783 260.11 247.7 259.377 247C258.644 246.267 257.277 245.9 255.277 245.9C253.31 245.9 251.994 246.517 251.327 247.75C250.694 248.983 250.377 250.833 250.377 253.3V255.9C250.377 259.867 251.144 262.3 252.677 263.2C253.377 263.633 254.294 263.85 255.427 263.85C256.56 263.85 257.477 263.75 258.177 263.55C258.91 263.317 259.427 262.933 259.727 262.4C260.06 261.867 260.277 261.35 260.377 260.85C260.477 260.317 260.544 259.55 260.577 258.55ZM275.205 229.55C276.772 229.55 277.788 229.8 278.255 230.3C278.722 230.767 278.955 231.783 278.955 233.35C278.955 234.883 278.705 235.9 278.205 236.4C277.738 236.867 276.722 237.1 275.155 237.1C273.622 237.1 272.605 236.85 272.105 236.35C271.638 235.85 271.405 234.833 271.405 233.3C271.405 231.767 271.638 230.767 272.105 230.3C272.605 229.8 273.638 229.55 275.205 229.55ZM278.405 269H271.905V241.5H278.405V269ZM305.324 269H300.974L298.974 265.55L292.024 269.3C288.158 269.3 285.558 267.9 284.224 265.1C283.558 263.733 283.091 262.267 282.824 260.7C282.591 259.1 282.474 257.45 282.474 255.75C282.474 254.017 282.491 252.75 282.524 251.95C282.558 251.117 282.641 250.167 282.774 249.1C282.908 248 283.091 247.083 283.324 246.35C283.591 245.617 283.958 244.867 284.424 244.1C284.891 243.3 285.458 242.667 286.124 242.2C287.624 241.167 289.574 240.65 291.974 240.65H298.824L305.324 240.25V269ZM298.824 259.9V246.5H293.874C292.041 246.5 290.758 247.2 290.024 248.6C289.324 250 288.974 252.1 288.974 254.9C288.974 257.667 289.308 259.617 289.974 260.75C290.674 261.883 291.974 262.45 293.874 262.45L298.824 259.9ZM318.633 269L312.133 269.05V231.4H318.633V269ZM345.216 261.1V261.85C345.016 264.35 343.949 266.233 342.016 267.5C340.116 268.767 337.732 269.4 334.866 269.4C330.632 269.4 327.666 268.633 325.966 267.1C324.399 265.7 323.616 263.633 323.616 260.9V260.3H329.516C329.516 261.833 329.916 262.883 330.716 263.45C331.516 264.017 332.899 264.3 334.866 264.3C337.532 264.3 338.866 263.333 338.866 261.4C338.866 259.8 338.399 258.733 337.466 258.2C337.032 257.933 336.482 257.733 335.816 257.6L330.766 256.75C326.366 256.05 324.166 253.3 324.166 248.5C324.166 245.833 325.132 243.767 327.066 242.3C329.032 240.8 331.516 240.05 334.516 240.05C341.349 240.05 344.766 243 344.766 248.9V249.55H339.116C339.049 247.983 338.632 246.917 337.866 246.35C337.099 245.783 336.016 245.5 334.616 245.5C333.249 245.5 332.216 245.783 331.516 246.35C330.816 246.883 330.466 247.483 330.466 248.15C330.466 250.05 331.232 251.133 332.766 251.4L338.816 252.5C343.082 253.3 345.216 256.167 345.216 261.1Z" fill="#7820EB"/>
</svg>
