<svg width="373" height="420" viewBox="0 0 373 420" fill="none" xmlns="http://www.w3.org/2000/svg">
<path d="M114.259 354.4C114.259 358.44 112.779 361.62 109.819 363.94C106.859 366.22 103.079 367.36 98.4785 367.36C94.8385 367.36 91.3185 366.36 87.9185 364.36C86.2385 363.32 84.8585 361.86 83.7785 359.98C82.6985 358.06 82.1585 355.88 82.1585 353.44L89.7185 353.08C89.7185 355.24 90.6385 356.92 92.4785 358.12C94.3185 359.32 96.3585 359.92 98.5985 359.92C103.599 359.92 106.099 358.16 106.099 354.64C106.099 351.76 104.399 350.06 100.999 349.54L94.0385 348.82C90.5585 348.3 87.7985 347.06 85.7585 345.1C83.7185 343.14 82.6985 340.32 82.6985 336.64C82.6985 332.96 84.1585 329.92 87.0785 327.52C89.9985 325.12 93.6785 323.92 98.1185 323.92C102.599 323.92 106.199 325.06 108.919 327.34C111.639 329.58 112.999 332.48 112.999 336.04L105.559 336.4C104.879 332.92 102.539 331.18 98.5385 331.18C96.0985 331.18 94.1785 331.7 92.7785 332.74C91.4185 333.78 90.7385 335.02 90.7385 336.46C90.7385 337.86 91.2385 338.98 92.2385 339.82C93.2385 340.62 94.4785 341.12 95.9585 341.32L102.799 342.04C110.439 343.08 114.259 347.2 114.259 354.4ZM145.928 367H140.108L138.308 362.92L128.708 367.36C126.028 367.36 123.688 366.38 121.688 364.42C119.728 362.42 118.748 359.52 118.748 355.72V332.74H126.548V354.04C126.548 357.84 128.068 359.74 131.108 359.74L138.128 355.96V332.74H145.928V367ZM182.062 348.94C182.062 357.86 179.762 363.56 175.162 366.04C173.282 367.04 170.982 367.54 168.262 367.54L162.502 363.82V377.2H154.702V332.98H170.062C174.702 332.98 177.862 334.3 179.542 336.94C181.222 339.54 182.062 343.54 182.062 348.94ZM174.262 350.14C174.262 343.38 172.102 340 167.782 340H162.502V355.9L167.782 359.32C170.102 359.32 171.762 358.6 172.762 357.16C173.762 355.68 174.262 353.34 174.262 350.14ZM215.636 348.94C215.636 357.86 213.336 363.56 208.736 366.04C206.856 367.04 204.556 367.54 201.836 367.54L196.076 363.82V377.2H188.276V332.98H203.636C208.276 332.98 211.436 334.3 213.116 336.94C214.796 339.54 215.636 343.54 215.636 348.94ZM207.836 350.14C207.836 343.38 205.676 340 201.356 340H196.076V355.9L201.356 359.32C203.676 359.32 205.336 358.6 206.336 357.16C207.336 355.68 207.836 353.34 207.836 350.14ZM240.391 351.52V348.4C240.391 345.44 239.951 343.18 239.071 341.62C238.231 340.06 236.451 339.28 233.731 339.28C229.331 339.28 227.131 342.24 227.131 348.16V351.28C227.131 357.64 229.331 360.82 233.731 360.82C236.571 360.82 238.431 359.76 239.311 357.64C240.031 355.96 240.391 353.92 240.391 351.52ZM248.191 349.72C248.191 357.12 246.791 362.08 243.991 364.6C241.631 366.76 238.211 367.84 233.731 367.84C228.011 367.84 224.151 366.16 222.151 362.8C220.271 359.72 219.331 355.36 219.331 349.72C219.331 344.44 220.271 340.3 222.151 337.3C224.231 333.94 228.011 332.26 233.491 332.26C239.011 332.26 242.831 333.74 244.951 336.7C247.111 339.62 248.191 343.96 248.191 349.72ZM272.609 332.86L270.449 340.54C269.849 340.3 269.169 340.18 268.409 340.18C266.409 340.18 263.949 341.04 261.029 342.76V367H253.229V332.74H259.049L260.849 335.74L269.129 332.32C269.529 332.28 270.069 332.26 270.749 332.26C271.429 332.26 272.049 332.46 272.609 332.86ZM292.448 367H287.588C284.628 367 282.368 366.12 280.808 364.36C279.288 362.6 278.528 360.5 278.528 358.06V340.06H275.228V334.12H278.528V327.4H286.328V334.12H291.848V340.06H286.328V357.58C286.328 359.46 287.228 360.4 289.028 360.4H292.448V367Z" fill="#9B55F6"/>
<rect x="2.5" y="60.5" width="368" height="357" rx="44.5" stroke="url(#paint0_linear_30_72)" stroke-width="5"/>
<path d="M174.988 300.8V279.2C165.255 277.333 157.188 272.667 150.788 265.2C144.522 257.733 141.388 247.267 141.388 233.8L166.588 232.6C166.588 240.6 167.988 246.4 170.788 250C173.722 253.6 178.188 255.4 184.188 255.4C190.188 255.4 195.188 253.8 199.188 250.6C203.322 247.4 205.388 243.133 205.388 237.8C205.388 228.2 200.855 222.533 191.788 220.8L173.188 218.4C163.855 216.667 156.455 212.533 150.988 206C145.655 199.467 142.988 190.533 142.988 179.2C142.988 167.867 145.855 158.467 151.588 151C157.322 143.533 165.122 138.733 174.988 136.6V121.8H195.188V136.2C205.988 137.933 214.522 142.4 220.788 149.6C227.188 156.667 230.388 165.4 230.388 175.8L205.388 177C204.322 170.333 202.188 165.8 198.988 163.4C195.788 160.867 191.655 159.6 186.588 159.6C181.655 159.6 177.588 161.4 174.388 165C171.322 168.6 169.788 172.733 169.788 177.4C169.788 181.933 171.122 185.6 173.788 188.4C176.455 191.067 179.722 192.733 183.588 193.4L196.588 195.8C206.988 197.533 215.655 201.867 222.588 208.8C229.522 215.6 232.988 224.733 232.988 236.2C232.988 247.667 229.188 257.133 221.588 264.6C214.122 272.067 205.322 276.867 195.188 279V300.8H174.988Z" fill="url(#paint1_linear_30_72)"/>
<defs>
<linearGradient id="paint0_linear_30_72" x1="186.5" y1="58" x2="186.5" y2="420" gradientUnits="userSpaceOnUse">
<stop stop-color="#4200FF"/>
<stop offset="1" stop-color="#FE7478"/>
</linearGradient>
<linearGradient id="paint1_linear_30_72" x1="186.5" y1="76" x2="186.5" y2="283" gradientUnits="userSpaceOnUse">
<stop stop-color="#4200FF"/>
<stop offset="0.505208" stop-color="#9B55F6"/>
<stop offset="1" stop-color="#FE7478"/>
</linearGradient>
</defs>
</svg>
