<svg width="150" height="150" viewBox="0 0 150 150" fill="none" xmlns="http://www.w3.org/2000/svg">
<circle cx="75" cy="75" r="75" fill="url(#paint0_linear_65_143)"/>
<circle cx="74.5" cy="75.5" r="59.5" fill="white"/>
<path d="M52.6105 47.384L52.6345 49.232C52.5705 50.4 52.4265 51.384 52.2025 52.184C51.9785 52.984 51.5385 53.712 50.8825 54.368C49.7945 55.456 48.2105 56 46.1305 56C43.6825 56 42.0025 55.68 41.0905 55.04C40.1785 54.384 39.7225 53.208 39.7225 51.512V38.912H46.3705C48.2905 38.912 49.7945 39.456 50.8825 40.544C51.7625 41.424 52.2825 42.496 52.4425 43.76C52.5545 44.656 52.6105 45.864 52.6105 47.384ZM48.5545 51.968C48.8585 51.6 49.0505 51.096 49.1305 50.456C49.2265 49.8 49.2745 48.784 49.2745 47.408C49.2745 46.032 49.2265 45.04 49.1305 44.432C49.0505 43.808 48.8585 43.312 48.5545 42.944C47.9785 42.24 47.1465 41.888 46.0585 41.888H43.0585V51.344C43.0585 51.984 43.2745 52.424 43.7065 52.664C44.1385 52.904 44.9065 53.024 46.0105 53.024C47.1305 53.024 47.9785 52.672 48.5545 51.968ZM62.7188 49.808V48.56C62.7188 47.376 62.5428 46.472 62.1908 45.848C61.8548 45.224 61.1428 44.912 60.0548 44.912C58.2948 44.912 57.4148 46.096 57.4148 48.464V49.712C57.4148 52.256 58.2948 53.528 60.0548 53.528C61.1908 53.528 61.9348 53.104 62.2868 52.256C62.5748 51.584 62.7188 50.768 62.7188 49.808ZM65.8388 49.088C65.8388 52.048 65.2788 54.032 64.1588 55.04C63.2148 55.904 61.8468 56.336 60.0548 56.336C57.7668 56.336 56.2228 55.664 55.4228 54.32C54.6708 53.088 54.2948 51.344 54.2948 49.088C54.2948 46.976 54.6708 45.32 55.4228 44.12C56.2548 42.776 57.7668 42.104 59.9588 42.104C62.1668 42.104 63.6948 42.696 64.5428 43.88C65.4068 45.048 65.8388 46.784 65.8388 49.088ZM78.582 56H76.254L75.534 54.368L71.694 56.144C70.622 56.144 69.686 55.752 68.886 54.968C68.102 54.168 67.71 53.008 67.71 51.488V42.296H70.83V50.816C70.83 52.336 71.438 53.096 72.654 53.096L75.462 51.584V42.296H78.582V56ZM87.9478 56.024L85.2358 56C84.0358 56 83.1238 55.648 82.4998 54.944C81.8918 54.24 81.5878 53.4 81.5878 52.424V37.952H84.7078V44L88.4278 42.272C89.8518 42.272 90.8998 42.656 91.5718 43.424C92.1638 44.112 92.5318 45.224 92.6758 46.76C92.7238 47.4 92.7478 48.192 92.7478 49.136C92.7478 53.728 91.1478 56.024 87.9478 56.024ZM85.4998 53.336H87.0358C88.7638 53.336 89.6278 51.936 89.6278 49.136C89.6278 47.712 89.4918 46.72 89.2198 46.16C88.9638 45.6 88.3958 45.32 87.5158 45.32L84.7078 46.832V52.232C84.7078 52.872 84.9718 53.24 85.4998 53.336ZM98.5215 56L95.4015 56.024V37.952H98.5215V56ZM112.145 49.88H104.153C104.153 51.128 104.345 52.04 104.729 52.616C105.129 53.192 105.921 53.48 107.105 53.48C107.873 53.48 108.441 53.24 108.809 52.76C109.177 52.264 109.361 51.792 109.361 51.344H112.169C112.169 53.056 111.705 54.312 110.777 55.112C109.865 55.912 108.649 56.312 107.129 56.312C105.625 56.312 104.457 56.096 103.625 55.664C101.913 54.784 101.057 52.448 101.057 48.656C101.057 46.4 101.545 44.752 102.521 43.712C103.497 42.656 104.985 42.128 106.985 42.128C110.457 42.128 112.193 44.056 112.193 47.912C112.193 48.328 112.177 48.984 112.145 49.88ZM104.225 47.744H109.361C109.361 46.688 109.161 45.92 108.761 45.44C108.361 44.96 107.745 44.72 106.913 44.72C106.097 44.72 105.441 44.968 104.945 45.464C104.465 45.944 104.225 46.704 104.225 47.744ZM45.1077 82.984L47.9397 82.96C47.9237 83.088 47.9077 83.32 47.8917 83.656C47.8757 83.992 47.8597 84.224 47.8437 84.352C47.8437 84.464 47.8277 84.648 47.7957 84.904C47.7637 85.16 47.7237 85.352 47.6757 85.48C47.6437 85.592 47.5957 85.744 47.5317 85.936C47.2437 86.768 46.4597 87.424 45.1797 87.904C44.3637 88.192 43.5077 88.336 42.6117 88.336C41.7317 88.336 40.9317 88.192 40.2117 87.904C39.4917 87.616 38.9237 87.248 38.5077 86.8C37.5637 85.808 37.0917 83.952 37.0917 81.232C37.0917 78.496 37.5637 76.632 38.5077 75.64C38.9237 75.192 39.4917 74.824 40.2117 74.536C40.9317 74.248 41.7317 74.104 42.6117 74.104C44.3397 74.104 45.6517 74.536 46.5477 75.4C47.4437 76.264 47.8917 77.464 47.8917 79H45.0597C45.0597 78.296 44.8837 77.776 44.5317 77.44C44.1797 77.088 43.5237 76.912 42.5637 76.912C41.6197 76.912 40.9877 77.208 40.6677 77.8C40.3637 78.392 40.2117 79.28 40.2117 80.464V81.712C40.2117 83.616 40.5797 84.784 41.3157 85.216C41.6517 85.424 42.0917 85.528 42.6357 85.528C43.1797 85.528 43.6197 85.48 43.9557 85.384C44.3077 85.272 44.5557 85.088 44.6997 84.832C44.8597 84.576 44.9637 84.328 45.0117 84.088C45.0597 83.832 45.0917 83.464 45.1077 82.984ZM53.545 88L50.425 88.024V69.952H53.545V88ZM58.4805 69.064C59.2325 69.064 59.7205 69.184 59.9445 69.424C60.1685 69.648 60.2805 70.136 60.2805 70.888C60.2805 71.624 60.1605 72.112 59.9205 72.352C59.6965 72.576 59.2085 72.688 58.4565 72.688C57.7205 72.688 57.2325 72.568 56.9925 72.328C56.7685 72.088 56.6565 71.6 56.6565 70.864C56.6565 70.128 56.7685 69.648 56.9925 69.424C57.2325 69.184 57.7285 69.064 58.4805 69.064ZM60.0165 88H56.8965V74.8H60.0165V88ZM70.5139 82.984L73.3459 82.96C73.3299 83.088 73.3139 83.32 73.2979 83.656C73.2819 83.992 73.2659 84.224 73.2499 84.352C73.2499 84.464 73.2339 84.648 73.2019 84.904C73.1699 85.16 73.1299 85.352 73.0819 85.48C73.0499 85.592 73.0019 85.744 72.9379 85.936C72.6499 86.768 71.8659 87.424 70.5859 87.904C69.7699 88.192 68.9139 88.336 68.0179 88.336C67.1379 88.336 66.3379 88.192 65.6179 87.904C64.8979 87.616 64.3299 87.248 63.9139 86.8C62.9699 85.808 62.4979 83.952 62.4979 81.232C62.4979 78.496 62.9699 76.632 63.9139 75.64C64.3299 75.192 64.8979 74.824 65.6179 74.536C66.3379 74.248 67.1379 74.104 68.0179 74.104C69.7459 74.104 71.0579 74.536 71.9539 75.4C72.8499 76.264 73.2979 77.464 73.2979 79H70.4659C70.4659 78.296 70.2899 77.776 69.9379 77.44C69.5859 77.088 68.9299 76.912 67.9699 76.912C67.0259 76.912 66.3939 77.208 66.0739 77.8C65.7699 78.392 65.6179 79.28 65.6179 80.464V81.712C65.6179 83.616 65.9859 84.784 66.7219 85.216C67.0579 85.424 67.4979 85.528 68.0419 85.528C68.5859 85.528 69.0259 85.48 69.3619 85.384C69.7139 85.272 69.9619 85.088 70.1059 84.832C70.2659 84.576 70.3699 84.328 70.4179 84.088C70.4659 83.832 70.4979 83.464 70.5139 82.984ZM87.7352 88H83.9912L80.3912 83.152L79.0232 85.096V88H75.9032V69.952H79.0232V81.352L83.3912 74.848H86.9192L82.4312 80.992L87.7352 88ZM100.792 88H98.8476C97.6636 88 96.7596 87.648 96.1356 86.944C95.5276 86.24 95.2236 85.4 95.2236 84.424V77.224H93.9036V74.848H95.2236V72.16H98.3436V74.848H100.552V77.224H98.3436V84.232C98.3436 84.984 98.7036 85.36 99.4236 85.36H100.792V88ZM110.789 81.808V80.56C110.789 79.376 110.613 78.472 110.261 77.848C109.925 77.224 109.213 76.912 108.125 76.912C106.365 76.912 105.485 78.096 105.485 80.464V81.712C105.485 84.256 106.365 85.528 108.125 85.528C109.261 85.528 110.005 85.104 110.357 84.256C110.645 83.584 110.789 82.768 110.789 81.808ZM113.909 81.088C113.909 84.048 113.349 86.032 112.229 87.04C111.285 87.904 109.917 88.336 108.125 88.336C105.837 88.336 104.293 87.664 103.493 86.32C102.741 85.088 102.365 83.344 102.365 81.088C102.365 78.976 102.741 77.32 103.493 76.12C104.325 74.776 105.837 74.104 108.029 74.104C110.237 74.104 111.765 74.696 112.613 75.88C113.477 77.048 113.909 78.784 113.909 81.088ZM53.3683 120H51.2803L50.3203 118.344L46.9843 120.144C45.1283 120.144 43.8803 119.472 43.2402 118.128C42.9203 117.472 42.6963 116.768 42.5683 116.016C42.4563 115.248 42.4003 114.456 42.4003 113.64C42.4003 112.808 42.4083 112.2 42.4243 111.816C42.4403 111.416 42.4803 110.96 42.5443 110.448C42.6083 109.92 42.6963 109.48 42.8083 109.128C42.9363 108.776 43.1123 108.416 43.3363 108.048C43.5603 107.664 43.8323 107.36 44.1523 107.136C44.8723 106.64 45.8083 106.392 46.9603 106.392H50.2483V101.952H53.3683V120ZM50.2483 115.632V109.2H47.8723C46.9923 109.2 46.3763 109.536 46.0243 110.208C45.6883 110.88 45.5203 111.888 45.5203 113.232C45.5203 114.56 45.6803 115.496 46.0003 116.04C46.3363 116.584 46.9603 116.856 47.8723 116.856L50.2483 115.632ZM67.1334 113.88H59.1414C59.1414 115.128 59.3334 116.04 59.7174 116.616C60.1174 117.192 60.9094 117.48 62.0934 117.48C62.8614 117.48 63.4294 117.24 63.7974 116.76C64.1654 116.264 64.3494 115.792 64.3494 115.344H67.1574C67.1574 117.056 66.6934 118.312 65.7654 119.112C64.8534 119.912 63.6374 120.312 62.1174 120.312C60.6134 120.312 59.4454 120.096 58.6134 119.664C56.9014 118.784 56.0454 116.448 56.0454 112.656C56.0454 110.4 56.5334 108.752 57.5094 107.712C58.4854 106.656 59.9734 106.128 61.9734 106.128C65.4454 106.128 67.1814 108.056 67.1814 111.912C67.1814 112.328 67.1654 112.984 67.1334 113.88ZM59.2134 111.744H64.3494C64.3494 110.688 64.1494 109.92 63.7494 109.44C63.3494 108.96 62.7334 108.72 61.9014 108.72C61.0854 108.72 60.4294 108.968 59.9334 109.464C59.4534 109.944 59.2134 110.704 59.2134 111.744ZM73.0098 120L69.8898 120.024V101.952H73.0098V120ZM86.6334 113.88H78.6414C78.6414 115.128 78.8334 116.04 79.2174 116.616C79.6174 117.192 80.4094 117.48 81.5934 117.48C82.3614 117.48 82.9294 117.24 83.2974 116.76C83.6654 116.264 83.8494 115.792 83.8494 115.344H86.6574C86.6574 117.056 86.1934 118.312 85.2654 119.112C84.3534 119.912 83.1374 120.312 81.6174 120.312C80.1134 120.312 78.9454 120.096 78.1134 119.664C76.4014 118.784 75.5454 116.448 75.5454 112.656C75.5454 110.4 76.0334 108.752 77.0094 107.712C77.9854 106.656 79.4734 106.128 81.4734 106.128C84.9454 106.128 86.6814 108.056 86.6814 111.912C86.6814 112.328 86.6654 112.984 86.6334 113.88ZM78.7134 111.744H83.8494C83.8494 110.688 83.6494 109.92 83.2494 109.44C82.8494 108.96 82.2334 108.72 81.4014 108.72C80.5854 108.72 79.9294 108.968 79.4334 109.464C78.9534 109.944 78.7134 110.704 78.7134 111.744ZM95.3658 120H93.4218C92.2378 120 91.3338 119.648 90.7098 118.944C90.1018 118.24 89.7978 117.4 89.7978 116.424V109.224H88.4778V106.848H89.7978V104.16H92.9178V106.848H95.1258V109.224H92.9178V116.232C92.9178 116.984 93.2778 117.36 93.9978 117.36H95.3658V120ZM108.219 113.88H100.227C100.227 115.128 100.419 116.04 100.803 116.616C101.203 117.192 101.995 117.48 103.179 117.48C103.947 117.48 104.515 117.24 104.883 116.76C105.251 116.264 105.435 115.792 105.435 115.344H108.243C108.243 117.056 107.779 118.312 106.851 119.112C105.939 119.912 104.723 120.312 103.203 120.312C101.699 120.312 100.531 120.096 99.6993 119.664C97.9873 118.784 97.1313 116.448 97.1313 112.656C97.1313 110.4 97.6193 108.752 98.5953 107.712C99.5713 106.656 101.059 106.128 103.059 106.128C106.531 106.128 108.267 108.056 108.267 111.912C108.267 112.328 108.251 112.984 108.219 113.88ZM100.299 111.744H105.435C105.435 110.688 105.235 109.92 104.835 109.44C104.435 108.96 103.819 108.72 102.987 108.72C102.171 108.72 101.515 108.968 101.019 109.464C100.539 109.944 100.299 110.704 100.299 111.744Z" fill="#7820EB"/>
<defs>
<linearGradient id="paint0_linear_65_143" x1="75" y1="0" x2="75" y2="150" gradientUnits="userSpaceOnUse">
<stop stop-color="#7820EB"/>
<stop offset="0.5" stop-color="#9B55F6"/>
<stop offset="1" stop-color="#FE7478"/>
</linearGradient>
</defs>
</svg>
