<svg width="134" height="86" viewBox="0 0 134 86" fill="none" xmlns="http://www.w3.org/2000/svg">
<path d="M0 69.925C0 58.3684 9.36844 49 20.925 49H48C62.9117 49 75 61.0883 75 76V76H6.075C2.71987 76 0 73.2801 0 69.925V69.925Z" fill="#D9D9D9"/>
<path d="M62 76C62 61.0883 74.0883 49 89 49H113.075C124.632 49 134 58.3684 134 69.925V69.925C134 73.2801 131.28 76 127.925 76H62V76Z" fill="#D9D9D9"/>
<path d="M82.7381 40.5H53.2619C35.7203 40.5 21.5 54.7203 21.5 72.2619C21.5 79.0208 26.9792 84.5 33.7381 84.5H102.262C109.021 84.5 114.5 79.0208 114.5 72.2619C114.5 54.7203 100.28 40.5 82.7381 40.5Z" fill="#D9D9D9" stroke="#273443" stroke-width="3"/>
<circle cx="69" cy="19" r="19" fill="#D9D9D9"/>
<circle cx="105.5" cy="31.5" r="12.5" fill="#D9D9D9"/>
<circle cx="31.5" cy="31.5" r="12.5" fill="#D9D9D9"/>
</svg>
