<svg width="63" height="36" viewBox="0 0 63 36" fill="none" xmlns="http://www.w3.org/2000/svg">
<rect x="2" y="2" width="41" height="32" rx="3" fill="#FF5E5E" stroke="#FF5E5E" stroke-width="4"/>
<path d="M53.8802 6.57586L36.8204 15.331C34.6468 16.4465 34.6468 19.5535 36.8204 20.669L53.8802 29.4241C55.8766 30.4487 58.25 28.999 58.25 26.7551V9.2449C58.25 7.00096 55.8766 5.55131 53.8802 6.57586Z" fill="#FF5E5E" stroke="#FF5E5E" stroke-width="4"/>
<path d="M26 14C26 13.4477 25.5523 13 25 13L16 13C15.4477 13 15 13.4477 15 14C15 14.5523 15.4477 15 16 15L24 15V23C24 23.5523 24.4477 24 25 24C25.5523 24 26 23.5523 26 23L26 14ZM10.7071 29.7071L25.7071 14.7071L24.2929 13.2929L9.29289 28.2929L10.7071 29.7071Z" fill="#273443"/>
</svg>
