<svg width="63" height="36" viewBox="0 0 63 36" fill="none" xmlns="http://www.w3.org/2000/svg">
<rect x="2" y="2" width="41" height="32" rx="3" fill="#FF5E5E" stroke="#FF5E5E" stroke-width="4"/>
<path d="M53.8802 6.57586L36.8204 15.331C34.6468 16.4465 34.6468 19.5535 36.8204 20.669L53.8802 29.4241C55.8766 30.4487 58.25 28.999 58.25 26.7551V9.2449C58.25 7.00096 55.8766 5.55131 53.8802 6.57586Z" fill="#FF5E5E" stroke="#FF5E5E" stroke-width="4"/>
<path d="M9 28C9 28.5523 9.44772 29 10 29L19 29C19.5523 29 20 28.5523 20 28C20 27.4477 19.5523 27 19 27H11L11 19C11 18.4477 10.5523 18 10 18C9.44772 18 9 18.4477 9 19L9 28ZM24.2929 12.2929L9.29289 27.2929L10.7071 28.7071L25.7071 13.7071L24.2929 12.2929Z" fill="#273443"/>
</svg>
