<svg width="94" height="98" viewBox="0 0 94 98" fill="none" xmlns="http://www.w3.org/2000/svg">
<path d="M48.5006 47.9597C48.4771 48.7878 49.1294 49.4781 49.9575 49.5016L63.4521 49.8838C64.2802 49.9072 64.9705 49.2549 64.994 48.4269C65.0174 47.5988 64.3652 46.9084 63.5371 46.885L51.5419 46.5453L51.8816 34.5501C51.905 33.722 51.2528 33.0317 50.4247 33.0082C49.5966 32.9848 48.9062 33.637 48.8828 34.4651L48.5006 47.9597ZM70.138 26.9097L48.9698 46.9119L51.0302 49.0925L72.1984 29.0903L70.138 26.9097Z" fill="#FF5E5E"/>
<path d="M16.4019 13.0022L16.6203 14.5109C21.4609 47.9439 45.8584 75.2242 78.5456 83.7532L79.9139 84.1102" stroke="#FF5E5E" stroke-width="4"/>
<path d="M24.8138 9.04815C27.9284 7.91699 31.3704 9.52494 32.5015 12.6396L36.9392 24.8587C38.0703 27.9734 36.4624 31.4153 33.3477 32.5465L22.936 36.3277L14.402 12.8294L24.8138 9.04815Z" fill="#FF5E5E"/>
<path d="M60.3667 65.6296C61.593 62.5512 65.0827 61.0497 68.1612 62.2761L80.2382 67.0871C83.3166 68.3135 84.818 71.8032 83.5917 74.8816L79.6269 84.8342L56.4019 75.5822L60.3667 65.6296Z" fill="#FF5E5E"/>
</svg>
