<svg width="564" height="67" viewBox="0 0 564 67" fill="none" xmlns="http://www.w3.org/2000/svg">
<rect x="4" y="12" width="8" height="43" rx="4" fill="#D9D9D9"/>
<rect x="28" width="8" height="67" rx="4" fill="#D9D9D9"/>
<rect x="40" y="6" width="8" height="54" rx="4" fill="#D9D9D9"/>
<rect x="52" y="9" width="8" height="48" rx="4" fill="#D9D9D9"/>
<rect x="64" y="4" width="8" height="58" rx="4" fill="#D9D9D9"/>
<rect x="76" y="4" width="8" height="58" rx="4" fill="#D9D9D9"/>
<rect x="88" y="22" width="8" height="23" rx="4" fill="#D9D9D9"/>
<rect x="100" y="12" width="8" height="43" rx="4" fill="#D9D9D9"/>
<rect x="112" width="8" height="67" rx="4" fill="#D9D9D9"/>
<rect x="124" y="4" width="8" height="58" rx="4" fill="#D9D9D9"/>
<rect x="136" y="9" width="8" height="48" rx="4" fill="#D9D9D9"/>
<rect x="148" y="12" width="8" height="43" rx="4" fill="#D9D9D9"/>
<rect x="160" width="8" height="67" rx="4" fill="#D9D9D9"/>
<rect x="172" y="22" width="8" height="23" rx="4" fill="#D9D9D9"/>
<rect x="184" y="10" width="8" height="47" rx="4" fill="#D9D9D9"/>
<rect x="196" width="8" height="67" rx="4" fill="#D9D9D9"/>
<rect x="208" y="9" width="8" height="48" rx="4" fill="#D9D9D9"/>
<rect x="220" y="4" width="8" height="58" rx="4" fill="#D9D9D9"/>
<rect x="232" width="8" height="67" rx="4" fill="#D9D9D9"/>
<rect x="244" y="22" width="8" height="23" rx="4" fill="#D9D9D9"/>
<rect x="256" width="8" height="67" rx="4" fill="#D9D9D9"/>
<rect x="268" width="8" height="67" rx="4" fill="#D9D9D9"/>
<rect x="280" y="6" width="8" height="54" rx="4" fill="#D9D9D9"/>
<rect x="292" y="22" width="8" height="23" rx="4" fill="#D9D9D9"/>
<rect x="304" y="4" width="8" height="58" rx="4" fill="#D9D9D9"/>
<rect x="316" width="8" height="67" rx="4" fill="#D9D9D9"/>
<rect x="328" y="4" width="8" height="58" rx="4" fill="#D9D9D9"/>
<rect x="340" width="8" height="67" rx="4" fill="#D9D9D9"/>
<rect x="352" y="22" width="8" height="23" rx="4" fill="#D9D9D9"/>
<rect x="364" y="4" width="8" height="58" rx="4" fill="#D9D9D9"/>
<rect x="376" width="8" height="67" rx="4" fill="#D9D9D9"/>
<rect x="388" width="8" height="67" rx="4" fill="#D9D9D9"/>
<rect x="400" y="12" width="8" height="43" rx="4" fill="#D9D9D9"/>
<rect x="556" y="19" width="8" height="29" rx="4" fill="#D9D9D9"/>
<rect x="412" y="9" width="8" height="48" rx="4" fill="#D9D9D9"/>
<rect x="424" width="8" height="67" rx="4" fill="#D9D9D9"/>
<rect x="436" y="9" width="8" height="48" rx="4" fill="#D9D9D9"/>
<rect x="448" width="8" height="67" rx="4" fill="#D9D9D9"/>
<rect x="460" y="6" width="8" height="54" rx="4" fill="#D9D9D9"/>
<rect x="472" width="8" height="67" rx="4" fill="#D9D9D9"/>
<rect x="484" y="22" width="8" height="23" rx="4" fill="#D9D9D9"/>
<rect x="496" y="12" width="8" height="43" rx="4" fill="#D9D9D9"/>
<rect x="508" width="8" height="67" rx="4" fill="#D9D9D9"/>
<rect x="520" y="9" width="8" height="48" rx="4" fill="#D9D9D9"/>
<rect x="532" y="6" width="8" height="54" rx="4" fill="#D9D9D9"/>
<rect x="544" y="4" width="8" height="58" rx="4" fill="#D9D9D9"/>
<rect x="16" y="22" width="8" height="23" rx="4" fill="#D9D9D9"/>
</svg>
