<svg width="336" height="170" viewBox="0 0 336 170" fill="none" xmlns="http://www.w3.org/2000/svg">
<rect x="5" width="143" height="48" rx="24" fill="#9B55F6"/>
<path d="M7.03008 49.2299L9.01298 34.8161L21.1895 45.8833L7.03008 49.2299Z" fill="#9B55F6"/>
<path d="M37.344 28H35.676V24.544H32.544V28H30.876V19.456H32.544V23.068H35.676V19.456H37.344V28ZM44.2268 24.94H40.2308C40.2308 25.564 40.3268 26.02 40.5188 26.308C40.7188 26.596 41.1148 26.74 41.7068 26.74C42.0908 26.74 42.3748 26.62 42.5588 26.38C42.7428 26.132 42.8348 25.896 42.8348 25.672H44.2388C44.2388 26.528 44.0068 27.156 43.5428 27.556C43.0868 27.956 42.4788 28.156 41.7188 28.156C40.9668 28.156 40.3828 28.048 39.9668 27.832C39.1108 27.392 38.6828 26.224 38.6828 24.328C38.6828 23.2 38.9268 22.376 39.4148 21.856C39.9028 21.328 40.6468 21.064 41.6468 21.064C43.3828 21.064 44.2508 22.028 44.2508 23.956C44.2508 24.164 44.2428 24.492 44.2268 24.94ZM40.2668 23.872H42.8348C42.8348 23.344 42.7348 22.96 42.5348 22.72C42.3348 22.48 42.0268 22.36 41.6108 22.36C41.2028 22.36 40.8748 22.484 40.6268 22.732C40.3868 22.972 40.2668 23.352 40.2668 23.872ZM47.1651 28L45.6051 28.012V18.976H47.1651V28ZM50.3408 28L48.7808 28.012V18.976H50.3408V28ZM55.7246 24.904V24.28C55.7246 23.688 55.6366 23.236 55.4606 22.924C55.2926 22.612 54.9366 22.456 54.3926 22.456C53.5126 22.456 53.0726 23.048 53.0726 24.232V24.856C53.0726 26.128 53.5126 26.764 54.3926 26.764C54.9606 26.764 55.3326 26.552 55.5086 26.128C55.6526 25.792 55.7246 25.384 55.7246 24.904ZM57.2846 24.544C57.2846 26.024 57.0046 27.016 56.4446 27.52C55.9726 27.952 55.2886 28.168 54.3926 28.168C53.2486 28.168 52.4766 27.832 52.0766 27.16C51.7006 26.544 51.5126 25.672 51.5126 24.544C51.5126 23.488 51.7006 22.66 52.0766 22.06C52.4926 21.388 53.2486 21.052 54.3446 21.052C55.4486 21.052 56.2126 21.348 56.6366 21.94C57.0686 22.524 57.2846 23.392 57.2846 24.544ZM64.2493 28H63.2773C62.6853 28 62.2333 27.824 61.9213 27.472C61.6173 27.12 61.4653 26.7 61.4653 26.212V22.612H60.8053V21.424H61.4653V20.08H63.0253V21.424H64.1293V22.612H63.0253V26.116C63.0253 26.492 63.2053 26.68 63.5653 26.68H64.2493V28ZM70.8321 28H69.2721V23.704C69.2721 22.968 68.9841 22.6 68.4081 22.6L66.9201 23.188V28H65.3601V18.976H66.9201V21.964L68.9001 21.076C69.6041 21.076 70.1001 21.276 70.3881 21.676C70.6841 22.076 70.8321 22.636 70.8321 23.356V28ZM77.5081 24.94H73.5121C73.5121 25.564 73.6081 26.02 73.8001 26.308C74.0001 26.596 74.3961 26.74 74.9881 26.74C75.3721 26.74 75.6561 26.62 75.8401 26.38C76.0241 26.132 76.1161 25.896 76.1161 25.672H77.5201C77.5201 26.528 77.2881 27.156 76.8241 27.556C76.3681 27.956 75.7601 28.156 75.0001 28.156C74.2481 28.156 73.6641 28.048 73.2481 27.832C72.3921 27.392 71.9641 26.224 71.9641 24.328C71.9641 23.2 72.2081 22.376 72.6961 21.856C73.1841 21.328 73.9281 21.064 74.9281 21.064C76.6641 21.064 77.5321 22.028 77.5321 23.956C77.5321 24.164 77.5241 24.492 77.5081 24.94ZM73.5481 23.872H76.1161C76.1161 23.344 76.0161 22.96 75.8161 22.72C75.6161 22.48 75.3081 22.36 74.8921 22.36C74.4841 22.36 74.1561 22.484 73.9081 22.732C73.6681 22.972 73.5481 23.352 73.5481 23.872ZM82.5823 21.172L82.1503 22.708C82.0303 22.66 81.8943 22.636 81.7423 22.636C81.3423 22.636 80.8503 22.808 80.2663 23.152V28H78.7063V21.148H79.8703L80.2303 21.748L81.8863 21.064C81.9663 21.056 82.0743 21.052 82.2103 21.052C82.3463 21.052 82.4703 21.092 82.5823 21.172ZM88.7581 24.94H84.7621C84.7621 25.564 84.8581 26.02 85.0501 26.308C85.2501 26.596 85.6461 26.74 86.2381 26.74C86.6221 26.74 86.9061 26.62 87.0901 26.38C87.2741 26.132 87.3661 25.896 87.3661 25.672H88.7701C88.7701 26.528 88.5381 27.156 88.0741 27.556C87.6181 27.956 87.0101 28.156 86.2501 28.156C85.4981 28.156 84.9141 28.048 84.4981 27.832C83.6421 27.392 83.2141 26.224 83.2141 24.328C83.2141 23.2 83.4581 22.376 83.9461 21.856C84.4341 21.328 85.1781 21.064 86.1781 21.064C87.9141 21.064 88.7821 22.028 88.7821 23.956C88.7821 24.164 88.7741 24.492 88.7581 24.94ZM84.7981 23.872H87.3661C87.3661 23.344 87.2661 22.96 87.0661 22.72C86.8661 22.48 86.5581 22.36 86.1421 22.36C85.7341 22.36 85.4061 22.484 85.1581 22.732C84.9181 22.972 84.7981 23.352 84.7981 23.872Z" fill="white"/>
<rect x="4.9375" y="109" width="232.062" height="52.6434" rx="26.3217" fill="#9B55F6"/>
<path d="M8.67781 162.992L11.1255 147.184L26.1558 159.322L8.67781 162.992Z" fill="#9B55F6"/>
<path d="M37.552 127.015H35.26V134.071H33.592V127.015H31.312V125.527H37.552V127.015ZM44.0235 134.071H42.4635V129.775C42.4635 129.039 42.1755 128.671 41.5995 128.671L40.1115 129.259V134.071H38.5515V125.047H40.1115V128.035L42.0915 127.147C42.7955 127.147 43.2915 127.347 43.5795 127.747C43.8755 128.147 44.0235 128.707 44.0235 129.427V134.071ZM46.3555 124.603C46.7315 124.603 46.9755 124.663 47.0875 124.783C47.1995 124.895 47.2555 125.139 47.2555 125.515C47.2555 125.883 47.1955 126.127 47.0755 126.247C46.9635 126.359 46.7195 126.415 46.3435 126.415C45.9755 126.415 45.7315 126.355 45.6115 126.235C45.4995 126.115 45.4435 125.871 45.4435 125.503C45.4435 125.135 45.4995 124.895 45.6115 124.783C45.7315 124.663 45.9795 124.603 46.3555 124.603ZM47.1235 134.071H45.5635V127.471H47.1235V134.071ZM53.5722 132.175V132.355C53.5242 132.955 53.2682 133.407 52.8042 133.711C52.3482 134.015 51.7762 134.167 51.0882 134.167C50.0722 134.167 49.3602 133.983 48.9522 133.615C48.5762 133.279 48.3882 132.783 48.3882 132.127V131.983H49.8042C49.8042 132.351 49.9002 132.603 50.0922 132.739C50.2842 132.875 50.6162 132.943 51.0882 132.943C51.7282 132.943 52.0482 132.711 52.0482 132.247C52.0482 131.863 51.9362 131.607 51.7122 131.479C51.6082 131.415 51.4762 131.367 51.3162 131.335L50.1042 131.131C49.0482 130.963 48.5202 130.303 48.5202 129.151C48.5202 128.511 48.7522 128.015 49.2162 127.663C49.6882 127.303 50.2842 127.123 51.0042 127.123C52.6442 127.123 53.4642 127.831 53.4642 129.247V129.403H52.1082C52.0922 129.027 51.9922 128.771 51.8082 128.635C51.6242 128.499 51.3642 128.431 51.0282 128.431C50.7002 128.431 50.4522 128.499 50.2842 128.635C50.1162 128.763 50.0322 128.907 50.0322 129.067C50.0322 129.523 50.2162 129.783 50.5842 129.847L52.0362 130.111C53.0602 130.303 53.5722 130.991 53.5722 132.175ZM65.853 127.219L63.945 134.071H62.661L61.353 129.907L60.045 134.071H58.761L56.841 127.219H58.497L59.505 131.683L60.549 128.011C60.669 127.483 60.941 127.219 61.365 127.219C61.565 127.219 61.725 127.283 61.845 127.411C61.965 127.539 62.065 127.739 62.145 128.011L63.201 131.683L64.209 127.219H65.853ZM71.9104 131.011H67.9144C67.9144 131.635 68.0104 132.091 68.2024 132.379C68.4024 132.667 68.7984 132.811 69.3904 132.811C69.7744 132.811 70.0584 132.691 70.2424 132.451C70.4264 132.203 70.5184 131.967 70.5184 131.743H71.9224C71.9224 132.599 71.6904 133.227 71.2264 133.627C70.7704 134.027 70.1624 134.227 69.4024 134.227C68.6504 134.227 68.0664 134.119 67.6504 133.903C66.7944 133.463 66.3664 132.295 66.3664 130.399C66.3664 129.271 66.6104 128.447 67.0984 127.927C67.5864 127.399 68.3304 127.135 69.3304 127.135C71.0664 127.135 71.9344 128.099 71.9344 130.027C71.9344 130.235 71.9264 130.563 71.9104 131.011ZM67.9504 129.943H70.5184C70.5184 129.415 70.4184 129.031 70.2184 128.791C70.0184 128.551 69.7104 128.431 69.2944 128.431C68.8864 128.431 68.5584 128.555 68.3104 128.803C68.0704 129.043 67.9504 129.423 67.9504 129.943ZM76.2767 134.083L74.9207 134.071C74.3207 134.071 73.8647 133.895 73.5527 133.543C73.2487 133.191 73.0967 132.771 73.0967 132.283V125.047H74.6567V128.071L76.5167 127.207C77.2287 127.207 77.7527 127.399 78.0887 127.783C78.3847 128.127 78.5687 128.683 78.6407 129.451C78.6647 129.771 78.6767 130.167 78.6767 130.639C78.6767 132.935 77.8767 134.083 76.2767 134.083ZM75.0527 132.739H75.8207C76.6847 132.739 77.1167 132.039 77.1167 130.639C77.1167 129.927 77.0487 129.431 76.9127 129.151C76.7847 128.871 76.5007 128.731 76.0607 128.731L74.6567 129.487V132.187C74.6567 132.507 74.7887 132.691 75.0527 132.739ZM84.7675 132.175V132.355C84.7195 132.955 84.4635 133.407 83.9995 133.711C83.5435 134.015 82.9715 134.167 82.2835 134.167C81.2675 134.167 80.5555 133.983 80.1475 133.615C79.7715 133.279 79.5835 132.783 79.5835 132.127V131.983H80.9995C80.9995 132.351 81.0955 132.603 81.2875 132.739C81.4795 132.875 81.8115 132.943 82.2835 132.943C82.9235 132.943 83.2435 132.711 83.2435 132.247C83.2435 131.863 83.1315 131.607 82.9075 131.479C82.8035 131.415 82.6715 131.367 82.5115 131.335L81.2995 131.131C80.2435 130.963 79.7155 130.303 79.7155 129.151C79.7155 128.511 79.9475 128.015 80.4115 127.663C80.8835 127.303 81.4795 127.123 82.1995 127.123C83.8395 127.123 84.6595 127.831 84.6595 129.247V129.403H83.3035C83.2875 129.027 83.1875 128.771 83.0035 128.635C82.8195 128.499 82.5595 128.431 82.2235 128.431C81.8955 128.431 81.6475 128.499 81.4795 128.635C81.3115 128.763 81.2275 128.907 81.2275 129.067C81.2275 129.523 81.4115 129.783 81.7795 129.847L83.2315 130.111C84.2555 130.303 84.7675 130.991 84.7675 132.175ZM86.8672 124.603C87.2432 124.603 87.4872 124.663 87.5992 124.783C87.7112 124.895 87.7672 125.139 87.7672 125.515C87.7672 125.883 87.7072 126.127 87.5872 126.247C87.4752 126.359 87.2312 126.415 86.8552 126.415C86.4872 126.415 86.2432 126.355 86.1232 126.235C86.0112 126.115 85.9552 125.871 85.9552 125.503C85.9552 125.135 86.0112 124.895 86.1232 124.783C86.2432 124.663 86.4912 124.603 86.8672 124.603ZM87.6352 134.071H86.0752V127.471H87.6352V134.071ZM92.3079 134.071H91.3359C90.7439 134.071 90.2919 133.895 89.9799 133.543C89.6759 133.191 89.5239 132.771 89.5239 132.283V128.683H88.8639V127.495H89.5239V126.151H91.0839V127.495H92.1879V128.683H91.0839V132.187C91.0839 132.563 91.2639 132.751 91.6239 132.751H92.3079V134.071ZM98.7347 131.011H94.7387C94.7387 131.635 94.8347 132.091 95.0267 132.379C95.2267 132.667 95.6227 132.811 96.2147 132.811C96.5987 132.811 96.8827 132.691 97.0667 132.451C97.2507 132.203 97.3427 131.967 97.3427 131.743H98.7467C98.7467 132.599 98.5147 133.227 98.0507 133.627C97.5947 134.027 96.9867 134.227 96.2267 134.227C95.4747 134.227 94.8907 134.119 94.4747 133.903C93.6187 133.463 93.1907 132.295 93.1907 130.399C93.1907 129.271 93.4347 128.447 93.9227 127.927C94.4107 127.399 95.1547 127.135 96.1547 127.135C97.8907 127.135 98.7587 128.099 98.7587 130.027C98.7587 130.235 98.7507 130.563 98.7347 131.011ZM94.7747 129.943H97.3427C97.3427 129.415 97.2427 129.031 97.0427 128.791C96.8427 128.551 96.5347 128.431 96.1187 128.431C95.7107 128.431 95.3827 128.555 95.1347 128.803C94.8947 129.043 94.7747 129.423 94.7747 129.943ZM108.842 131.551C108.842 132.359 108.546 132.995 107.954 133.459C107.362 133.915 106.606 134.143 105.686 134.143C104.958 134.143 104.254 133.943 103.574 133.543C103.238 133.335 102.962 133.043 102.746 132.667C102.53 132.283 102.422 131.847 102.422 131.359L103.934 131.287C103.934 131.719 104.118 132.055 104.486 132.295C104.854 132.535 105.262 132.655 105.71 132.655C106.71 132.655 107.21 132.303 107.21 131.599C107.21 131.023 106.87 130.683 106.19 130.579L104.798 130.435C104.102 130.331 103.55 130.083 103.142 129.691C102.734 129.299 102.53 128.735 102.53 127.999C102.53 127.263 102.822 126.655 103.406 126.175C103.99 125.695 104.726 125.455 105.614 125.455C106.51 125.455 107.23 125.683 107.774 126.139C108.318 126.587 108.59 127.167 108.59 127.879L107.102 127.951C106.966 127.255 106.498 126.907 105.698 126.907C105.21 126.907 104.826 127.011 104.546 127.219C104.274 127.427 104.138 127.675 104.138 127.963C104.138 128.243 104.238 128.467 104.438 128.635C104.638 128.795 104.886 128.895 105.182 128.935L106.55 129.079C108.078 129.287 108.842 130.111 108.842 131.551ZM113.76 130.975V130.351C113.76 129.759 113.672 129.307 113.496 128.995C113.328 128.683 112.972 128.527 112.428 128.527C111.548 128.527 111.108 129.119 111.108 130.303V130.927C111.108 132.199 111.548 132.835 112.428 132.835C112.996 132.835 113.368 132.623 113.544 132.199C113.688 131.863 113.76 131.455 113.76 130.975ZM115.32 130.615C115.32 132.095 115.04 133.087 114.48 133.591C114.008 134.023 113.324 134.239 112.428 134.239C111.284 134.239 110.512 133.903 110.112 133.231C109.736 132.615 109.548 131.743 109.548 130.615C109.548 129.559 109.736 128.731 110.112 128.131C110.528 127.459 111.284 127.123 112.38 127.123C113.484 127.123 114.248 127.419 114.672 128.011C115.104 128.595 115.32 129.463 115.32 130.615ZM120.071 131.563L121.487 131.551C121.479 131.615 121.471 131.731 121.463 131.899C121.455 132.067 121.447 132.183 121.439 132.247C121.439 132.303 121.431 132.395 121.415 132.523C121.399 132.651 121.379 132.747 121.355 132.811C121.339 132.867 121.315 132.943 121.283 133.039C121.139 133.455 120.747 133.783 120.107 134.023C119.699 134.167 119.271 134.239 118.823 134.239C118.383 134.239 117.983 134.167 117.623 134.023C117.263 133.879 116.979 133.695 116.771 133.471C116.299 132.975 116.063 132.047 116.063 130.687C116.063 129.319 116.299 128.387 116.771 127.891C116.979 127.667 117.263 127.483 117.623 127.339C117.983 127.195 118.383 127.123 118.823 127.123C119.687 127.123 120.343 127.339 120.791 127.771C121.239 128.203 121.463 128.803 121.463 129.571H120.047C120.047 129.219 119.959 128.959 119.783 128.791C119.607 128.615 119.279 128.527 118.799 128.527C118.327 128.527 118.011 128.675 117.851 128.971C117.699 129.267 117.623 129.711 117.623 130.303V130.927C117.623 131.879 117.807 132.463 118.175 132.679C118.343 132.783 118.563 132.835 118.835 132.835C119.107 132.835 119.327 132.811 119.495 132.763C119.671 132.707 119.795 132.615 119.867 132.487C119.947 132.359 119.999 132.235 120.023 132.115C120.047 131.987 120.063 131.803 120.071 131.563ZM123.582 124.603C123.958 124.603 124.202 124.663 124.314 124.783C124.426 124.895 124.482 125.139 124.482 125.515C124.482 125.883 124.422 126.127 124.302 126.247C124.19 126.359 123.946 126.415 123.57 126.415C123.202 126.415 122.958 126.355 122.838 126.235C122.726 126.115 122.67 125.871 122.67 125.503C122.67 125.135 122.726 124.895 122.838 124.783C122.958 124.663 123.206 124.603 123.582 124.603ZM124.35 134.071H122.79V127.471H124.35V134.071ZM130.811 134.071H129.767L129.287 133.243L127.619 134.143C126.691 134.143 126.067 133.807 125.747 133.135C125.587 132.807 125.475 132.455 125.411 132.079C125.355 131.695 125.327 131.299 125.327 130.891C125.327 130.475 125.331 130.171 125.339 129.979C125.347 129.779 125.367 129.551 125.399 129.295C125.431 129.031 125.475 128.811 125.531 128.635C125.595 128.459 125.683 128.279 125.795 128.095C125.907 127.903 126.043 127.751 126.203 127.639C126.563 127.391 127.031 127.267 127.607 127.267H129.251L130.811 127.171V134.071ZM129.251 131.887V128.671H128.063C127.623 128.671 127.315 128.839 127.139 129.175C126.971 129.511 126.887 130.015 126.887 130.687C126.887 131.351 126.967 131.819 127.127 132.091C127.295 132.363 127.607 132.499 128.063 132.499L129.251 131.887ZM134.005 134.071L132.445 134.083V125.047H134.005V134.071ZM140.385 132.175V132.355C140.337 132.955 140.081 133.407 139.617 133.711C139.161 134.015 138.589 134.167 137.901 134.167C136.885 134.167 136.173 133.983 135.765 133.615C135.389 133.279 135.201 132.783 135.201 132.127V131.983H136.617C136.617 132.351 136.713 132.603 136.905 132.739C137.097 132.875 137.429 132.943 137.901 132.943C138.541 132.943 138.861 132.711 138.861 132.247C138.861 131.863 138.749 131.607 138.525 131.479C138.421 131.415 138.289 131.367 138.129 131.335L136.917 131.131C135.861 130.963 135.333 130.303 135.333 129.151C135.333 128.511 135.565 128.015 136.029 127.663C136.501 127.303 137.097 127.123 137.817 127.123C139.457 127.123 140.277 127.831 140.277 129.247V129.403H138.921C138.905 129.027 138.805 128.771 138.621 128.635C138.437 128.499 138.177 128.431 137.841 128.431C137.513 128.431 137.265 128.499 137.097 128.635C136.929 128.763 136.845 128.907 136.845 129.067C136.845 129.523 137.029 129.783 137.397 129.847L138.849 130.111C139.873 130.303 140.385 130.991 140.385 132.175ZM145.22 131.371H141.524V129.919H145.22V131.371ZM149.706 128.671H148.434V134.071H146.874V128.671H146.226V127.483H146.874V126.823C146.874 126.335 147.03 125.915 147.342 125.563C147.654 125.211 148.106 125.035 148.698 125.035H149.706V126.355H148.974C148.614 126.355 148.434 126.543 148.434 126.919V127.483H149.706V128.671ZM155.619 134.071H154.575L154.095 133.243L152.427 134.143C151.499 134.143 150.875 133.807 150.555 133.135C150.395 132.807 150.283 132.455 150.219 132.079C150.163 131.695 150.135 131.299 150.135 130.891C150.135 130.475 150.139 130.171 150.147 129.979C150.155 129.779 150.175 129.551 150.207 129.295C150.239 129.031 150.283 128.811 150.339 128.635C150.403 128.459 150.491 128.279 150.603 128.095C150.715 127.903 150.851 127.751 151.011 127.639C151.371 127.391 151.839 127.267 152.415 127.267H154.059L155.619 127.171V134.071ZM154.059 131.887V128.671H152.871C152.431 128.671 152.123 128.839 151.947 129.175C151.779 129.511 151.695 130.015 151.695 130.687C151.695 131.351 151.775 131.819 151.935 132.091C152.103 132.363 152.415 132.499 152.871 132.499L154.059 131.887ZM163.206 134.071H161.334L159.534 131.647L158.85 132.619V134.071H157.29V125.047H158.85V130.747L161.034 127.495H162.798L160.554 130.567L163.206 134.071ZM169.153 131.011H165.157C165.157 131.635 165.253 132.091 165.445 132.379C165.645 132.667 166.041 132.811 166.633 132.811C167.017 132.811 167.301 132.691 167.485 132.451C167.669 132.203 167.761 131.967 167.761 131.743H169.165C169.165 132.599 168.933 133.227 168.469 133.627C168.013 134.027 167.405 134.227 166.645 134.227C165.893 134.227 165.309 134.119 164.893 133.903C164.037 133.463 163.609 132.295 163.609 130.399C163.609 129.271 163.853 128.447 164.341 127.927C164.829 127.399 165.573 127.135 166.573 127.135C168.309 127.135 169.177 128.099 169.177 130.027C169.177 130.235 169.169 130.563 169.153 131.011ZM165.193 129.943H167.761C167.761 129.415 167.661 129.031 167.461 128.791C167.261 128.551 166.953 128.431 166.537 128.431C166.129 128.431 165.801 128.555 165.553 128.803C165.313 129.043 165.193 129.423 165.193 129.943ZM174.227 127.243L173.795 128.779C173.675 128.731 173.539 128.707 173.387 128.707C172.987 128.707 172.495 128.879 171.911 129.223V134.071H170.351V127.219H171.515L171.875 127.819L173.531 127.135C173.611 127.127 173.719 127.123 173.855 127.123C173.991 127.123 174.115 127.163 174.227 127.243ZM178.848 124.603C179.224 124.603 179.468 124.663 179.58 124.783C179.692 124.895 179.748 125.139 179.748 125.515C179.748 125.883 179.688 126.127 179.568 126.247C179.456 126.359 179.212 126.415 178.836 126.415C178.468 126.415 178.224 126.355 178.104 126.235C177.992 126.115 177.936 125.871 177.936 125.503C177.936 125.135 177.992 124.895 178.104 124.783C178.224 124.663 178.472 124.603 178.848 124.603ZM179.616 134.071H178.056V127.471H179.616V134.071ZM186.064 132.175V132.355C186.016 132.955 185.76 133.407 185.296 133.711C184.84 134.015 184.268 134.167 183.58 134.167C182.564 134.167 181.852 133.983 181.444 133.615C181.068 133.279 180.88 132.783 180.88 132.127V131.983H182.296C182.296 132.351 182.392 132.603 182.584 132.739C182.776 132.875 183.108 132.943 183.58 132.943C184.22 132.943 184.54 132.711 184.54 132.247C184.54 131.863 184.428 131.607 184.204 131.479C184.1 131.415 183.968 131.367 183.808 131.335L182.596 131.131C181.54 130.963 181.012 130.303 181.012 129.151C181.012 128.511 181.244 128.015 181.708 127.663C182.18 127.303 182.776 127.123 183.496 127.123C185.136 127.123 185.956 127.831 185.956 129.247V129.403H184.6C184.584 129.027 184.484 128.771 184.3 128.635C184.116 128.499 183.856 128.431 183.52 128.431C183.192 128.431 182.944 128.499 182.776 128.635C182.608 128.763 182.524 128.907 182.524 129.067C182.524 129.523 182.708 129.783 183.076 129.847L184.528 130.111C185.552 130.303 186.064 130.991 186.064 132.175ZM36.592 150.071H35.548L35.068 149.243L33.4 150.143C32.472 150.143 31.848 149.807 31.528 149.135C31.368 148.807 31.256 148.455 31.192 148.079C31.136 147.695 31.108 147.299 31.108 146.891C31.108 146.475 31.112 146.171 31.12 145.979C31.128 145.779 31.148 145.551 31.18 145.295C31.212 145.031 31.256 144.811 31.312 144.635C31.376 144.459 31.464 144.279 31.576 144.095C31.688 143.903 31.824 143.751 31.984 143.639C32.344 143.391 32.812 143.267 33.388 143.267H35.032L36.592 143.171V150.071ZM35.032 147.887V144.671H33.844C33.404 144.671 33.096 144.839 32.92 145.175C32.752 145.511 32.668 146.015 32.668 146.687C32.668 147.351 32.748 147.819 32.908 148.091C33.076 148.363 33.388 148.499 33.844 148.499L35.032 147.887ZM46.4702 143.219L44.5622 150.071H43.2782L41.9702 145.907L40.6622 150.071H39.3782L37.4582 143.219H39.1142L40.1222 147.683L41.1662 144.011C41.2862 143.483 41.5582 143.219 41.9822 143.219C42.1822 143.219 42.3422 143.283 42.4622 143.411C42.5822 143.539 42.6822 143.739 42.7622 144.011L43.8182 147.683L44.8262 143.219H46.4702ZM52.5276 147.011H48.5316C48.5316 147.635 48.6276 148.091 48.8196 148.379C49.0196 148.667 49.4156 148.811 50.0076 148.811C50.3916 148.811 50.6756 148.691 50.8596 148.451C51.0436 148.203 51.1356 147.967 51.1356 147.743H52.5396C52.5396 148.599 52.3076 149.227 51.8436 149.627C51.3876 150.027 50.7796 150.227 50.0196 150.227C49.2676 150.227 48.6836 150.119 48.2676 149.903C47.4116 149.463 46.9836 148.295 46.9836 146.399C46.9836 145.271 47.2276 144.447 47.7156 143.927C48.2036 143.399 48.9476 143.135 49.9476 143.135C51.6836 143.135 52.5516 144.099 52.5516 146.027C52.5516 146.235 52.5436 146.563 52.5276 147.011ZM48.5676 145.943H51.1356C51.1356 145.415 51.0356 145.031 50.8356 144.791C50.6356 144.551 50.3276 144.431 49.9116 144.431C49.5036 144.431 49.1756 144.555 48.9276 144.803C48.6876 145.043 48.5676 145.423 48.5676 145.943ZM58.6698 148.175V148.355C58.6218 148.955 58.3658 149.407 57.9018 149.711C57.4458 150.015 56.8738 150.167 56.1858 150.167C55.1698 150.167 54.4578 149.983 54.0498 149.615C53.6738 149.279 53.4858 148.783 53.4858 148.127V147.983H54.9018C54.9018 148.351 54.9978 148.603 55.1898 148.739C55.3818 148.875 55.7138 148.943 56.1858 148.943C56.8258 148.943 57.1458 148.711 57.1458 148.247C57.1458 147.863 57.0338 147.607 56.8098 147.479C56.7058 147.415 56.5738 147.367 56.4138 147.335L55.2018 147.131C54.1458 146.963 53.6178 146.303 53.6178 145.151C53.6178 144.511 53.8498 144.015 54.3138 143.663C54.7858 143.303 55.3818 143.123 56.1018 143.123C57.7418 143.123 58.5618 143.831 58.5618 145.247V145.403H57.2058C57.1898 145.027 57.0898 144.771 56.9058 144.635C56.7218 144.499 56.4618 144.431 56.1258 144.431C55.7978 144.431 55.5498 144.499 55.3818 144.635C55.2138 144.763 55.1298 144.907 55.1298 145.067C55.1298 145.523 55.3138 145.783 55.6818 145.847L57.1338 146.111C58.1578 146.303 58.6698 146.991 58.6698 148.175ZM63.6856 146.975V146.351C63.6856 145.759 63.5976 145.307 63.4216 144.995C63.2536 144.683 62.8976 144.527 62.3536 144.527C61.4736 144.527 61.0336 145.119 61.0336 146.303V146.927C61.0336 148.199 61.4736 148.835 62.3536 148.835C62.9216 148.835 63.2936 148.623 63.4696 148.199C63.6136 147.863 63.6856 147.455 63.6856 146.975ZM65.2456 146.615C65.2456 148.095 64.9656 149.087 64.4056 149.591C63.9336 150.023 63.2496 150.239 62.3536 150.239C61.2096 150.239 60.4376 149.903 60.0376 149.231C59.6616 148.615 59.4736 147.743 59.4736 146.615C59.4736 145.559 59.6616 144.731 60.0376 144.131C60.4536 143.459 61.2096 143.123 62.3056 143.123C63.4096 143.123 64.1736 143.419 64.5976 144.011C65.0296 144.595 65.2456 145.463 65.2456 146.615ZM75.3252 150.071H73.7652V145.811C73.7652 145.387 73.7132 145.091 73.6092 144.923C73.5132 144.755 73.3412 144.671 73.0932 144.671L71.6892 145.259V150.071H70.1292V145.811C70.1292 145.051 69.8652 144.671 69.3372 144.671L68.0532 145.259V150.071H66.4932V143.219H67.6572L68.0172 144.035L69.8172 143.147C70.4412 143.147 70.9132 143.451 71.2332 144.059L73.4652 143.147C74.0892 143.147 74.5532 143.359 74.8572 143.783C75.1692 144.199 75.3252 144.763 75.3252 145.475V150.071ZM82.1409 147.011H78.1449C78.1449 147.635 78.2409 148.091 78.4329 148.379C78.6329 148.667 79.0289 148.811 79.6209 148.811C80.0049 148.811 80.2889 148.691 80.4729 148.451C80.6569 148.203 80.7489 147.967 80.7489 147.743H82.1529C82.1529 148.599 81.9209 149.227 81.4569 149.627C81.0009 150.027 80.3929 150.227 79.6329 150.227C78.8809 150.227 78.2969 150.119 77.8809 149.903C77.0249 149.463 76.5969 148.295 76.5969 146.399C76.5969 145.271 76.8409 144.447 77.3289 143.927C77.8169 143.399 78.5609 143.135 79.5609 143.135C81.2969 143.135 82.1649 144.099 82.1649 146.027C82.1649 146.235 82.1569 146.563 82.1409 147.011ZM78.1809 145.943H80.7489C80.7489 145.415 80.6489 145.031 80.4489 144.791C80.2489 144.551 79.9409 144.431 79.5249 144.431C79.1169 144.431 78.7889 144.555 78.5409 144.803C78.3009 145.043 78.1809 145.423 78.1809 145.943Z" fill="white"/>
<rect x="154" y="48" width="176.936" height="48.1967" rx="24.0983" fill="#9B55F6"/>
<path d="M328.88 97.178L313.51 94.6643L325.843 82.8482L328.88 97.178Z" fill="#9B55F6"/>
<path d="M181.344 76H179.676V72.544H176.544V76H174.876V67.456H176.544V71.068H179.676V67.456H181.344V76ZM188.227 72.94H184.231C184.231 73.564 184.327 74.02 184.519 74.308C184.719 74.596 185.115 74.74 185.707 74.74C186.091 74.74 186.375 74.62 186.559 74.38C186.743 74.132 186.835 73.896 186.835 73.672H188.239C188.239 74.528 188.007 75.156 187.543 75.556C187.087 75.956 186.479 76.156 185.719 76.156C184.967 76.156 184.383 76.048 183.967 75.832C183.111 75.392 182.683 74.224 182.683 72.328C182.683 71.2 182.927 70.376 183.415 69.856C183.903 69.328 184.647 69.064 185.647 69.064C187.383 69.064 188.251 70.028 188.251 71.956C188.251 72.164 188.243 72.492 188.227 72.94ZM184.267 71.872H186.835C186.835 71.344 186.735 70.96 186.535 70.72C186.335 70.48 186.027 70.36 185.611 70.36C185.203 70.36 184.875 70.484 184.627 70.732C184.387 70.972 184.267 71.352 184.267 71.872ZM191.165 76L189.605 76.012V66.976H191.165V76ZM194.341 76L192.781 76.012V66.976H194.341V76ZM199.725 72.904V72.28C199.725 71.688 199.637 71.236 199.461 70.924C199.293 70.612 198.937 70.456 198.393 70.456C197.513 70.456 197.073 71.048 197.073 72.232V72.856C197.073 74.128 197.513 74.764 198.393 74.764C198.961 74.764 199.333 74.552 199.509 74.128C199.653 73.792 199.725 73.384 199.725 72.904ZM201.285 72.544C201.285 74.024 201.005 75.016 200.445 75.52C199.973 75.952 199.289 76.168 198.393 76.168C197.249 76.168 196.477 75.832 196.077 75.16C195.701 74.544 195.513 73.672 195.513 72.544C195.513 71.488 195.701 70.66 196.077 70.06C196.493 69.388 197.249 69.052 198.345 69.052C199.449 69.052 200.213 69.348 200.637 69.94C201.069 70.524 201.285 71.392 201.285 72.544ZM204.188 74.296V75.556C204.188 76.124 204.004 76.628 203.636 77.068C203.276 77.516 202.888 77.82 202.472 77.98V74.296H204.188ZM216.857 69.148L214.949 76H213.665L212.357 71.836L211.049 76H209.765L207.845 69.148H209.501L210.509 73.612L211.553 69.94C211.673 69.412 211.945 69.148 212.369 69.148C212.569 69.148 212.729 69.212 212.849 69.34C212.969 69.468 213.069 69.668 213.149 69.94L214.205 73.612L215.213 69.148H216.857ZM223.07 76H221.51V71.704C221.51 70.968 221.222 70.6 220.646 70.6L219.158 71.188V76H217.598V66.976H219.158V69.964L221.138 69.076C221.842 69.076 222.338 69.276 222.626 69.676C222.922 70.076 223.07 70.636 223.07 71.356V76ZM229.326 76H228.282L227.802 75.172L226.134 76.072C225.206 76.072 224.582 75.736 224.262 75.064C224.102 74.736 223.99 74.384 223.926 74.008C223.87 73.624 223.842 73.228 223.842 72.82C223.842 72.404 223.846 72.1 223.854 71.908C223.862 71.708 223.882 71.48 223.914 71.224C223.946 70.96 223.99 70.74 224.046 70.564C224.11 70.388 224.198 70.208 224.31 70.024C224.422 69.832 224.558 69.68 224.718 69.568C225.078 69.32 225.546 69.196 226.122 69.196H227.766L229.326 69.1V76ZM227.766 73.816V70.6H226.578C226.138 70.6 225.83 70.768 225.654 71.104C225.486 71.44 225.402 71.944 225.402 72.616C225.402 73.28 225.482 73.748 225.642 74.02C225.81 74.292 226.122 74.428 226.578 74.428L227.766 73.816ZM233.949 76H232.977C232.385 76 231.933 75.824 231.621 75.472C231.317 75.12 231.165 74.7 231.165 74.212V70.612H230.505V69.424H231.165V68.08H232.725V69.424H233.829V70.612H232.725V74.116C232.725 74.492 232.905 74.68 233.265 74.68H233.949V76ZM236.871 68.284V68.908C236.871 69.188 236.791 69.456 236.631 69.712C236.479 69.96 236.315 70.116 236.139 70.18V69.412C236.139 69.276 236.115 69.18 236.067 69.124C236.019 69.06 235.899 69.028 235.707 69.028C235.515 69.028 235.375 68.988 235.287 68.908C235.207 68.82 235.167 68.608 235.167 68.272C235.167 67.928 235.219 67.704 235.323 67.6C235.435 67.488 235.667 67.432 236.019 67.432C236.371 67.432 236.599 67.488 236.703 67.6C236.815 67.704 236.871 67.932 236.871 68.284ZM243.225 74.104V74.284C243.177 74.884 242.921 75.336 242.457 75.64C242.001 75.944 241.429 76.096 240.741 76.096C239.725 76.096 239.013 75.912 238.605 75.544C238.229 75.208 238.041 74.712 238.041 74.056V73.912H239.457C239.457 74.28 239.553 74.532 239.745 74.668C239.937 74.804 240.269 74.872 240.741 74.872C241.381 74.872 241.701 74.64 241.701 74.176C241.701 73.792 241.589 73.536 241.365 73.408C241.261 73.344 241.129 73.296 240.969 73.264L239.757 73.06C238.701 72.892 238.173 72.232 238.173 71.08C238.173 70.44 238.405 69.944 238.869 69.592C239.341 69.232 239.937 69.052 240.657 69.052C242.297 69.052 243.117 69.76 243.117 71.176V71.332H241.761C241.745 70.956 241.645 70.7 241.461 70.564C241.277 70.428 241.017 70.36 240.681 70.36C240.353 70.36 240.105 70.428 239.937 70.564C239.769 70.692 239.685 70.836 239.685 70.996C239.685 71.452 239.869 71.712 240.237 71.776L241.689 72.04C242.713 72.232 243.225 72.92 243.225 74.104ZM250.681 69.196L252.241 69.1V75.688C252.241 76.448 252.025 77.028 251.593 77.428C251.169 77.836 250.537 78.04 249.697 78.04C249.049 78.04 248.481 77.912 247.993 77.656C247.737 77.528 247.533 77.336 247.381 77.08C247.229 76.824 247.153 76.52 247.153 76.168L248.605 76.096C248.605 76.32 248.685 76.48 248.845 76.576C249.005 76.672 249.277 76.72 249.661 76.72C250.053 76.72 250.317 76.624 250.453 76.432C250.597 76.24 250.669 75.964 250.669 75.604L250.729 74.572L249.049 75.472C248.129 75.472 247.509 75.16 247.189 74.536C246.901 73.984 246.757 73.308 246.757 72.508C246.757 71.556 246.829 70.884 246.973 70.492C247.125 70.06 247.341 69.748 247.621 69.556C247.981 69.316 248.453 69.196 249.037 69.196H250.681ZM250.681 73.216V70.6H249.493C249.045 70.6 248.737 70.752 248.569 71.056C248.401 71.36 248.317 71.784 248.317 72.328C248.317 72.872 248.401 73.26 248.569 73.492C248.745 73.716 249.053 73.828 249.493 73.828L250.681 73.216ZM257.686 72.904V72.28C257.686 71.688 257.598 71.236 257.422 70.924C257.254 70.612 256.898 70.456 256.354 70.456C255.474 70.456 255.034 71.048 255.034 72.232V72.856C255.034 74.128 255.474 74.764 256.354 74.764C256.922 74.764 257.294 74.552 257.47 74.128C257.614 73.792 257.686 73.384 257.686 72.904ZM259.246 72.544C259.246 74.024 258.966 75.016 258.406 75.52C257.934 75.952 257.25 76.168 256.354 76.168C255.21 76.168 254.438 75.832 254.038 75.16C253.662 74.544 253.474 73.672 253.474 72.544C253.474 71.488 253.662 70.66 254.038 70.06C254.454 69.388 255.21 69.052 256.306 69.052C257.41 69.052 258.174 69.348 258.598 69.94C259.03 70.524 259.246 71.392 259.246 72.544ZM261.285 66.532C261.661 66.532 261.905 66.592 262.017 66.712C262.129 66.824 262.185 67.068 262.185 67.444C262.185 67.812 262.125 68.056 262.005 68.176C261.893 68.288 261.649 68.344 261.273 68.344C260.905 68.344 260.661 68.284 260.541 68.164C260.429 68.044 260.373 67.8 260.373 67.432C260.373 67.064 260.429 66.824 260.541 66.712C260.661 66.592 260.909 66.532 261.285 66.532ZM262.053 76H260.493V69.4H262.053V76ZM269.114 76H267.554V71.62C267.554 71.228 267.474 70.96 267.314 70.816C267.154 70.672 266.93 70.6 266.642 70.6L265.238 71.188V76H263.678V69.148H264.842L265.202 69.964L267.122 69.076C267.658 69.076 268.122 69.276 268.514 69.676C268.914 70.068 269.114 70.644 269.114 71.404V76ZM274.037 69.196L275.597 69.1V75.688C275.597 76.448 275.381 77.028 274.949 77.428C274.525 77.836 273.893 78.04 273.053 78.04C272.405 78.04 271.837 77.912 271.349 77.656C271.093 77.528 270.889 77.336 270.737 77.08C270.585 76.824 270.509 76.52 270.509 76.168L271.961 76.096C271.961 76.32 272.041 76.48 272.201 76.576C272.361 76.672 272.633 76.72 273.017 76.72C273.409 76.72 273.673 76.624 273.809 76.432C273.953 76.24 274.025 75.964 274.025 75.604L274.085 74.572L272.405 75.472C271.485 75.472 270.865 75.16 270.545 74.536C270.257 73.984 270.113 73.308 270.113 72.508C270.113 71.556 270.185 70.884 270.329 70.492C270.481 70.06 270.697 69.748 270.977 69.556C271.337 69.316 271.809 69.196 272.393 69.196H274.037ZM274.037 73.216V70.6H272.849C272.401 70.6 272.093 70.752 271.925 71.056C271.757 71.36 271.673 71.784 271.673 72.328C271.673 72.872 271.757 73.26 271.925 73.492C272.101 73.716 272.409 73.828 272.849 73.828L274.037 73.216ZM283.83 72.904V72.28C283.83 71.688 283.742 71.236 283.566 70.924C283.398 70.612 283.042 70.456 282.498 70.456C281.618 70.456 281.178 71.048 281.178 72.232V72.856C281.178 74.128 281.618 74.764 282.498 74.764C283.066 74.764 283.438 74.552 283.614 74.128C283.758 73.792 283.83 73.384 283.83 72.904ZM285.39 72.544C285.39 74.024 285.11 75.016 284.55 75.52C284.078 75.952 283.394 76.168 282.498 76.168C281.354 76.168 280.582 75.832 280.182 75.16C279.806 74.544 279.618 73.672 279.618 72.544C279.618 71.488 279.806 70.66 280.182 70.06C280.598 69.388 281.354 69.052 282.45 69.052C283.554 69.052 284.318 69.348 284.742 69.94C285.174 70.524 285.39 71.392 285.39 72.544ZM291.954 76H290.394V71.62C290.394 71.228 290.314 70.96 290.154 70.816C289.994 70.672 289.77 70.6 289.482 70.6L288.078 71.188V76H286.518V69.148H287.682L288.042 69.964L289.962 69.076C290.498 69.076 290.962 69.276 291.354 69.676C291.754 70.068 291.954 70.644 291.954 71.404V76Z" fill="white"/>
</svg>
