<svg width="343" height="229" viewBox="0 0 343 229" fill="none" xmlns="http://www.w3.org/2000/svg">
<path d="M53.1742 80.332V80.98C53.1742 82.412 52.9022 83.452 52.3582 84.1C51.8222 84.748 50.9582 85.072 49.7662 85.072C48.5742 85.072 47.7102 84.748 47.1742 84.1C46.6462 83.452 46.3822 82.4 46.3822 80.944V80.32C46.3822 78.992 46.6502 78.004 47.1862 77.356C47.7302 76.708 48.5862 76.384 49.7542 76.384C50.9302 76.384 51.7942 76.712 52.3462 77.368C52.8982 78.024 53.1742 79.012 53.1742 80.332ZM51.5062 80.944V80.5C51.5062 79.732 51.4102 79.12 51.2182 78.664C50.9942 78.136 50.5142 77.872 49.7782 77.872C49.0342 77.872 48.5502 78.136 48.3262 78.664C48.1422 79.096 48.0502 79.708 48.0502 80.5V80.944C48.0502 81.976 48.1942 82.672 48.4822 83.032C48.5942 83.184 48.7582 83.316 48.9742 83.428C49.1982 83.532 49.4622 83.584 49.7662 83.584C50.0782 83.584 50.3422 83.532 50.5582 83.428C50.7742 83.324 50.9422 83.196 51.0622 83.044C51.1822 82.892 51.2742 82.692 51.3382 82.444C51.4502 82.052 51.5062 81.552 51.5062 80.944ZM57.4409 85H56.4689C55.8769 85 55.4249 84.824 55.1129 84.472C54.8089 84.12 54.6569 83.7 54.6569 83.212V79.612H53.9969V78.424H54.6569V77.08H56.2169V78.424H57.3209V79.612H56.2169V83.116C56.2169 83.492 56.3969 83.68 56.7569 83.68H57.4409V85ZM64.0237 85H62.4637V80.704C62.4637 79.968 62.1757 79.6 61.5997 79.6L60.1117 80.188V85H58.5517V75.976H60.1117V78.964L62.0917 78.076C62.7957 78.076 63.2917 78.276 63.5797 78.676C63.8757 79.076 64.0237 79.636 64.0237 80.356V85ZM74.3957 85H72.8357V80.74C72.8357 80.316 72.7837 80.02 72.6797 79.852C72.5837 79.684 72.4117 79.6 72.1637 79.6L70.7597 80.188V85H69.1997V80.74C69.1997 79.98 68.9357 79.6 68.4077 79.6L67.1237 80.188V85H65.5637V78.148H66.7277L67.0877 78.964L68.8877 78.076C69.5117 78.076 69.9837 78.38 70.3037 78.988L72.5357 78.076C73.1597 78.076 73.6237 78.288 73.9277 78.712C74.2397 79.128 74.3957 79.692 74.3957 80.404V85ZM80.7914 85H79.7474L79.2674 84.172L77.5994 85.072C76.6714 85.072 76.0474 84.736 75.7274 84.064C75.5674 83.736 75.4554 83.384 75.3914 83.008C75.3354 82.624 75.3074 82.228 75.3074 81.82C75.3074 81.404 75.3114 81.1 75.3194 80.908C75.3274 80.708 75.3474 80.48 75.3794 80.224C75.4114 79.96 75.4554 79.74 75.5114 79.564C75.5754 79.388 75.6634 79.208 75.7754 79.024C75.8874 78.832 76.0234 78.68 76.1834 78.568C76.5434 78.32 77.0114 78.196 77.5874 78.196H79.2314L80.7914 78.1V85ZM79.2314 82.816V79.6H78.0434C77.6034 79.6 77.2954 79.768 77.1194 80.104C76.9514 80.44 76.8674 80.944 76.8674 81.616C76.8674 82.28 76.9474 82.748 77.1074 83.02C77.2754 83.292 77.5874 83.428 78.0434 83.428L79.2314 82.816ZM87.8016 85H86.2416V80.62C86.2416 80.228 86.1616 79.96 86.0016 79.816C85.8416 79.672 85.6176 79.6 85.3296 79.6L83.9256 80.188V85H82.3656V78.148H83.5296L83.8896 78.964L85.8096 78.076C86.3456 78.076 86.8096 78.276 87.2016 78.676C87.6016 79.068 87.8016 79.644 87.8016 80.404V85ZM91.0085 83.392C91.1365 83.512 91.2005 83.772 91.2005 84.172C91.2005 84.572 91.1365 84.836 91.0085 84.964C90.8885 85.092 90.6285 85.156 90.2285 85.156C89.8285 85.156 89.5645 85.092 89.4365 84.964C89.3085 84.836 89.2445 84.572 89.2445 84.172C89.2445 83.772 89.3085 83.512 89.4365 83.392C89.5645 83.264 89.8285 83.2 90.2285 83.2C90.6285 83.2 90.8885 83.264 91.0085 83.392ZM93.6955 75.532C94.0715 75.532 94.3155 75.592 94.4275 75.712C94.5395 75.824 94.5955 76.068 94.5955 76.444C94.5955 76.812 94.5355 77.056 94.4155 77.176C94.3035 77.288 94.0595 77.344 93.6835 77.344C93.3155 77.344 93.0715 77.284 92.9515 77.164C92.8395 77.044 92.7835 76.8 92.7835 76.432C92.7835 76.064 92.8395 75.824 92.9515 75.712C93.0715 75.592 93.3195 75.532 93.6955 75.532ZM94.4635 85H92.9035V78.4H94.4635V85ZM100.912 83.104V83.284C100.864 83.884 100.608 84.336 100.144 84.64C99.6882 84.944 99.1162 85.096 98.4282 85.096C97.4122 85.096 96.7002 84.912 96.2922 84.544C95.9162 84.208 95.7282 83.712 95.7282 83.056V82.912H97.1442C97.1442 83.28 97.2402 83.532 97.4322 83.668C97.6242 83.804 97.9562 83.872 98.4282 83.872C99.0682 83.872 99.3882 83.64 99.3882 83.176C99.3882 82.792 99.2762 82.536 99.0522 82.408C98.9482 82.344 98.8162 82.296 98.6562 82.264L97.4442 82.06C96.3882 81.892 95.8602 81.232 95.8602 80.08C95.8602 79.44 96.0922 78.944 96.5562 78.592C97.0282 78.232 97.6242 78.052 98.3442 78.052C99.9842 78.052 100.804 78.76 100.804 80.176V80.332H99.4482C99.4322 79.956 99.3322 79.7 99.1482 79.564C98.9642 79.428 98.7042 79.36 98.3682 79.36C98.0402 79.36 97.7922 79.428 97.6242 79.564C97.4562 79.692 97.3722 79.836 97.3722 79.996C97.3722 80.452 97.5562 80.712 97.9242 80.776L99.3762 81.04C100.4 81.232 100.912 81.92 100.912 83.104ZM103.864 83.392C103.992 83.512 104.056 83.772 104.056 84.172C104.056 84.572 103.992 84.836 103.864 84.964C103.744 85.092 103.484 85.156 103.084 85.156C102.684 85.156 102.42 85.092 102.292 84.964C102.164 84.836 102.1 84.572 102.1 84.172C102.1 83.772 102.164 83.512 102.292 83.392C102.42 83.264 102.684 83.2 103.084 83.2C103.484 83.2 103.744 83.264 103.864 83.392ZM114.591 85H113.031V80.74C113.031 80.316 112.979 80.02 112.875 79.852C112.779 79.684 112.607 79.6 112.359 79.6L110.955 80.188V85H109.395V80.74C109.395 79.98 109.131 79.6 108.603 79.6L107.319 80.188V85H105.759V78.148H106.923L107.283 78.964L109.083 78.076C109.707 78.076 110.179 78.38 110.499 78.988L112.731 78.076C113.355 78.076 113.819 78.288 114.123 78.712C114.435 79.128 114.591 79.692 114.591 80.404V85ZM121.407 81.94H117.411C117.411 82.564 117.507 83.02 117.699 83.308C117.899 83.596 118.295 83.74 118.887 83.74C119.271 83.74 119.555 83.62 119.739 83.38C119.923 83.132 120.015 82.896 120.015 82.672H121.419C121.419 83.528 121.187 84.156 120.723 84.556C120.267 84.956 119.659 85.156 118.899 85.156C118.147 85.156 117.563 85.048 117.147 84.832C116.291 84.392 115.863 83.224 115.863 81.328C115.863 80.2 116.107 79.376 116.595 78.856C117.083 78.328 117.827 78.064 118.827 78.064C120.563 78.064 121.431 79.028 121.431 80.956C121.431 81.164 121.423 81.492 121.407 81.94ZM117.447 80.872H120.015C120.015 80.344 119.915 79.96 119.715 79.72C119.515 79.48 119.207 79.36 118.791 79.36C118.383 79.36 118.055 79.484 117.807 79.732C117.567 79.972 117.447 80.352 117.447 80.872Z" fill="black"/>
<path d="M53.1742 122.332V122.98C53.1742 124.412 52.9022 125.452 52.3582 126.1C51.8222 126.748 50.9582 127.072 49.7662 127.072C48.5742 127.072 47.7102 126.748 47.1742 126.1C46.6462 125.452 46.3822 124.4 46.3822 122.944V122.32C46.3822 120.992 46.6502 120.004 47.1862 119.356C47.7302 118.708 48.5862 118.384 49.7542 118.384C50.9302 118.384 51.7942 118.712 52.3462 119.368C52.8982 120.024 53.1742 121.012 53.1742 122.332ZM51.5062 122.944V122.5C51.5062 121.732 51.4102 121.12 51.2182 120.664C50.9942 120.136 50.5142 119.872 49.7782 119.872C49.0342 119.872 48.5502 120.136 48.3262 120.664C48.1422 121.096 48.0502 121.708 48.0502 122.5V122.944C48.0502 123.976 48.1942 124.672 48.4822 125.032C48.5942 125.184 48.7582 125.316 48.9742 125.428C49.1982 125.532 49.4622 125.584 49.7662 125.584C50.0782 125.584 50.3422 125.532 50.5582 125.428C50.7742 125.324 50.9422 125.196 51.0622 125.044C51.1822 124.892 51.2742 124.692 51.3382 124.444C51.4502 124.052 51.5062 123.552 51.5062 122.944ZM57.4409 127H56.4689C55.8769 127 55.4249 126.824 55.1129 126.472C54.8089 126.12 54.6569 125.7 54.6569 125.212V121.612H53.9969V120.424H54.6569V119.08H56.2169V120.424H57.3209V121.612H56.2169V125.116C56.2169 125.492 56.3969 125.68 56.7569 125.68H57.4409V127ZM64.0237 127H62.4637V122.704C62.4637 121.968 62.1757 121.6 61.5997 121.6L60.1117 122.188V127H58.5517V117.976H60.1117V120.964L62.0917 120.076C62.7957 120.076 63.2917 120.276 63.5797 120.676C63.8757 121.076 64.0237 121.636 64.0237 122.356V127ZM74.3957 127H72.8357V122.74C72.8357 122.316 72.7837 122.02 72.6797 121.852C72.5837 121.684 72.4117 121.6 72.1637 121.6L70.7597 122.188V127H69.1997V122.74C69.1997 121.98 68.9357 121.6 68.4077 121.6L67.1237 122.188V127H65.5637V120.148H66.7277L67.0877 120.964L68.8877 120.076C69.5117 120.076 69.9837 120.38 70.3037 120.988L72.5357 120.076C73.1597 120.076 73.6237 120.288 73.9277 120.712C74.2397 121.128 74.3957 121.692 74.3957 122.404V127ZM80.7914 127H79.7474L79.2674 126.172L77.5994 127.072C76.6714 127.072 76.0474 126.736 75.7274 126.064C75.5674 125.736 75.4554 125.384 75.3914 125.008C75.3354 124.624 75.3074 124.228 75.3074 123.82C75.3074 123.404 75.3114 123.1 75.3194 122.908C75.3274 122.708 75.3474 122.48 75.3794 122.224C75.4114 121.96 75.4554 121.74 75.5114 121.564C75.5754 121.388 75.6634 121.208 75.7754 121.024C75.8874 120.832 76.0234 120.68 76.1834 120.568C76.5434 120.32 77.0114 120.196 77.5874 120.196H79.2314L80.7914 120.1V127ZM79.2314 124.816V121.6H78.0434C77.6034 121.6 77.2954 121.768 77.1194 122.104C76.9514 122.44 76.8674 122.944 76.8674 123.616C76.8674 124.28 76.9474 124.748 77.1074 125.02C77.2754 125.292 77.5874 125.428 78.0434 125.428L79.2314 124.816ZM87.8016 127H86.2416V122.62C86.2416 122.228 86.1616 121.96 86.0016 121.816C85.8416 121.672 85.6176 121.6 85.3296 121.6L83.9256 122.188V127H82.3656V120.148H83.5296L83.8896 120.964L85.8096 120.076C86.3456 120.076 86.8096 120.276 87.2016 120.676C87.6016 121.068 87.8016 121.644 87.8016 122.404V127ZM91.0085 125.392C91.1365 125.512 91.2005 125.772 91.2005 126.172C91.2005 126.572 91.1365 126.836 91.0085 126.964C90.8885 127.092 90.6285 127.156 90.2285 127.156C89.8285 127.156 89.5645 127.092 89.4365 126.964C89.3085 126.836 89.2445 126.572 89.2445 126.172C89.2445 125.772 89.3085 125.512 89.4365 125.392C89.5645 125.264 89.8285 125.2 90.2285 125.2C90.6285 125.2 90.8885 125.264 91.0085 125.392ZM93.6955 117.532C94.0715 117.532 94.3155 117.592 94.4275 117.712C94.5395 117.824 94.5955 118.068 94.5955 118.444C94.5955 118.812 94.5355 119.056 94.4155 119.176C94.3035 119.288 94.0595 119.344 93.6835 119.344C93.3155 119.344 93.0715 119.284 92.9515 119.164C92.8395 119.044 92.7835 118.8 92.7835 118.432C92.7835 118.064 92.8395 117.824 92.9515 117.712C93.0715 117.592 93.3195 117.532 93.6955 117.532ZM94.4635 127H92.9035V120.4H94.4635V127ZM100.912 125.104V125.284C100.864 125.884 100.608 126.336 100.144 126.64C99.6882 126.944 99.1162 127.096 98.4282 127.096C97.4122 127.096 96.7002 126.912 96.2922 126.544C95.9162 126.208 95.7282 125.712 95.7282 125.056V124.912H97.1442C97.1442 125.28 97.2402 125.532 97.4322 125.668C97.6242 125.804 97.9562 125.872 98.4282 125.872C99.0682 125.872 99.3882 125.64 99.3882 125.176C99.3882 124.792 99.2762 124.536 99.0522 124.408C98.9482 124.344 98.8162 124.296 98.6562 124.264L97.4442 124.06C96.3882 123.892 95.8602 123.232 95.8602 122.08C95.8602 121.44 96.0922 120.944 96.5562 120.592C97.0282 120.232 97.6242 120.052 98.3442 120.052C99.9842 120.052 100.804 120.76 100.804 122.176V122.332H99.4482C99.4322 121.956 99.3322 121.7 99.1482 121.564C98.9642 121.428 98.7042 121.36 98.3682 121.36C98.0402 121.36 97.7922 121.428 97.6242 121.564C97.4562 121.692 97.3722 121.836 97.3722 121.996C97.3722 122.452 97.5562 122.712 97.9242 122.776L99.3762 123.04C100.4 123.232 100.912 123.92 100.912 125.104ZM103.864 125.392C103.992 125.512 104.056 125.772 104.056 126.172C104.056 126.572 103.992 126.836 103.864 126.964C103.744 127.092 103.484 127.156 103.084 127.156C102.684 127.156 102.42 127.092 102.292 126.964C102.164 126.836 102.1 126.572 102.1 126.172C102.1 125.772 102.164 125.512 102.292 125.392C102.42 125.264 102.684 125.2 103.084 125.2C103.484 125.2 103.744 125.264 103.864 125.392ZM114.591 127H113.031V122.74C113.031 122.316 112.979 122.02 112.875 121.852C112.779 121.684 112.607 121.6 112.359 121.6L110.955 122.188V127H109.395V122.74C109.395 121.98 109.131 121.6 108.603 121.6L107.319 122.188V127H105.759V120.148H106.923L107.283 120.964L109.083 120.076C109.707 120.076 110.179 120.38 110.499 120.988L112.731 120.076C113.355 120.076 113.819 120.288 114.123 120.712C114.435 121.128 114.591 121.692 114.591 122.404V127ZM121.407 123.94H117.411C117.411 124.564 117.507 125.02 117.699 125.308C117.899 125.596 118.295 125.74 118.887 125.74C119.271 125.74 119.555 125.62 119.739 125.38C119.923 125.132 120.015 124.896 120.015 124.672H121.419C121.419 125.528 121.187 126.156 120.723 126.556C120.267 126.956 119.659 127.156 118.899 127.156C118.147 127.156 117.563 127.048 117.147 126.832C116.291 126.392 115.863 125.224 115.863 123.328C115.863 122.2 116.107 121.376 116.595 120.856C117.083 120.328 117.827 120.064 118.827 120.064C120.563 120.064 121.431 121.028 121.431 122.956C121.431 123.164 121.423 123.492 121.407 123.94ZM117.447 122.872H120.015C120.015 122.344 119.915 121.96 119.715 121.72C119.515 121.48 119.207 121.36 118.791 121.36C118.383 121.36 118.055 121.484 117.807 121.732C117.567 121.972 117.447 122.352 117.447 122.872Z" fill="black"/>
<path d="M53.1742 165.332V165.98C53.1742 167.412 52.9022 168.452 52.3582 169.1C51.8222 169.748 50.9582 170.072 49.7662 170.072C48.5742 170.072 47.7102 169.748 47.1742 169.1C46.6462 168.452 46.3822 167.4 46.3822 165.944V165.32C46.3822 163.992 46.6502 163.004 47.1862 162.356C47.7302 161.708 48.5862 161.384 49.7542 161.384C50.9302 161.384 51.7942 161.712 52.3462 162.368C52.8982 163.024 53.1742 164.012 53.1742 165.332ZM51.5062 165.944V165.5C51.5062 164.732 51.4102 164.12 51.2182 163.664C50.9942 163.136 50.5142 162.872 49.7782 162.872C49.0342 162.872 48.5502 163.136 48.3262 163.664C48.1422 164.096 48.0502 164.708 48.0502 165.5V165.944C48.0502 166.976 48.1942 167.672 48.4822 168.032C48.5942 168.184 48.7582 168.316 48.9742 168.428C49.1982 168.532 49.4622 168.584 49.7662 168.584C50.0782 168.584 50.3422 168.532 50.5582 168.428C50.7742 168.324 50.9422 168.196 51.0622 168.044C51.1822 167.892 51.2742 167.692 51.3382 167.444C51.4502 167.052 51.5062 166.552 51.5062 165.944ZM57.4409 170H56.4689C55.8769 170 55.4249 169.824 55.1129 169.472C54.8089 169.12 54.6569 168.7 54.6569 168.212V164.612H53.9969V163.424H54.6569V162.08H56.2169V163.424H57.3209V164.612H56.2169V168.116C56.2169 168.492 56.3969 168.68 56.7569 168.68H57.4409V170ZM64.0237 170H62.4637V165.704C62.4637 164.968 62.1757 164.6 61.5997 164.6L60.1117 165.188V170H58.5517V160.976H60.1117V163.964L62.0917 163.076C62.7957 163.076 63.2917 163.276 63.5797 163.676C63.8757 164.076 64.0237 164.636 64.0237 165.356V170ZM74.3957 170H72.8357V165.74C72.8357 165.316 72.7837 165.02 72.6797 164.852C72.5837 164.684 72.4117 164.6 72.1637 164.6L70.7597 165.188V170H69.1997V165.74C69.1997 164.98 68.9357 164.6 68.4077 164.6L67.1237 165.188V170H65.5637V163.148H66.7277L67.0877 163.964L68.8877 163.076C69.5117 163.076 69.9837 163.38 70.3037 163.988L72.5357 163.076C73.1597 163.076 73.6237 163.288 73.9277 163.712C74.2397 164.128 74.3957 164.692 74.3957 165.404V170ZM80.7914 170H79.7474L79.2674 169.172L77.5994 170.072C76.6714 170.072 76.0474 169.736 75.7274 169.064C75.5674 168.736 75.4554 168.384 75.3914 168.008C75.3354 167.624 75.3074 167.228 75.3074 166.82C75.3074 166.404 75.3114 166.1 75.3194 165.908C75.3274 165.708 75.3474 165.48 75.3794 165.224C75.4114 164.96 75.4554 164.74 75.5114 164.564C75.5754 164.388 75.6634 164.208 75.7754 164.024C75.8874 163.832 76.0234 163.68 76.1834 163.568C76.5434 163.32 77.0114 163.196 77.5874 163.196H79.2314L80.7914 163.1V170ZM79.2314 167.816V164.6H78.0434C77.6034 164.6 77.2954 164.768 77.1194 165.104C76.9514 165.44 76.8674 165.944 76.8674 166.616C76.8674 167.28 76.9474 167.748 77.1074 168.02C77.2754 168.292 77.5874 168.428 78.0434 168.428L79.2314 167.816ZM87.8016 170H86.2416V165.62C86.2416 165.228 86.1616 164.96 86.0016 164.816C85.8416 164.672 85.6176 164.6 85.3296 164.6L83.9256 165.188V170H82.3656V163.148H83.5296L83.8896 163.964L85.8096 163.076C86.3456 163.076 86.8096 163.276 87.2016 163.676C87.6016 164.068 87.8016 164.644 87.8016 165.404V170ZM91.0085 168.392C91.1365 168.512 91.2005 168.772 91.2005 169.172C91.2005 169.572 91.1365 169.836 91.0085 169.964C90.8885 170.092 90.6285 170.156 90.2285 170.156C89.8285 170.156 89.5645 170.092 89.4365 169.964C89.3085 169.836 89.2445 169.572 89.2445 169.172C89.2445 168.772 89.3085 168.512 89.4365 168.392C89.5645 168.264 89.8285 168.2 90.2285 168.2C90.6285 168.2 90.8885 168.264 91.0085 168.392ZM93.6955 160.532C94.0715 160.532 94.3155 160.592 94.4275 160.712C94.5395 160.824 94.5955 161.068 94.5955 161.444C94.5955 161.812 94.5355 162.056 94.4155 162.176C94.3035 162.288 94.0595 162.344 93.6835 162.344C93.3155 162.344 93.0715 162.284 92.9515 162.164C92.8395 162.044 92.7835 161.8 92.7835 161.432C92.7835 161.064 92.8395 160.824 92.9515 160.712C93.0715 160.592 93.3195 160.532 93.6955 160.532ZM94.4635 170H92.9035V163.4H94.4635V170ZM100.912 168.104V168.284C100.864 168.884 100.608 169.336 100.144 169.64C99.6882 169.944 99.1162 170.096 98.4282 170.096C97.4122 170.096 96.7002 169.912 96.2922 169.544C95.9162 169.208 95.7282 168.712 95.7282 168.056V167.912H97.1442C97.1442 168.28 97.2402 168.532 97.4322 168.668C97.6242 168.804 97.9562 168.872 98.4282 168.872C99.0682 168.872 99.3882 168.64 99.3882 168.176C99.3882 167.792 99.2762 167.536 99.0522 167.408C98.9482 167.344 98.8162 167.296 98.6562 167.264L97.4442 167.06C96.3882 166.892 95.8602 166.232 95.8602 165.08C95.8602 164.44 96.0922 163.944 96.5562 163.592C97.0282 163.232 97.6242 163.052 98.3442 163.052C99.9842 163.052 100.804 163.76 100.804 165.176V165.332H99.4482C99.4322 164.956 99.3322 164.7 99.1482 164.564C98.9642 164.428 98.7042 164.36 98.3682 164.36C98.0402 164.36 97.7922 164.428 97.6242 164.564C97.4562 164.692 97.3722 164.836 97.3722 164.996C97.3722 165.452 97.5562 165.712 97.9242 165.776L99.3762 166.04C100.4 166.232 100.912 166.92 100.912 168.104ZM103.864 168.392C103.992 168.512 104.056 168.772 104.056 169.172C104.056 169.572 103.992 169.836 103.864 169.964C103.744 170.092 103.484 170.156 103.084 170.156C102.684 170.156 102.42 170.092 102.292 169.964C102.164 169.836 102.1 169.572 102.1 169.172C102.1 168.772 102.164 168.512 102.292 168.392C102.42 168.264 102.684 168.2 103.084 168.2C103.484 168.2 103.744 168.264 103.864 168.392ZM114.591 170H113.031V165.74C113.031 165.316 112.979 165.02 112.875 164.852C112.779 164.684 112.607 164.6 112.359 164.6L110.955 165.188V170H109.395V165.74C109.395 164.98 109.131 164.6 108.603 164.6L107.319 165.188V170H105.759V163.148H106.923L107.283 163.964L109.083 163.076C109.707 163.076 110.179 163.38 110.499 163.988L112.731 163.076C113.355 163.076 113.819 163.288 114.123 163.712C114.435 164.128 114.591 164.692 114.591 165.404V170ZM121.407 166.94H117.411C117.411 167.564 117.507 168.02 117.699 168.308C117.899 168.596 118.295 168.74 118.887 168.74C119.271 168.74 119.555 168.62 119.739 168.38C119.923 168.132 120.015 167.896 120.015 167.672H121.419C121.419 168.528 121.187 169.156 120.723 169.556C120.267 169.956 119.659 170.156 118.899 170.156C118.147 170.156 117.563 170.048 117.147 169.832C116.291 169.392 115.863 168.224 115.863 166.328C115.863 165.2 116.107 164.376 116.595 163.856C117.083 163.328 117.827 163.064 118.827 163.064C120.563 163.064 121.431 164.028 121.431 165.956C121.431 166.164 121.423 166.492 121.407 166.94ZM117.447 165.872H120.015C120.015 165.344 119.915 164.96 119.715 164.72C119.515 164.48 119.207 164.36 118.791 164.36C118.383 164.36 118.055 164.484 117.807 164.732C117.567 164.972 117.447 165.352 117.447 165.872Z" fill="black"/>
<ellipse cx="16.6073" cy="86" rx="16.6073" ry="17" fill="#9B55F6"/>
<ellipse cx="16.6073" cy="128" rx="16.6073" ry="17" fill="#9B55F6"/>
<ellipse cx="16.6073" cy="170" rx="16.6073" ry="17" fill="#9B55F6"/>
<path d="M51.4222 96H50.1712V93.408H47.8222V96H46.5712V89.592H47.8222V92.301H50.1712V89.592H51.4222V96ZM56.5844 93.705H53.5874C53.5874 94.173 53.6594 94.515 53.8034 94.731C53.9534 94.947 54.2504 95.055 54.6944 95.055C54.9824 95.055 55.1954 94.965 55.3334 94.785C55.4714 94.599 55.5404 94.422 55.5404 94.254H56.5934C56.5934 94.896 56.4194 95.367 56.0714 95.667C55.7294 95.967 55.2734 96.117 54.7034 96.117C54.1394 96.117 53.7014 96.036 53.3894 95.874C52.7474 95.544 52.4264 94.668 52.4264 93.246C52.4264 92.4 52.6094 91.782 52.9754 91.392C53.3414 90.996 53.8994 90.798 54.6494 90.798C55.9514 90.798 56.6024 91.521 56.6024 92.967C56.6024 93.123 56.5964 93.369 56.5844 93.705ZM53.6144 92.904H55.5404C55.5404 92.508 55.4654 92.22 55.3154 92.04C55.1654 91.86 54.9344 91.77 54.6224 91.77C54.3164 91.77 54.0704 91.863 53.8844 92.049C53.7044 92.229 53.6144 92.514 53.6144 92.904ZM61.416 90.861L59.463 96.576C59.373 96.834 59.256 97.035 59.112 97.179C58.872 97.419 58.536 97.539 58.104 97.539H57.555V96.486H57.915C58.083 96.486 58.206 96.456 58.284 96.396C58.368 96.342 58.44 96.231 58.5 96.063L58.59 95.811L57.042 90.861H58.275L59.193 94.434L60.183 90.861H61.416ZM70.3401 90.861L68.9091 96H67.9461L66.9651 92.877L65.9841 96H65.0211L63.5811 90.861H64.8231L65.5791 94.209L66.3621 91.455C66.4521 91.059 66.6561 90.861 66.9741 90.861C67.1241 90.861 67.2441 90.909 67.3341 91.005C67.4241 91.101 67.4991 91.251 67.5591 91.455L68.3511 94.209L69.1071 90.861H70.3401ZM75.0002 96H73.8302V92.778C73.8302 92.226 73.6142 91.95 73.1822 91.95L72.0662 92.391V96H70.8962V89.232H72.0662V91.473L73.5512 90.807C74.0792 90.807 74.4512 90.957 74.6672 91.257C74.8892 91.557 75.0002 91.977 75.0002 92.517V96ZM79.6922 96H78.9092L78.5492 95.379L77.2982 96.054C76.6022 96.054 76.1342 95.802 75.8942 95.298C75.7742 95.052 75.6902 94.788 75.6422 94.506C75.6002 94.218 75.5792 93.921 75.5792 93.615C75.5792 93.303 75.5822 93.075 75.5882 92.931C75.5942 92.781 75.6092 92.61 75.6332 92.418C75.6572 92.22 75.6902 92.055 75.7322 91.923C75.7802 91.791 75.8462 91.656 75.9302 91.518C76.0142 91.374 76.1162 91.26 76.2362 91.176C76.5062 90.99 76.8572 90.897 77.2892 90.897H78.5222L79.6922 90.825V96ZM78.5222 94.362V91.95H77.6312C77.3012 91.95 77.0702 92.076 76.9382 92.328C76.8122 92.58 76.7492 92.958 76.7492 93.462C76.7492 93.96 76.8092 94.311 76.9292 94.515C77.0552 94.719 77.2892 94.821 77.6312 94.821L78.5222 94.362ZM83.1588 96H82.4298C81.9858 96 81.6468 95.868 81.4128 95.604C81.1848 95.34 81.0708 95.025 81.0708 94.659V91.959H80.5758V91.068H81.0708V90.06H82.2408V91.068H83.0688V91.959H82.2408V94.587C82.2408 94.869 82.3758 95.01 82.6458 95.01H83.1588V96ZM87.6549 94.578V94.713C87.6189 95.163 87.4269 95.502 87.0789 95.73C86.7369 95.958 86.3079 96.072 85.7919 96.072C85.0299 96.072 84.4959 95.934 84.1899 95.658C83.9079 95.406 83.7669 95.034 83.7669 94.542V94.434H84.8289C84.8289 94.71 84.9009 94.899 85.0449 95.001C85.1889 95.103 85.4379 95.154 85.7919 95.154C86.2719 95.154 86.5119 94.98 86.5119 94.632C86.5119 94.344 86.4279 94.152 86.2599 94.056C86.1819 94.008 86.0829 93.972 85.9629 93.948L85.0539 93.795C84.2619 93.669 83.8659 93.174 83.8659 92.31C83.8659 91.83 84.0399 91.458 84.3879 91.194C84.7419 90.924 85.1889 90.789 85.7289 90.789C86.9589 90.789 87.5739 91.32 87.5739 92.382V92.499H86.5569C86.5449 92.217 86.4699 92.025 86.3319 91.923C86.1939 91.821 85.9989 91.77 85.7469 91.77C85.5009 91.77 85.3149 91.821 85.1889 91.923C85.0629 92.019 84.9999 92.127 84.9999 92.247C84.9999 92.589 85.1379 92.784 85.4139 92.832L86.5029 93.03C87.2709 93.174 87.6549 93.69 87.6549 94.578ZM92.1637 94.578V94.713C92.1277 95.163 91.9357 95.502 91.5877 95.73C91.2457 95.958 90.8167 96.072 90.3007 96.072C89.5387 96.072 89.0047 95.934 88.6987 95.658C88.4167 95.406 88.2757 95.034 88.2757 94.542V94.434H89.3377C89.3377 94.71 89.4097 94.899 89.5537 95.001C89.6977 95.103 89.9467 95.154 90.3007 95.154C90.7807 95.154 91.0207 94.98 91.0207 94.632C91.0207 94.344 90.9367 94.152 90.7687 94.056C90.6907 94.008 90.5917 93.972 90.4717 93.948L89.5627 93.795C88.7707 93.669 88.3747 93.174 88.3747 92.31C88.3747 91.83 88.5487 91.458 88.8967 91.194C89.2507 90.924 89.6977 90.789 90.2377 90.789C91.4677 90.789 92.0827 91.32 92.0827 92.382V92.499H91.0657C91.0537 92.217 90.9787 92.025 90.8407 91.923C90.7027 91.821 90.5077 91.77 90.2557 91.77C90.0097 91.77 89.8237 91.821 89.6977 91.923C89.5717 92.019 89.5087 92.127 89.5087 92.247C89.5087 92.589 89.6467 92.784 89.9227 92.832L91.0117 93.03C91.7797 93.174 92.1637 93.69 92.1637 94.578ZM96.9875 96H96.1145L95.8445 95.388L94.4045 96.054C94.0025 96.054 93.6515 95.907 93.3515 95.613C93.0575 95.313 92.9105 94.878 92.9105 94.308V90.861H94.0805V94.056C94.0805 94.626 94.3085 94.911 94.7645 94.911L95.8175 94.344V90.861H96.9875V96ZM102.408 93.291C102.408 94.629 102.063 95.484 101.373 95.856C101.091 96.006 100.746 96.081 100.338 96.081L99.4737 95.523V97.53H98.3037V90.897H100.608C101.304 90.897 101.778 91.095 102.03 91.491C102.282 91.881 102.408 92.481 102.408 93.291ZM101.238 93.471C101.238 92.457 100.914 91.95 100.266 91.95H99.4737V94.335L100.266 94.848C100.614 94.848 100.863 94.74 101.013 94.524C101.163 94.302 101.238 93.951 101.238 93.471Z" fill="#979797"/>
<path d="M51.4222 96H50.1712V93.408H47.8222V96H46.5712V89.592H47.8222V92.301H50.1712V89.592H51.4222V96ZM56.5844 93.705H53.5874C53.5874 94.173 53.6594 94.515 53.8034 94.731C53.9534 94.947 54.2504 95.055 54.6944 95.055C54.9824 95.055 55.1954 94.965 55.3334 94.785C55.4714 94.599 55.5404 94.422 55.5404 94.254H56.5934C56.5934 94.896 56.4194 95.367 56.0714 95.667C55.7294 95.967 55.2734 96.117 54.7034 96.117C54.1394 96.117 53.7014 96.036 53.3894 95.874C52.7474 95.544 52.4264 94.668 52.4264 93.246C52.4264 92.4 52.6094 91.782 52.9754 91.392C53.3414 90.996 53.8994 90.798 54.6494 90.798C55.9514 90.798 56.6024 91.521 56.6024 92.967C56.6024 93.123 56.5964 93.369 56.5844 93.705ZM53.6144 92.904H55.5404C55.5404 92.508 55.4654 92.22 55.3154 92.04C55.1654 91.86 54.9344 91.77 54.6224 91.77C54.3164 91.77 54.0704 91.863 53.8844 92.049C53.7044 92.229 53.6144 92.514 53.6144 92.904ZM61.416 90.861L59.463 96.576C59.373 96.834 59.256 97.035 59.112 97.179C58.872 97.419 58.536 97.539 58.104 97.539H57.555V96.486H57.915C58.083 96.486 58.206 96.456 58.284 96.396C58.368 96.342 58.44 96.231 58.5 96.063L58.59 95.811L57.042 90.861H58.275L59.193 94.434L60.183 90.861H61.416ZM70.3401 90.861L68.9091 96H67.9461L66.9651 92.877L65.9841 96H65.0211L63.5811 90.861H64.8231L65.5791 94.209L66.3621 91.455C66.4521 91.059 66.6561 90.861 66.9741 90.861C67.1241 90.861 67.2441 90.909 67.3341 91.005C67.4241 91.101 67.4991 91.251 67.5591 91.455L68.3511 94.209L69.1071 90.861H70.3401ZM75.0002 96H73.8302V92.778C73.8302 92.226 73.6142 91.95 73.1822 91.95L72.0662 92.391V96H70.8962V89.232H72.0662V91.473L73.5512 90.807C74.0792 90.807 74.4512 90.957 74.6672 91.257C74.8892 91.557 75.0002 91.977 75.0002 92.517V96ZM79.6922 96H78.9092L78.5492 95.379L77.2982 96.054C76.6022 96.054 76.1342 95.802 75.8942 95.298C75.7742 95.052 75.6902 94.788 75.6422 94.506C75.6002 94.218 75.5792 93.921 75.5792 93.615C75.5792 93.303 75.5822 93.075 75.5882 92.931C75.5942 92.781 75.6092 92.61 75.6332 92.418C75.6572 92.22 75.6902 92.055 75.7322 91.923C75.7802 91.791 75.8462 91.656 75.9302 91.518C76.0142 91.374 76.1162 91.26 76.2362 91.176C76.5062 90.99 76.8572 90.897 77.2892 90.897H78.5222L79.6922 90.825V96ZM78.5222 94.362V91.95H77.6312C77.3012 91.95 77.0702 92.076 76.9382 92.328C76.8122 92.58 76.7492 92.958 76.7492 93.462C76.7492 93.96 76.8092 94.311 76.9292 94.515C77.0552 94.719 77.2892 94.821 77.6312 94.821L78.5222 94.362ZM83.1588 96H82.4298C81.9858 96 81.6468 95.868 81.4128 95.604C81.1848 95.34 81.0708 95.025 81.0708 94.659V91.959H80.5758V91.068H81.0708V90.06H82.2408V91.068H83.0688V91.959H82.2408V94.587C82.2408 94.869 82.3758 95.01 82.6458 95.01H83.1588V96ZM87.6549 94.578V94.713C87.6189 95.163 87.4269 95.502 87.0789 95.73C86.7369 95.958 86.3079 96.072 85.7919 96.072C85.0299 96.072 84.4959 95.934 84.1899 95.658C83.9079 95.406 83.7669 95.034 83.7669 94.542V94.434H84.8289C84.8289 94.71 84.9009 94.899 85.0449 95.001C85.1889 95.103 85.4379 95.154 85.7919 95.154C86.2719 95.154 86.5119 94.98 86.5119 94.632C86.5119 94.344 86.4279 94.152 86.2599 94.056C86.1819 94.008 86.0829 93.972 85.9629 93.948L85.0539 93.795C84.2619 93.669 83.8659 93.174 83.8659 92.31C83.8659 91.83 84.0399 91.458 84.3879 91.194C84.7419 90.924 85.1889 90.789 85.7289 90.789C86.9589 90.789 87.5739 91.32 87.5739 92.382V92.499H86.5569C86.5449 92.217 86.4699 92.025 86.3319 91.923C86.1939 91.821 85.9989 91.77 85.7469 91.77C85.5009 91.77 85.3149 91.821 85.1889 91.923C85.0629 92.019 84.9999 92.127 84.9999 92.247C84.9999 92.589 85.1379 92.784 85.4139 92.832L86.5029 93.03C87.2709 93.174 87.6549 93.69 87.6549 94.578ZM92.1637 94.578V94.713C92.1277 95.163 91.9357 95.502 91.5877 95.73C91.2457 95.958 90.8167 96.072 90.3007 96.072C89.5387 96.072 89.0047 95.934 88.6987 95.658C88.4167 95.406 88.2757 95.034 88.2757 94.542V94.434H89.3377C89.3377 94.71 89.4097 94.899 89.5537 95.001C89.6977 95.103 89.9467 95.154 90.3007 95.154C90.7807 95.154 91.0207 94.98 91.0207 94.632C91.0207 94.344 90.9367 94.152 90.7687 94.056C90.6907 94.008 90.5917 93.972 90.4717 93.948L89.5627 93.795C88.7707 93.669 88.3747 93.174 88.3747 92.31C88.3747 91.83 88.5487 91.458 88.8967 91.194C89.2507 90.924 89.6977 90.789 90.2377 90.789C91.4677 90.789 92.0827 91.32 92.0827 92.382V92.499H91.0657C91.0537 92.217 90.9787 92.025 90.8407 91.923C90.7027 91.821 90.5077 91.77 90.2557 91.77C90.0097 91.77 89.8237 91.821 89.6977 91.923C89.5717 92.019 89.5087 92.127 89.5087 92.247C89.5087 92.589 89.6467 92.784 89.9227 92.832L91.0117 93.03C91.7797 93.174 92.1637 93.69 92.1637 94.578ZM96.9875 96H96.1145L95.8445 95.388L94.4045 96.054C94.0025 96.054 93.6515 95.907 93.3515 95.613C93.0575 95.313 92.9105 94.878 92.9105 94.308V90.861H94.0805V94.056C94.0805 94.626 94.3085 94.911 94.7645 94.911L95.8175 94.344V90.861H96.9875V96ZM102.408 93.291C102.408 94.629 102.063 95.484 101.373 95.856C101.091 96.006 100.746 96.081 100.338 96.081L99.4737 95.523V97.53H98.3037V90.897H100.608C101.304 90.897 101.778 91.095 102.03 91.491C102.282 91.881 102.408 92.481 102.408 93.291ZM101.238 93.471C101.238 92.457 100.914 91.95 100.266 91.95H99.4737V94.335L100.266 94.848C100.614 94.848 100.863 94.74 101.013 94.524C101.163 94.302 101.238 93.951 101.238 93.471Z" fill="#979797"/>
<path d="M51.4222 137H50.1712V134.408H47.8222V137H46.5712V130.592H47.8222V133.301H50.1712V130.592H51.4222V137ZM56.5844 134.705H53.5874C53.5874 135.173 53.6594 135.515 53.8034 135.731C53.9534 135.947 54.2504 136.055 54.6944 136.055C54.9824 136.055 55.1954 135.965 55.3334 135.785C55.4714 135.599 55.5404 135.422 55.5404 135.254H56.5934C56.5934 135.896 56.4194 136.367 56.0714 136.667C55.7294 136.967 55.2734 137.117 54.7034 137.117C54.1394 137.117 53.7014 137.036 53.3894 136.874C52.7474 136.544 52.4264 135.668 52.4264 134.246C52.4264 133.4 52.6094 132.782 52.9754 132.392C53.3414 131.996 53.8994 131.798 54.6494 131.798C55.9514 131.798 56.6024 132.521 56.6024 133.967C56.6024 134.123 56.5964 134.369 56.5844 134.705ZM53.6144 133.904H55.5404C55.5404 133.508 55.4654 133.22 55.3154 133.04C55.1654 132.86 54.9344 132.77 54.6224 132.77C54.3164 132.77 54.0704 132.863 53.8844 133.049C53.7044 133.229 53.6144 133.514 53.6144 133.904ZM61.416 131.861L59.463 137.576C59.373 137.834 59.256 138.035 59.112 138.179C58.872 138.419 58.536 138.539 58.104 138.539H57.555V137.486H57.915C58.083 137.486 58.206 137.456 58.284 137.396C58.368 137.342 58.44 137.231 58.5 137.063L58.59 136.811L57.042 131.861H58.275L59.193 135.434L60.183 131.861H61.416ZM70.3401 131.861L68.9091 137H67.9461L66.9651 133.877L65.9841 137H65.0211L63.5811 131.861H64.8231L65.5791 135.209L66.3621 132.455C66.4521 132.059 66.6561 131.861 66.9741 131.861C67.1241 131.861 67.2441 131.909 67.3341 132.005C67.4241 132.101 67.4991 132.251 67.5591 132.455L68.3511 135.209L69.1071 131.861H70.3401ZM75.0002 137H73.8302V133.778C73.8302 133.226 73.6142 132.95 73.1822 132.95L72.0662 133.391V137H70.8962V130.232H72.0662V132.473L73.5512 131.807C74.0792 131.807 74.4512 131.957 74.6672 132.257C74.8892 132.557 75.0002 132.977 75.0002 133.517V137ZM79.6922 137H78.9092L78.5492 136.379L77.2982 137.054C76.6022 137.054 76.1342 136.802 75.8942 136.298C75.7742 136.052 75.6902 135.788 75.6422 135.506C75.6002 135.218 75.5792 134.921 75.5792 134.615C75.5792 134.303 75.5822 134.075 75.5882 133.931C75.5942 133.781 75.6092 133.61 75.6332 133.418C75.6572 133.22 75.6902 133.055 75.7322 132.923C75.7802 132.791 75.8462 132.656 75.9302 132.518C76.0142 132.374 76.1162 132.26 76.2362 132.176C76.5062 131.99 76.8572 131.897 77.2892 131.897H78.5222L79.6922 131.825V137ZM78.5222 135.362V132.95H77.6312C77.3012 132.95 77.0702 133.076 76.9382 133.328C76.8122 133.58 76.7492 133.958 76.7492 134.462C76.7492 134.96 76.8092 135.311 76.9292 135.515C77.0552 135.719 77.2892 135.821 77.6312 135.821L78.5222 135.362ZM83.1588 137H82.4298C81.9858 137 81.6468 136.868 81.4128 136.604C81.1848 136.34 81.0708 136.025 81.0708 135.659V132.959H80.5758V132.068H81.0708V131.06H82.2408V132.068H83.0688V132.959H82.2408V135.587C82.2408 135.869 82.3758 136.01 82.6458 136.01H83.1588V137ZM87.6549 135.578V135.713C87.6189 136.163 87.4269 136.502 87.0789 136.73C86.7369 136.958 86.3079 137.072 85.7919 137.072C85.0299 137.072 84.4959 136.934 84.1899 136.658C83.9079 136.406 83.7669 136.034 83.7669 135.542V135.434H84.8289C84.8289 135.71 84.9009 135.899 85.0449 136.001C85.1889 136.103 85.4379 136.154 85.7919 136.154C86.2719 136.154 86.5119 135.98 86.5119 135.632C86.5119 135.344 86.4279 135.152 86.2599 135.056C86.1819 135.008 86.0829 134.972 85.9629 134.948L85.0539 134.795C84.2619 134.669 83.8659 134.174 83.8659 133.31C83.8659 132.83 84.0399 132.458 84.3879 132.194C84.7419 131.924 85.1889 131.789 85.7289 131.789C86.9589 131.789 87.5739 132.32 87.5739 133.382V133.499H86.5569C86.5449 133.217 86.4699 133.025 86.3319 132.923C86.1939 132.821 85.9989 132.77 85.7469 132.77C85.5009 132.77 85.3149 132.821 85.1889 132.923C85.0629 133.019 84.9999 133.127 84.9999 133.247C84.9999 133.589 85.1379 133.784 85.4139 133.832L86.5029 134.03C87.2709 134.174 87.6549 134.69 87.6549 135.578ZM92.1637 135.578V135.713C92.1277 136.163 91.9357 136.502 91.5877 136.73C91.2457 136.958 90.8167 137.072 90.3007 137.072C89.5387 137.072 89.0047 136.934 88.6987 136.658C88.4167 136.406 88.2757 136.034 88.2757 135.542V135.434H89.3377C89.3377 135.71 89.4097 135.899 89.5537 136.001C89.6977 136.103 89.9467 136.154 90.3007 136.154C90.7807 136.154 91.0207 135.98 91.0207 135.632C91.0207 135.344 90.9367 135.152 90.7687 135.056C90.6907 135.008 90.5917 134.972 90.4717 134.948L89.5627 134.795C88.7707 134.669 88.3747 134.174 88.3747 133.31C88.3747 132.83 88.5487 132.458 88.8967 132.194C89.2507 131.924 89.6977 131.789 90.2377 131.789C91.4677 131.789 92.0827 132.32 92.0827 133.382V133.499H91.0657C91.0537 133.217 90.9787 133.025 90.8407 132.923C90.7027 132.821 90.5077 132.77 90.2557 132.77C90.0097 132.77 89.8237 132.821 89.6977 132.923C89.5717 133.019 89.5087 133.127 89.5087 133.247C89.5087 133.589 89.6467 133.784 89.9227 133.832L91.0117 134.03C91.7797 134.174 92.1637 134.69 92.1637 135.578ZM96.9875 137H96.1145L95.8445 136.388L94.4045 137.054C94.0025 137.054 93.6515 136.907 93.3515 136.613C93.0575 136.313 92.9105 135.878 92.9105 135.308V131.861H94.0805V135.056C94.0805 135.626 94.3085 135.911 94.7645 135.911L95.8175 135.344V131.861H96.9875V137ZM102.408 134.291C102.408 135.629 102.063 136.484 101.373 136.856C101.091 137.006 100.746 137.081 100.338 137.081L99.4737 136.523V138.53H98.3037V131.897H100.608C101.304 131.897 101.778 132.095 102.03 132.491C102.282 132.881 102.408 133.481 102.408 134.291ZM101.238 134.471C101.238 133.457 100.914 132.95 100.266 132.95H99.4737V135.335L100.266 135.848C100.614 135.848 100.863 135.74 101.013 135.524C101.163 135.302 101.238 134.951 101.238 134.471Z" fill="#979797"/>
<path d="M51.4222 181H50.1712V178.408H47.8222V181H46.5712V174.592H47.8222V177.301H50.1712V174.592H51.4222V181ZM56.5844 178.705H53.5874C53.5874 179.173 53.6594 179.515 53.8034 179.731C53.9534 179.947 54.2504 180.055 54.6944 180.055C54.9824 180.055 55.1954 179.965 55.3334 179.785C55.4714 179.599 55.5404 179.422 55.5404 179.254H56.5934C56.5934 179.896 56.4194 180.367 56.0714 180.667C55.7294 180.967 55.2734 181.117 54.7034 181.117C54.1394 181.117 53.7014 181.036 53.3894 180.874C52.7474 180.544 52.4264 179.668 52.4264 178.246C52.4264 177.4 52.6094 176.782 52.9754 176.392C53.3414 175.996 53.8994 175.798 54.6494 175.798C55.9514 175.798 56.6024 176.521 56.6024 177.967C56.6024 178.123 56.5964 178.369 56.5844 178.705ZM53.6144 177.904H55.5404C55.5404 177.508 55.4654 177.22 55.3154 177.04C55.1654 176.86 54.9344 176.77 54.6224 176.77C54.3164 176.77 54.0704 176.863 53.8844 177.049C53.7044 177.229 53.6144 177.514 53.6144 177.904ZM61.416 175.861L59.463 181.576C59.373 181.834 59.256 182.035 59.112 182.179C58.872 182.419 58.536 182.539 58.104 182.539H57.555V181.486H57.915C58.083 181.486 58.206 181.456 58.284 181.396C58.368 181.342 58.44 181.231 58.5 181.063L58.59 180.811L57.042 175.861H58.275L59.193 179.434L60.183 175.861H61.416ZM70.3401 175.861L68.9091 181H67.9461L66.9651 177.877L65.9841 181H65.0211L63.5811 175.861H64.8231L65.5791 179.209L66.3621 176.455C66.4521 176.059 66.6561 175.861 66.9741 175.861C67.1241 175.861 67.2441 175.909 67.3341 176.005C67.4241 176.101 67.4991 176.251 67.5591 176.455L68.3511 179.209L69.1071 175.861H70.3401ZM75.0002 181H73.8302V177.778C73.8302 177.226 73.6142 176.95 73.1822 176.95L72.0662 177.391V181H70.8962V174.232H72.0662V176.473L73.5512 175.807C74.0792 175.807 74.4512 175.957 74.6672 176.257C74.8892 176.557 75.0002 176.977 75.0002 177.517V181ZM79.6922 181H78.9092L78.5492 180.379L77.2982 181.054C76.6022 181.054 76.1342 180.802 75.8942 180.298C75.7742 180.052 75.6902 179.788 75.6422 179.506C75.6002 179.218 75.5792 178.921 75.5792 178.615C75.5792 178.303 75.5822 178.075 75.5882 177.931C75.5942 177.781 75.6092 177.61 75.6332 177.418C75.6572 177.22 75.6902 177.055 75.7322 176.923C75.7802 176.791 75.8462 176.656 75.9302 176.518C76.0142 176.374 76.1162 176.26 76.2362 176.176C76.5062 175.99 76.8572 175.897 77.2892 175.897H78.5222L79.6922 175.825V181ZM78.5222 179.362V176.95H77.6312C77.3012 176.95 77.0702 177.076 76.9382 177.328C76.8122 177.58 76.7492 177.958 76.7492 178.462C76.7492 178.96 76.8092 179.311 76.9292 179.515C77.0552 179.719 77.2892 179.821 77.6312 179.821L78.5222 179.362ZM83.1588 181H82.4298C81.9858 181 81.6468 180.868 81.4128 180.604C81.1848 180.34 81.0708 180.025 81.0708 179.659V176.959H80.5758V176.068H81.0708V175.06H82.2408V176.068H83.0688V176.959H82.2408V179.587C82.2408 179.869 82.3758 180.01 82.6458 180.01H83.1588V181ZM87.6549 179.578V179.713C87.6189 180.163 87.4269 180.502 87.0789 180.73C86.7369 180.958 86.3079 181.072 85.7919 181.072C85.0299 181.072 84.4959 180.934 84.1899 180.658C83.9079 180.406 83.7669 180.034 83.7669 179.542V179.434H84.8289C84.8289 179.71 84.9009 179.899 85.0449 180.001C85.1889 180.103 85.4379 180.154 85.7919 180.154C86.2719 180.154 86.5119 179.98 86.5119 179.632C86.5119 179.344 86.4279 179.152 86.2599 179.056C86.1819 179.008 86.0829 178.972 85.9629 178.948L85.0539 178.795C84.2619 178.669 83.8659 178.174 83.8659 177.31C83.8659 176.83 84.0399 176.458 84.3879 176.194C84.7419 175.924 85.1889 175.789 85.7289 175.789C86.9589 175.789 87.5739 176.32 87.5739 177.382V177.499H86.5569C86.5449 177.217 86.4699 177.025 86.3319 176.923C86.1939 176.821 85.9989 176.77 85.7469 176.77C85.5009 176.77 85.3149 176.821 85.1889 176.923C85.0629 177.019 84.9999 177.127 84.9999 177.247C84.9999 177.589 85.1379 177.784 85.4139 177.832L86.5029 178.03C87.2709 178.174 87.6549 178.69 87.6549 179.578ZM92.1637 179.578V179.713C92.1277 180.163 91.9357 180.502 91.5877 180.73C91.2457 180.958 90.8167 181.072 90.3007 181.072C89.5387 181.072 89.0047 180.934 88.6987 180.658C88.4167 180.406 88.2757 180.034 88.2757 179.542V179.434H89.3377C89.3377 179.71 89.4097 179.899 89.5537 180.001C89.6977 180.103 89.9467 180.154 90.3007 180.154C90.7807 180.154 91.0207 179.98 91.0207 179.632C91.0207 179.344 90.9367 179.152 90.7687 179.056C90.6907 179.008 90.5917 178.972 90.4717 178.948L89.5627 178.795C88.7707 178.669 88.3747 178.174 88.3747 177.31C88.3747 176.83 88.5487 176.458 88.8967 176.194C89.2507 175.924 89.6977 175.789 90.2377 175.789C91.4677 175.789 92.0827 176.32 92.0827 177.382V177.499H91.0657C91.0537 177.217 90.9787 177.025 90.8407 176.923C90.7027 176.821 90.5077 176.77 90.2557 176.77C90.0097 176.77 89.8237 176.821 89.6977 176.923C89.5717 177.019 89.5087 177.127 89.5087 177.247C89.5087 177.589 89.6467 177.784 89.9227 177.832L91.0117 178.03C91.7797 178.174 92.1637 178.69 92.1637 179.578ZM96.9875 181H96.1145L95.8445 180.388L94.4045 181.054C94.0025 181.054 93.6515 180.907 93.3515 180.613C93.0575 180.313 92.9105 179.878 92.9105 179.308V175.861H94.0805V179.056C94.0805 179.626 94.3085 179.911 94.7645 179.911L95.8175 179.344V175.861H96.9875V181ZM102.408 178.291C102.408 179.629 102.063 180.484 101.373 180.856C101.091 181.006 100.746 181.081 100.338 181.081L99.4737 180.523V182.53H98.3037V175.897H100.608C101.304 175.897 101.778 176.095 102.03 176.491C102.282 176.881 102.408 177.481 102.408 178.291ZM101.238 178.471C101.238 177.457 100.914 176.95 100.266 176.95H99.4737V179.335L100.266 179.848C100.614 179.848 100.863 179.74 101.013 179.524C101.163 179.302 101.238 178.951 101.238 178.471Z" fill="#979797"/>
<path d="M282.318 168H281.094V162.744L280.311 162.456V161.583H281.373C281.769 161.583 282.024 161.655 282.138 161.799C282.258 161.943 282.318 162.228 282.318 162.654V168ZM288.073 164.616V164.985C288.073 165.429 288.058 165.801 288.028 166.101C287.998 166.401 287.938 166.683 287.848 166.947C287.758 167.211 287.632 167.421 287.47 167.577C287.308 167.727 287.095 167.844 286.831 167.928C286.573 168.012 286.258 168.054 285.886 168.054C285.514 168.054 285.196 168.012 284.932 167.928C284.674 167.838 284.464 167.718 284.302 167.568C284.14 167.418 284.014 167.211 283.924 166.947C283.834 166.677 283.774 166.392 283.744 166.092C283.714 165.792 283.699 165.417 283.699 164.967V164.625C283.699 163.701 283.771 163.02 283.915 162.582C284.005 162.318 284.131 162.114 284.293 161.97C284.635 161.682 285.166 161.538 285.886 161.538C286.726 161.538 287.299 161.766 287.605 162.222C287.917 162.678 288.073 163.476 288.073 164.616ZM286.867 165.264V164.265C286.861 163.671 286.795 163.254 286.669 163.014C286.543 162.774 286.282 162.654 285.886 162.654C285.49 162.654 285.229 162.774 285.103 163.014C284.977 163.248 284.911 163.653 284.905 164.229V165.264C284.911 165.906 284.974 166.347 285.094 166.587C285.214 166.821 285.481 166.938 285.895 166.938C286.309 166.938 286.573 166.824 286.687 166.596C286.801 166.368 286.861 165.924 286.867 165.264ZM290.588 166.794C290.684 166.884 290.732 167.079 290.732 167.379C290.732 167.679 290.684 167.877 290.588 167.973C290.498 168.069 290.303 168.117 290.003 168.117C289.703 168.117 289.505 168.069 289.409 167.973C289.313 167.877 289.265 167.679 289.265 167.379C289.265 167.079 289.313 166.884 289.409 166.794C289.505 166.698 289.703 166.65 290.003 166.65C290.303 166.65 290.498 166.698 290.588 166.794ZM290.57 164.292C290.666 164.382 290.714 164.577 290.714 164.877C290.714 165.177 290.666 165.375 290.57 165.471C290.48 165.567 290.285 165.615 289.985 165.615C289.685 165.615 289.487 165.567 289.391 165.471C289.295 165.375 289.247 165.177 289.247 164.877C289.247 164.577 289.295 164.382 289.391 164.292C289.487 164.196 289.685 164.148 289.985 164.148C290.285 164.148 290.48 164.196 290.57 164.292ZM294.245 168H293.021V162.744L292.238 162.456V161.583H293.3C293.696 161.583 293.951 161.655 294.065 161.799C294.185 161.943 294.245 162.228 294.245 162.654V168ZM295.959 161.7H299.352V162.699H297.111V163.707C298.035 163.707 298.668 163.896 299.01 164.274C299.358 164.652 299.532 165.204 299.532 165.93C299.532 167.346 298.848 168.054 297.48 168.054C296.85 168.054 296.376 167.889 296.058 167.559C295.746 167.229 295.59 166.788 295.59 166.236H296.733C296.733 166.338 296.745 166.44 296.769 166.542C296.799 166.638 296.871 166.737 296.985 166.839C297.099 166.935 297.252 166.983 297.444 166.983C297.762 166.983 297.993 166.896 298.137 166.722C298.287 166.542 298.362 166.332 298.362 166.092C298.362 165.852 298.344 165.663 298.308 165.525C298.278 165.387 298.209 165.246 298.101 165.102C297.885 164.802 297.402 164.652 296.652 164.652H295.959V161.7ZM307.922 168H306.617L306.257 166.893H304.106L303.755 168H302.45L304.502 162.132C304.592 161.928 304.691 161.787 304.799 161.709C304.913 161.631 305.051 161.592 305.213 161.592C305.375 161.592 305.504 161.628 305.6 161.7C305.702 161.772 305.792 161.916 305.87 162.132L307.922 168ZM305.969 165.84L305.213 163.302L304.421 165.84H305.969ZM313.535 164.175L312.383 166.605C312.215 166.929 312.005 167.091 311.753 167.091C311.507 167.091 311.3 166.92 311.132 166.578L309.962 164.175V168H308.711V161.592H309.944L311.753 165.291L313.553 161.592H314.786V168H313.535V164.175Z" fill="#979797"/>
<path d="M282.318 125H281.094V119.744L280.311 119.456V118.583H281.373C281.769 118.583 282.024 118.655 282.138 118.799C282.258 118.943 282.318 119.228 282.318 119.654V125ZM288.073 121.616V121.985C288.073 122.429 288.058 122.801 288.028 123.101C287.998 123.401 287.938 123.683 287.848 123.947C287.758 124.211 287.632 124.421 287.47 124.577C287.308 124.727 287.095 124.844 286.831 124.928C286.573 125.012 286.258 125.054 285.886 125.054C285.514 125.054 285.196 125.012 284.932 124.928C284.674 124.838 284.464 124.718 284.302 124.568C284.14 124.418 284.014 124.211 283.924 123.947C283.834 123.677 283.774 123.392 283.744 123.092C283.714 122.792 283.699 122.417 283.699 121.967V121.625C283.699 120.701 283.771 120.02 283.915 119.582C284.005 119.318 284.131 119.114 284.293 118.97C284.635 118.682 285.166 118.538 285.886 118.538C286.726 118.538 287.299 118.766 287.605 119.222C287.917 119.678 288.073 120.476 288.073 121.616ZM286.867 122.264V121.265C286.861 120.671 286.795 120.254 286.669 120.014C286.543 119.774 286.282 119.654 285.886 119.654C285.49 119.654 285.229 119.774 285.103 120.014C284.977 120.248 284.911 120.653 284.905 121.229V122.264C284.911 122.906 284.974 123.347 285.094 123.587C285.214 123.821 285.481 123.938 285.895 123.938C286.309 123.938 286.573 123.824 286.687 123.596C286.801 123.368 286.861 122.924 286.867 122.264ZM290.588 123.794C290.684 123.884 290.732 124.079 290.732 124.379C290.732 124.679 290.684 124.877 290.588 124.973C290.498 125.069 290.303 125.117 290.003 125.117C289.703 125.117 289.505 125.069 289.409 124.973C289.313 124.877 289.265 124.679 289.265 124.379C289.265 124.079 289.313 123.884 289.409 123.794C289.505 123.698 289.703 123.65 290.003 123.65C290.303 123.65 290.498 123.698 290.588 123.794ZM290.57 121.292C290.666 121.382 290.714 121.577 290.714 121.877C290.714 122.177 290.666 122.375 290.57 122.471C290.48 122.567 290.285 122.615 289.985 122.615C289.685 122.615 289.487 122.567 289.391 122.471C289.295 122.375 289.247 122.177 289.247 121.877C289.247 121.577 289.295 121.382 289.391 121.292C289.487 121.196 289.685 121.148 289.985 121.148C290.285 121.148 290.48 121.196 290.57 121.292ZM294.245 125H293.021V119.744L292.238 119.456V118.583H293.3C293.696 118.583 293.951 118.655 294.065 118.799C294.185 118.943 294.245 119.228 294.245 119.654V125ZM295.959 118.7H299.352V119.699H297.111V120.707C298.035 120.707 298.668 120.896 299.01 121.274C299.358 121.652 299.532 122.204 299.532 122.93C299.532 124.346 298.848 125.054 297.48 125.054C296.85 125.054 296.376 124.889 296.058 124.559C295.746 124.229 295.59 123.788 295.59 123.236H296.733C296.733 123.338 296.745 123.44 296.769 123.542C296.799 123.638 296.871 123.737 296.985 123.839C297.099 123.935 297.252 123.983 297.444 123.983C297.762 123.983 297.993 123.896 298.137 123.722C298.287 123.542 298.362 123.332 298.362 123.092C298.362 122.852 298.344 122.663 298.308 122.525C298.278 122.387 298.209 122.246 298.101 122.102C297.885 121.802 297.402 121.652 296.652 121.652H295.959V118.7ZM307.922 125H306.617L306.257 123.893H304.106L303.755 125H302.45L304.502 119.132C304.592 118.928 304.691 118.787 304.799 118.709C304.913 118.631 305.051 118.592 305.213 118.592C305.375 118.592 305.504 118.628 305.6 118.7C305.702 118.772 305.792 118.916 305.87 119.132L307.922 125ZM305.969 122.84L305.213 120.302L304.421 122.84H305.969ZM313.535 121.175L312.383 123.605C312.215 123.929 312.005 124.091 311.753 124.091C311.507 124.091 311.3 123.92 311.132 123.578L309.962 121.175V125H308.711V118.592H309.944L311.753 122.291L313.553 118.592H314.786V125H313.535V121.175Z" fill="#979797"/>
<path d="M282.318 82H281.094V76.744L280.311 76.456V75.583H281.373C281.769 75.583 282.024 75.655 282.138 75.799C282.258 75.943 282.318 76.228 282.318 76.654V82ZM288.073 78.616V78.985C288.073 79.429 288.058 79.801 288.028 80.101C287.998 80.401 287.938 80.683 287.848 80.947C287.758 81.211 287.632 81.421 287.47 81.577C287.308 81.727 287.095 81.844 286.831 81.928C286.573 82.012 286.258 82.054 285.886 82.054C285.514 82.054 285.196 82.012 284.932 81.928C284.674 81.838 284.464 81.718 284.302 81.568C284.14 81.418 284.014 81.211 283.924 80.947C283.834 80.677 283.774 80.392 283.744 80.092C283.714 79.792 283.699 79.417 283.699 78.967V78.625C283.699 77.701 283.771 77.02 283.915 76.582C284.005 76.318 284.131 76.114 284.293 75.97C284.635 75.682 285.166 75.538 285.886 75.538C286.726 75.538 287.299 75.766 287.605 76.222C287.917 76.678 288.073 77.476 288.073 78.616ZM286.867 79.264V78.265C286.861 77.671 286.795 77.254 286.669 77.014C286.543 76.774 286.282 76.654 285.886 76.654C285.49 76.654 285.229 76.774 285.103 77.014C284.977 77.248 284.911 77.653 284.905 78.229V79.264C284.911 79.906 284.974 80.347 285.094 80.587C285.214 80.821 285.481 80.938 285.895 80.938C286.309 80.938 286.573 80.824 286.687 80.596C286.801 80.368 286.861 79.924 286.867 79.264ZM290.588 80.794C290.684 80.884 290.732 81.079 290.732 81.379C290.732 81.679 290.684 81.877 290.588 81.973C290.498 82.069 290.303 82.117 290.003 82.117C289.703 82.117 289.505 82.069 289.409 81.973C289.313 81.877 289.265 81.679 289.265 81.379C289.265 81.079 289.313 80.884 289.409 80.794C289.505 80.698 289.703 80.65 290.003 80.65C290.303 80.65 290.498 80.698 290.588 80.794ZM290.57 78.292C290.666 78.382 290.714 78.577 290.714 78.877C290.714 79.177 290.666 79.375 290.57 79.471C290.48 79.567 290.285 79.615 289.985 79.615C289.685 79.615 289.487 79.567 289.391 79.471C289.295 79.375 289.247 79.177 289.247 78.877C289.247 78.577 289.295 78.382 289.391 78.292C289.487 78.196 289.685 78.148 289.985 78.148C290.285 78.148 290.48 78.196 290.57 78.292ZM294.245 82H293.021V76.744L292.238 76.456V75.583H293.3C293.696 75.583 293.951 75.655 294.065 75.799C294.185 75.943 294.245 76.228 294.245 76.654V82ZM295.959 75.7H299.352V76.699H297.111V77.707C298.035 77.707 298.668 77.896 299.01 78.274C299.358 78.652 299.532 79.204 299.532 79.93C299.532 81.346 298.848 82.054 297.48 82.054C296.85 82.054 296.376 81.889 296.058 81.559C295.746 81.229 295.59 80.788 295.59 80.236H296.733C296.733 80.338 296.745 80.44 296.769 80.542C296.799 80.638 296.871 80.737 296.985 80.839C297.099 80.935 297.252 80.983 297.444 80.983C297.762 80.983 297.993 80.896 298.137 80.722C298.287 80.542 298.362 80.332 298.362 80.092C298.362 79.852 298.344 79.663 298.308 79.525C298.278 79.387 298.209 79.246 298.101 79.102C297.885 78.802 297.402 78.652 296.652 78.652H295.959V75.7ZM307.922 82H306.617L306.257 80.893H304.106L303.755 82H302.45L304.502 76.132C304.592 75.928 304.691 75.787 304.799 75.709C304.913 75.631 305.051 75.592 305.213 75.592C305.375 75.592 305.504 75.628 305.6 75.7C305.702 75.772 305.792 75.916 305.87 76.132L307.922 82ZM305.969 79.84L305.213 77.302L304.421 79.84H305.969ZM313.535 78.175L312.383 80.605C312.215 80.929 312.005 81.091 311.753 81.091C311.507 81.091 311.3 80.92 311.132 80.578L309.962 78.175V82H308.711V75.592H309.944L311.753 79.291L313.553 75.592H314.786V82H313.535V78.175Z" fill="#979797"/>
<path d="M53.1742 207.332V207.98C53.1742 209.412 52.9022 210.452 52.3582 211.1C51.8222 211.748 50.9582 212.072 49.7662 212.072C48.5742 212.072 47.7102 211.748 47.1742 211.1C46.6462 210.452 46.3822 209.4 46.3822 207.944V207.32C46.3822 205.992 46.6502 205.004 47.1862 204.356C47.7302 203.708 48.5862 203.384 49.7542 203.384C50.9302 203.384 51.7942 203.712 52.3462 204.368C52.8982 205.024 53.1742 206.012 53.1742 207.332ZM51.5062 207.944V207.5C51.5062 206.732 51.4102 206.12 51.2182 205.664C50.9942 205.136 50.5142 204.872 49.7782 204.872C49.0342 204.872 48.5502 205.136 48.3262 205.664C48.1422 206.096 48.0502 206.708 48.0502 207.5V207.944C48.0502 208.976 48.1942 209.672 48.4822 210.032C48.5942 210.184 48.7582 210.316 48.9742 210.428C49.1982 210.532 49.4622 210.584 49.7662 210.584C50.0782 210.584 50.3422 210.532 50.5582 210.428C50.7742 210.324 50.9422 210.196 51.0622 210.044C51.1822 209.892 51.2742 209.692 51.3382 209.444C51.4502 209.052 51.5062 208.552 51.5062 207.944ZM57.4409 212H56.4689C55.8769 212 55.4249 211.824 55.1129 211.472C54.8089 211.12 54.6569 210.7 54.6569 210.212V206.612H53.9969V205.424H54.6569V204.08H56.2169V205.424H57.3209V206.612H56.2169V210.116C56.2169 210.492 56.3969 210.68 56.7569 210.68H57.4409V212ZM64.0237 212H62.4637V207.704C62.4637 206.968 62.1757 206.6 61.5997 206.6L60.1117 207.188V212H58.5517V202.976H60.1117V205.964L62.0917 205.076C62.7957 205.076 63.2917 205.276 63.5797 205.676C63.8757 206.076 64.0237 206.636 64.0237 207.356V212ZM74.3957 212H72.8357V207.74C72.8357 207.316 72.7837 207.02 72.6797 206.852C72.5837 206.684 72.4117 206.6 72.1637 206.6L70.7597 207.188V212H69.1997V207.74C69.1997 206.98 68.9357 206.6 68.4077 206.6L67.1237 207.188V212H65.5637V205.148H66.7277L67.0877 205.964L68.8877 205.076C69.5117 205.076 69.9837 205.38 70.3037 205.988L72.5357 205.076C73.1597 205.076 73.6237 205.288 73.9277 205.712C74.2397 206.128 74.3957 206.692 74.3957 207.404V212ZM80.7914 212H79.7474L79.2674 211.172L77.5994 212.072C76.6714 212.072 76.0474 211.736 75.7274 211.064C75.5674 210.736 75.4554 210.384 75.3914 210.008C75.3354 209.624 75.3074 209.228 75.3074 208.82C75.3074 208.404 75.3114 208.1 75.3194 207.908C75.3274 207.708 75.3474 207.48 75.3794 207.224C75.4114 206.96 75.4554 206.74 75.5114 206.564C75.5754 206.388 75.6634 206.208 75.7754 206.024C75.8874 205.832 76.0234 205.68 76.1834 205.568C76.5434 205.32 77.0114 205.196 77.5874 205.196H79.2314L80.7914 205.1V212ZM79.2314 209.816V206.6H78.0434C77.6034 206.6 77.2954 206.768 77.1194 207.104C76.9514 207.44 76.8674 207.944 76.8674 208.616C76.8674 209.28 76.9474 209.748 77.1074 210.02C77.2754 210.292 77.5874 210.428 78.0434 210.428L79.2314 209.816ZM87.8016 212H86.2416V207.62C86.2416 207.228 86.1616 206.96 86.0016 206.816C85.8416 206.672 85.6176 206.6 85.3296 206.6L83.9256 207.188V212H82.3656V205.148H83.5296L83.8896 205.964L85.8096 205.076C86.3456 205.076 86.8096 205.276 87.2016 205.676C87.6016 206.068 87.8016 206.644 87.8016 207.404V212ZM91.0085 210.392C91.1365 210.512 91.2005 210.772 91.2005 211.172C91.2005 211.572 91.1365 211.836 91.0085 211.964C90.8885 212.092 90.6285 212.156 90.2285 212.156C89.8285 212.156 89.5645 212.092 89.4365 211.964C89.3085 211.836 89.2445 211.572 89.2445 211.172C89.2445 210.772 89.3085 210.512 89.4365 210.392C89.5645 210.264 89.8285 210.2 90.2285 210.2C90.6285 210.2 90.8885 210.264 91.0085 210.392ZM93.6955 202.532C94.0715 202.532 94.3155 202.592 94.4275 202.712C94.5395 202.824 94.5955 203.068 94.5955 203.444C94.5955 203.812 94.5355 204.056 94.4155 204.176C94.3035 204.288 94.0595 204.344 93.6835 204.344C93.3155 204.344 93.0715 204.284 92.9515 204.164C92.8395 204.044 92.7835 203.8 92.7835 203.432C92.7835 203.064 92.8395 202.824 92.9515 202.712C93.0715 202.592 93.3195 202.532 93.6955 202.532ZM94.4635 212H92.9035V205.4H94.4635V212ZM100.912 210.104V210.284C100.864 210.884 100.608 211.336 100.144 211.64C99.6882 211.944 99.1162 212.096 98.4282 212.096C97.4122 212.096 96.7002 211.912 96.2922 211.544C95.9162 211.208 95.7282 210.712 95.7282 210.056V209.912H97.1442C97.1442 210.28 97.2402 210.532 97.4322 210.668C97.6242 210.804 97.9562 210.872 98.4282 210.872C99.0682 210.872 99.3882 210.64 99.3882 210.176C99.3882 209.792 99.2762 209.536 99.0522 209.408C98.9482 209.344 98.8162 209.296 98.6562 209.264L97.4442 209.06C96.3882 208.892 95.8602 208.232 95.8602 207.08C95.8602 206.44 96.0922 205.944 96.5562 205.592C97.0282 205.232 97.6242 205.052 98.3442 205.052C99.9842 205.052 100.804 205.76 100.804 207.176V207.332H99.4482C99.4322 206.956 99.3322 206.7 99.1482 206.564C98.9642 206.428 98.7042 206.36 98.3682 206.36C98.0402 206.36 97.7922 206.428 97.6242 206.564C97.4562 206.692 97.3722 206.836 97.3722 206.996C97.3722 207.452 97.5562 207.712 97.9242 207.776L99.3762 208.04C100.4 208.232 100.912 208.92 100.912 210.104ZM103.864 210.392C103.992 210.512 104.056 210.772 104.056 211.172C104.056 211.572 103.992 211.836 103.864 211.964C103.744 212.092 103.484 212.156 103.084 212.156C102.684 212.156 102.42 212.092 102.292 211.964C102.164 211.836 102.1 211.572 102.1 211.172C102.1 210.772 102.164 210.512 102.292 210.392C102.42 210.264 102.684 210.2 103.084 210.2C103.484 210.2 103.744 210.264 103.864 210.392ZM114.591 212H113.031V207.74C113.031 207.316 112.979 207.02 112.875 206.852C112.779 206.684 112.607 206.6 112.359 206.6L110.955 207.188V212H109.395V207.74C109.395 206.98 109.131 206.6 108.603 206.6L107.319 207.188V212H105.759V205.148H106.923L107.283 205.964L109.083 205.076C109.707 205.076 110.179 205.38 110.499 205.988L112.731 205.076C113.355 205.076 113.819 205.288 114.123 205.712C114.435 206.128 114.591 206.692 114.591 207.404V212ZM121.407 208.94H117.411C117.411 209.564 117.507 210.02 117.699 210.308C117.899 210.596 118.295 210.74 118.887 210.74C119.271 210.74 119.555 210.62 119.739 210.38C119.923 210.132 120.015 209.896 120.015 209.672H121.419C121.419 210.528 121.187 211.156 120.723 211.556C120.267 211.956 119.659 212.156 118.899 212.156C118.147 212.156 117.563 212.048 117.147 211.832C116.291 211.392 115.863 210.224 115.863 208.328C115.863 207.2 116.107 206.376 116.595 205.856C117.083 205.328 117.827 205.064 118.827 205.064C120.563 205.064 121.431 206.028 121.431 207.956C121.431 208.164 121.423 208.492 121.407 208.94ZM117.447 207.872H120.015C120.015 207.344 119.915 206.96 119.715 206.72C119.515 206.48 119.207 206.36 118.791 206.36C118.383 206.36 118.055 206.484 117.807 206.732C117.567 206.972 117.447 207.352 117.447 207.872Z" fill="black"/>
<ellipse cx="16.6073" cy="212" rx="16.6073" ry="17" fill="#9B55F6"/>
<path d="M51.4222 223H50.1712V220.408H47.8222V223H46.5712V216.592H47.8222V219.301H50.1712V216.592H51.4222V223ZM56.5844 220.705H53.5874C53.5874 221.173 53.6594 221.515 53.8034 221.731C53.9534 221.947 54.2504 222.055 54.6944 222.055C54.9824 222.055 55.1954 221.965 55.3334 221.785C55.4714 221.599 55.5404 221.422 55.5404 221.254H56.5934C56.5934 221.896 56.4194 222.367 56.0714 222.667C55.7294 222.967 55.2734 223.117 54.7034 223.117C54.1394 223.117 53.7014 223.036 53.3894 222.874C52.7474 222.544 52.4264 221.668 52.4264 220.246C52.4264 219.4 52.6094 218.782 52.9754 218.392C53.3414 217.996 53.8994 217.798 54.6494 217.798C55.9514 217.798 56.6024 218.521 56.6024 219.967C56.6024 220.123 56.5964 220.369 56.5844 220.705ZM53.6144 219.904H55.5404C55.5404 219.508 55.4654 219.22 55.3154 219.04C55.1654 218.86 54.9344 218.77 54.6224 218.77C54.3164 218.77 54.0704 218.863 53.8844 219.049C53.7044 219.229 53.6144 219.514 53.6144 219.904ZM61.416 217.861L59.463 223.576C59.373 223.834 59.256 224.035 59.112 224.179C58.872 224.419 58.536 224.539 58.104 224.539H57.555V223.486H57.915C58.083 223.486 58.206 223.456 58.284 223.396C58.368 223.342 58.44 223.231 58.5 223.063L58.59 222.811L57.042 217.861H58.275L59.193 221.434L60.183 217.861H61.416ZM70.3401 217.861L68.9091 223H67.9461L66.9651 219.877L65.9841 223H65.0211L63.5811 217.861H64.8231L65.5791 221.209L66.3621 218.455C66.4521 218.059 66.6561 217.861 66.9741 217.861C67.1241 217.861 67.2441 217.909 67.3341 218.005C67.4241 218.101 67.4991 218.251 67.5591 218.455L68.3511 221.209L69.1071 217.861H70.3401ZM75.0002 223H73.8302V219.778C73.8302 219.226 73.6142 218.95 73.1822 218.95L72.0662 219.391V223H70.8962V216.232H72.0662V218.473L73.5512 217.807C74.0792 217.807 74.4512 217.957 74.6672 218.257C74.8892 218.557 75.0002 218.977 75.0002 219.517V223ZM79.6922 223H78.9092L78.5492 222.379L77.2982 223.054C76.6022 223.054 76.1342 222.802 75.8942 222.298C75.7742 222.052 75.6902 221.788 75.6422 221.506C75.6002 221.218 75.5792 220.921 75.5792 220.615C75.5792 220.303 75.5822 220.075 75.5882 219.931C75.5942 219.781 75.6092 219.61 75.6332 219.418C75.6572 219.22 75.6902 219.055 75.7322 218.923C75.7802 218.791 75.8462 218.656 75.9302 218.518C76.0142 218.374 76.1162 218.26 76.2362 218.176C76.5062 217.99 76.8572 217.897 77.2892 217.897H78.5222L79.6922 217.825V223ZM78.5222 221.362V218.95H77.6312C77.3012 218.95 77.0702 219.076 76.9382 219.328C76.8122 219.58 76.7492 219.958 76.7492 220.462C76.7492 220.96 76.8092 221.311 76.9292 221.515C77.0552 221.719 77.2892 221.821 77.6312 221.821L78.5222 221.362ZM83.1588 223H82.4298C81.9858 223 81.6468 222.868 81.4128 222.604C81.1848 222.34 81.0708 222.025 81.0708 221.659V218.959H80.5758V218.068H81.0708V217.06H82.2408V218.068H83.0688V218.959H82.2408V221.587C82.2408 221.869 82.3758 222.01 82.6458 222.01H83.1588V223ZM87.6549 221.578V221.713C87.6189 222.163 87.4269 222.502 87.0789 222.73C86.7369 222.958 86.3079 223.072 85.7919 223.072C85.0299 223.072 84.4959 222.934 84.1899 222.658C83.9079 222.406 83.7669 222.034 83.7669 221.542V221.434H84.8289C84.8289 221.71 84.9009 221.899 85.0449 222.001C85.1889 222.103 85.4379 222.154 85.7919 222.154C86.2719 222.154 86.5119 221.98 86.5119 221.632C86.5119 221.344 86.4279 221.152 86.2599 221.056C86.1819 221.008 86.0829 220.972 85.9629 220.948L85.0539 220.795C84.2619 220.669 83.8659 220.174 83.8659 219.31C83.8659 218.83 84.0399 218.458 84.3879 218.194C84.7419 217.924 85.1889 217.789 85.7289 217.789C86.9589 217.789 87.5739 218.32 87.5739 219.382V219.499H86.5569C86.5449 219.217 86.4699 219.025 86.3319 218.923C86.1939 218.821 85.9989 218.77 85.7469 218.77C85.5009 218.77 85.3149 218.821 85.1889 218.923C85.0629 219.019 84.9999 219.127 84.9999 219.247C84.9999 219.589 85.1379 219.784 85.4139 219.832L86.5029 220.03C87.2709 220.174 87.6549 220.69 87.6549 221.578ZM92.1637 221.578V221.713C92.1277 222.163 91.9357 222.502 91.5877 222.73C91.2457 222.958 90.8167 223.072 90.3007 223.072C89.5387 223.072 89.0047 222.934 88.6987 222.658C88.4167 222.406 88.2757 222.034 88.2757 221.542V221.434H89.3377C89.3377 221.71 89.4097 221.899 89.5537 222.001C89.6977 222.103 89.9467 222.154 90.3007 222.154C90.7807 222.154 91.0207 221.98 91.0207 221.632C91.0207 221.344 90.9367 221.152 90.7687 221.056C90.6907 221.008 90.5917 220.972 90.4717 220.948L89.5627 220.795C88.7707 220.669 88.3747 220.174 88.3747 219.31C88.3747 218.83 88.5487 218.458 88.8967 218.194C89.2507 217.924 89.6977 217.789 90.2377 217.789C91.4677 217.789 92.0827 218.32 92.0827 219.382V219.499H91.0657C91.0537 219.217 90.9787 219.025 90.8407 218.923C90.7027 218.821 90.5077 218.77 90.2557 218.77C90.0097 218.77 89.8237 218.821 89.6977 218.923C89.5717 219.019 89.5087 219.127 89.5087 219.247C89.5087 219.589 89.6467 219.784 89.9227 219.832L91.0117 220.03C91.7797 220.174 92.1637 220.69 92.1637 221.578ZM96.9875 223H96.1145L95.8445 222.388L94.4045 223.054C94.0025 223.054 93.6515 222.907 93.3515 222.613C93.0575 222.313 92.9105 221.878 92.9105 221.308V217.861H94.0805V221.056C94.0805 221.626 94.3085 221.911 94.7645 221.911L95.8175 221.344V217.861H96.9875V223ZM102.408 220.291C102.408 221.629 102.063 222.484 101.373 222.856C101.091 223.006 100.746 223.081 100.338 223.081L99.4737 222.523V224.53H98.3037V217.897H100.608C101.304 217.897 101.778 218.095 102.03 218.491C102.282 218.881 102.408 219.481 102.408 220.291ZM101.238 220.471C101.238 219.457 100.914 218.95 100.266 218.95H99.4737V221.335L100.266 221.848C100.614 221.848 100.863 221.74 101.013 221.524C101.163 221.302 101.238 220.951 101.238 220.471Z" fill="#979797"/>
<path d="M282.318 210H281.094V204.744L280.311 204.456V203.583H281.373C281.769 203.583 282.024 203.655 282.138 203.799C282.258 203.943 282.318 204.228 282.318 204.654V210ZM288.073 206.616V206.985C288.073 207.429 288.058 207.801 288.028 208.101C287.998 208.401 287.938 208.683 287.848 208.947C287.758 209.211 287.632 209.421 287.47 209.577C287.308 209.727 287.095 209.844 286.831 209.928C286.573 210.012 286.258 210.054 285.886 210.054C285.514 210.054 285.196 210.012 284.932 209.928C284.674 209.838 284.464 209.718 284.302 209.568C284.14 209.418 284.014 209.211 283.924 208.947C283.834 208.677 283.774 208.392 283.744 208.092C283.714 207.792 283.699 207.417 283.699 206.967V206.625C283.699 205.701 283.771 205.02 283.915 204.582C284.005 204.318 284.131 204.114 284.293 203.97C284.635 203.682 285.166 203.538 285.886 203.538C286.726 203.538 287.299 203.766 287.605 204.222C287.917 204.678 288.073 205.476 288.073 206.616ZM286.867 207.264V206.265C286.861 205.671 286.795 205.254 286.669 205.014C286.543 204.774 286.282 204.654 285.886 204.654C285.49 204.654 285.229 204.774 285.103 205.014C284.977 205.248 284.911 205.653 284.905 206.229V207.264C284.911 207.906 284.974 208.347 285.094 208.587C285.214 208.821 285.481 208.938 285.895 208.938C286.309 208.938 286.573 208.824 286.687 208.596C286.801 208.368 286.861 207.924 286.867 207.264ZM290.588 208.794C290.684 208.884 290.732 209.079 290.732 209.379C290.732 209.679 290.684 209.877 290.588 209.973C290.498 210.069 290.303 210.117 290.003 210.117C289.703 210.117 289.505 210.069 289.409 209.973C289.313 209.877 289.265 209.679 289.265 209.379C289.265 209.079 289.313 208.884 289.409 208.794C289.505 208.698 289.703 208.65 290.003 208.65C290.303 208.65 290.498 208.698 290.588 208.794ZM290.57 206.292C290.666 206.382 290.714 206.577 290.714 206.877C290.714 207.177 290.666 207.375 290.57 207.471C290.48 207.567 290.285 207.615 289.985 207.615C289.685 207.615 289.487 207.567 289.391 207.471C289.295 207.375 289.247 207.177 289.247 206.877C289.247 206.577 289.295 206.382 289.391 206.292C289.487 206.196 289.685 206.148 289.985 206.148C290.285 206.148 290.48 206.196 290.57 206.292ZM294.245 210H293.021V204.744L292.238 204.456V203.583H293.3C293.696 203.583 293.951 203.655 294.065 203.799C294.185 203.943 294.245 204.228 294.245 204.654V210ZM295.959 203.7H299.352V204.699H297.111V205.707C298.035 205.707 298.668 205.896 299.01 206.274C299.358 206.652 299.532 207.204 299.532 207.93C299.532 209.346 298.848 210.054 297.48 210.054C296.85 210.054 296.376 209.889 296.058 209.559C295.746 209.229 295.59 208.788 295.59 208.236H296.733C296.733 208.338 296.745 208.44 296.769 208.542C296.799 208.638 296.871 208.737 296.985 208.839C297.099 208.935 297.252 208.983 297.444 208.983C297.762 208.983 297.993 208.896 298.137 208.722C298.287 208.542 298.362 208.332 298.362 208.092C298.362 207.852 298.344 207.663 298.308 207.525C298.278 207.387 298.209 207.246 298.101 207.102C297.885 206.802 297.402 206.652 296.652 206.652H295.959V203.7ZM307.922 210H306.617L306.257 208.893H304.106L303.755 210H302.45L304.502 204.132C304.592 203.928 304.691 203.787 304.799 203.709C304.913 203.631 305.051 203.592 305.213 203.592C305.375 203.592 305.504 203.628 305.6 203.7C305.702 203.772 305.792 203.916 305.87 204.132L307.922 210ZM305.969 207.84L305.213 205.302L304.421 207.84H305.969ZM313.535 206.175L312.383 208.605C312.215 208.929 312.005 209.091 311.753 209.091C311.507 209.091 311.3 208.92 311.132 208.578L309.962 206.175V210H308.711V203.592H309.944L311.753 207.291L313.553 203.592H314.786V210H313.535V206.175Z" fill="#979797"/>
<rect width="326" height="48" fill="#9B55F6"/>
<path d="M29.2923 16C30.119 16.8133 30.5323 18.0133 30.5323 19.6C30.5323 21.1867 30.119 22.3933 29.2923 23.22C28.479 24.0333 27.3257 24.44 25.8323 24.44H23.0923V29H20.3123V14.76H25.8323C27.3257 14.76 28.479 15.1733 29.2923 16ZM27.7523 19.6C27.7523 18.0267 27.0657 17.24 25.6923 17.24H23.0923V21.94H25.6923C26.359 21.94 26.8657 21.76 27.2123 21.4C27.5723 21.04 27.7523 20.44 27.7523 19.6ZM35.1709 29L32.5709 29.02V13.96H35.1709V29ZM45.8239 29H44.0839L43.2839 27.62L40.5039 29.12C38.9572 29.12 37.9172 28.56 37.3839 27.44C37.1172 26.8933 36.9306 26.3067 36.8239 25.68C36.7306 25.04 36.6839 24.38 36.6839 23.7C36.6839 23.0067 36.6906 22.5 36.7039 22.18C36.7172 21.8467 36.7506 21.4667 36.8039 21.04C36.8572 20.6 36.9306 20.2333 37.0239 19.94C37.1306 19.6467 37.2772 19.3467 37.4639 19.04C37.6506 18.72 37.8772 18.4667 38.1439 18.28C38.7439 17.8667 39.5239 17.66 40.4839 17.66H43.2239L45.8239 17.5V29ZM43.2239 25.36V20H41.2439C40.5106 20 39.9972 20.28 39.7039 20.84C39.4239 21.4 39.2839 22.24 39.2839 23.36C39.2839 24.4667 39.4172 25.2467 39.6839 25.7C39.9639 26.1533 40.4839 26.38 41.2439 26.38L43.2239 25.36ZM53.5275 29H51.9075C50.9208 29 50.1675 28.7067 49.6475 28.12C49.1408 27.5333 48.8875 26.8333 48.8875 26.02V20.02H47.7875V18.04H48.8875V15.8H51.4875V18.04H53.3275V20.02H51.4875V25.86C51.4875 26.4867 51.7875 26.8 52.3875 26.8H53.5275V29ZM60.5188 20H58.3988V29H55.7988V20H54.7188V18.02H55.7988V16.92C55.7988 16.1067 56.0588 15.4067 56.5788 14.82C57.0988 14.2333 57.8521 13.94 58.8388 13.94H60.5188V16.14H59.2988C58.6988 16.14 58.3988 16.4533 58.3988 17.08V18.02H60.5188V20ZM68.6947 23.84V22.8C68.6947 21.8133 68.548 21.06 68.2547 20.54C67.9747 20.02 67.3814 19.76 66.4747 19.76C65.008 19.76 64.2747 20.7467 64.2747 22.72V23.76C64.2747 25.88 65.008 26.94 66.4747 26.94C67.4214 26.94 68.0414 26.5867 68.3347 25.88C68.5747 25.32 68.6947 24.64 68.6947 23.84ZM71.2947 23.24C71.2947 25.7067 70.828 27.36 69.8947 28.2C69.108 28.92 67.968 29.28 66.4747 29.28C64.568 29.28 63.2814 28.72 62.6147 27.6C61.988 26.5733 61.6747 25.12 61.6747 23.24C61.6747 21.48 61.988 20.1 62.6147 19.1C63.308 17.98 64.568 17.42 66.3947 17.42C68.2347 17.42 69.508 17.9133 70.2147 18.9C70.9347 19.8733 71.2947 21.32 71.2947 23.24ZM79.4341 17.62L78.7141 20.18C78.5141 20.1 78.2874 20.06 78.0341 20.06C77.3674 20.06 76.5474 20.3467 75.5741 20.92V29H72.9741V17.58H74.9141L75.5141 18.58L78.2741 17.44C78.4074 17.4267 78.5874 17.42 78.8141 17.42C79.0407 17.42 79.2474 17.4867 79.4341 17.62ZM95.887 29H93.287V21.9C93.287 21.1933 93.2004 20.7 93.027 20.42C92.867 20.14 92.5804 20 92.167 20L89.827 20.98V29H87.227V21.9C87.227 20.6333 86.787 20 85.907 20L83.767 20.98V29H81.167V17.58H83.107L83.707 18.94L86.707 17.46C87.747 17.46 88.5337 17.9667 89.067 18.98L92.787 17.46C93.827 17.46 94.6004 17.8133 95.107 18.52C95.627 19.2133 95.887 20.1533 95.887 21.34V29ZM109.175 24.82L111.535 24.8C111.522 24.9067 111.508 25.1 111.495 25.38C111.482 25.66 111.468 25.8533 111.455 25.96C111.455 26.0533 111.442 26.2067 111.415 26.42C111.388 26.6333 111.355 26.7933 111.315 26.9C111.288 26.9933 111.248 27.12 111.195 27.28C110.955 27.9733 110.302 28.52 109.235 28.92C108.555 29.16 107.842 29.28 107.095 29.28C106.362 29.28 105.695 29.16 105.095 28.92C104.495 28.68 104.022 28.3733 103.675 28C102.888 27.1733 102.495 25.6267 102.495 23.36C102.495 21.08 102.888 19.5267 103.675 18.7C104.022 18.3267 104.495 18.02 105.095 17.78C105.695 17.54 106.362 17.42 107.095 17.42C108.535 17.42 109.628 17.78 110.375 18.5C111.122 19.22 111.495 20.22 111.495 21.5H109.135C109.135 20.9133 108.988 20.48 108.695 20.2C108.402 19.9067 107.855 19.76 107.055 19.76C106.268 19.76 105.742 20.0067 105.475 20.5C105.222 20.9933 105.095 21.7333 105.095 22.72V23.76C105.095 25.3467 105.402 26.32 106.015 26.68C106.295 26.8533 106.662 26.94 107.115 26.94C107.568 26.94 107.935 26.9 108.215 26.82C108.508 26.7267 108.715 26.5733 108.835 26.36C108.968 26.1467 109.055 25.94 109.095 25.74C109.135 25.5267 109.162 25.22 109.175 24.82ZM122.526 29H119.926V21.84C119.926 20.6133 119.446 20 118.486 20L116.006 20.98V29H113.406V13.96H116.006V18.94L119.306 17.46C120.479 17.46 121.306 17.7933 121.786 18.46C122.279 19.1267 122.526 20.06 122.526 21.26V29ZM132.953 29H131.213L130.413 27.62L127.633 29.12C126.086 29.12 125.046 28.56 124.513 27.44C124.246 26.8933 124.059 26.3067 123.953 25.68C123.859 25.04 123.813 24.38 123.813 23.7C123.813 23.0067 123.819 22.5 123.833 22.18C123.846 21.8467 123.879 21.4667 123.933 21.04C123.986 20.6 124.059 20.2333 124.153 19.94C124.259 19.6467 124.406 19.3467 124.593 19.04C124.779 18.72 125.006 18.4667 125.273 18.28C125.873 17.8667 126.653 17.66 127.613 17.66H130.353L132.953 17.5V29ZM130.353 25.36V20H128.373C127.639 20 127.126 20.28 126.833 20.84C126.553 21.4 126.413 22.24 126.413 23.36C126.413 24.4667 126.546 25.2467 126.813 25.7C127.093 26.1533 127.613 26.38 128.373 26.38L130.353 25.36ZM140.656 29H139.036C138.05 29 137.296 28.7067 136.776 28.12C136.27 27.5333 136.016 26.8333 136.016 26.02V20.02H134.916V18.04H136.016V15.8H138.616V18.04H140.456V20.02H138.616V25.86C138.616 26.4867 138.916 26.8 139.516 26.8H140.656V29Z" fill="white"/>
<circle cx="306" cy="15" r="3" fill="white"/>
<circle cx="306" cy="24" r="3" fill="white"/>
<circle cx="306" cy="33" r="3" fill="white"/>
</svg>
