<svg width="373" height="420" viewBox="0 0 373 420" fill="none" xmlns="http://www.w3.org/2000/svg">
<path d="M88.118 345.46L88.178 350.08C88.018 353 87.658 355.46 87.098 357.46C86.538 359.46 85.438 361.28 83.798 362.92C81.078 365.64 77.118 367 71.918 367C65.798 367 61.598 366.2 59.318 364.6C57.038 362.96 55.898 360.02 55.898 355.78V324.28H72.518C77.318 324.28 81.078 325.64 83.798 328.36C85.998 330.56 87.298 333.24 87.698 336.4C87.978 338.64 88.118 341.66 88.118 345.46ZM77.978 356.92C78.738 356 79.218 354.74 79.418 353.14C79.658 351.5 79.778 348.96 79.778 345.52C79.778 342.08 79.658 339.6 79.418 338.08C79.218 336.52 78.738 335.28 77.978 334.36C76.538 332.6 74.458 331.72 71.738 331.72H64.238V355.36C64.238 356.96 64.778 358.06 65.858 358.66C66.938 359.26 68.858 359.56 71.618 359.56C74.418 359.56 76.538 358.68 77.978 356.92ZM120.529 351.7H100.549C100.549 354.82 101.029 357.1 101.989 358.54C102.989 359.98 104.969 360.7 107.929 360.7C109.849 360.7 111.269 360.1 112.189 358.9C113.109 357.66 113.569 356.48 113.569 355.36H120.589C120.589 359.64 119.429 362.78 117.109 364.78C114.829 366.78 111.789 367.78 107.989 367.78C104.229 367.78 101.309 367.24 99.2288 366.16C94.9488 363.96 92.8088 358.12 92.8088 348.64C92.8088 343 94.0288 338.88 96.4688 336.28C98.9088 333.64 102.629 332.32 107.629 332.32C116.309 332.32 120.649 337.14 120.649 346.78C120.649 347.82 120.609 349.46 120.529 351.7ZM100.729 346.36H113.569C113.569 343.72 113.069 341.8 112.069 340.6C111.069 339.4 109.529 338.8 107.449 338.8C105.409 338.8 103.769 339.42 102.529 340.66C101.329 341.86 100.729 343.76 100.729 346.36ZM152.68 332.74L141.22 367H135.1L123.58 332.74H131.8L138.16 355.06L144.46 332.74H152.68ZM182.99 351.7H163.01C163.01 354.82 163.49 357.1 164.45 358.54C165.45 359.98 167.43 360.7 170.39 360.7C172.31 360.7 173.73 360.1 174.65 358.9C175.57 357.66 176.03 356.48 176.03 355.36H183.05C183.05 359.64 181.89 362.78 179.57 364.78C177.29 366.78 174.25 367.78 170.45 367.78C166.69 367.78 163.77 367.24 161.69 366.16C157.41 363.96 155.27 358.12 155.27 348.64C155.27 343 156.49 338.88 158.93 336.28C161.37 333.64 165.09 332.32 170.09 332.32C178.77 332.32 183.11 337.14 183.11 346.78C183.11 347.82 183.07 349.46 182.99 351.7ZM163.19 346.36H176.03C176.03 343.72 175.53 341.8 174.53 340.6C173.53 339.4 171.99 338.8 169.91 338.8C167.87 338.8 166.23 339.42 164.99 340.66C163.79 341.86 163.19 343.76 163.19 346.36ZM197.681 367L189.881 367.06V321.88H197.681V367ZM224.6 351.52V348.4C224.6 345.44 224.16 343.18 223.28 341.62C222.44 340.06 220.66 339.28 217.94 339.28C213.54 339.28 211.34 342.24 211.34 348.16V351.28C211.34 357.64 213.54 360.82 217.94 360.82C220.78 360.82 222.64 359.76 223.52 357.64C224.24 355.96 224.6 353.92 224.6 351.52ZM232.4 349.72C232.4 357.12 231 362.08 228.2 364.6C225.84 366.76 222.42 367.84 217.94 367.84C212.22 367.84 208.36 366.16 206.36 362.8C204.48 359.72 203.54 355.36 203.54 349.72C203.54 344.44 204.48 340.3 206.36 337.3C208.44 333.94 212.22 332.26 217.7 332.26C223.22 332.26 227.04 333.74 229.16 336.7C231.32 339.62 232.4 343.96 232.4 349.72ZM265.998 348.94C265.998 357.86 263.698 363.56 259.098 366.04C257.218 367.04 254.918 367.54 252.198 367.54L246.438 363.82V377.2H238.638V332.98H253.998C258.638 332.98 261.798 334.3 263.478 336.94C265.158 339.54 265.998 343.54 265.998 348.94ZM258.198 350.14C258.198 343.38 256.038 340 251.718 340H246.438V355.9L251.718 359.32C254.038 359.32 255.698 358.6 256.698 357.16C257.698 355.68 258.198 353.34 258.198 350.14ZM297.892 351.7H277.912C277.912 354.82 278.392 357.1 279.352 358.54C280.352 359.98 282.332 360.7 285.292 360.7C287.212 360.7 288.632 360.1 289.552 358.9C290.472 357.66 290.932 356.48 290.932 355.36H297.952C297.952 359.64 296.792 362.78 294.472 364.78C292.192 366.78 289.152 367.78 285.352 367.78C281.592 367.78 278.672 367.24 276.592 366.16C272.312 363.96 270.172 358.12 270.172 348.64C270.172 343 271.392 338.88 273.832 336.28C276.272 333.64 279.992 332.32 284.992 332.32C293.672 332.32 298.012 337.14 298.012 346.78C298.012 347.82 297.972 349.46 297.892 351.7ZM278.092 346.36H290.932C290.932 343.72 290.432 341.8 289.432 340.6C288.432 339.4 286.892 338.8 284.812 338.8C282.772 338.8 281.132 339.42 279.892 340.66C278.692 341.86 278.092 343.76 278.092 346.36ZM323.263 332.86L321.103 340.54C320.503 340.3 319.823 340.18 319.063 340.18C317.063 340.18 314.603 341.04 311.683 342.76V367H303.883V332.74H309.703L311.503 335.74L319.783 332.32C320.183 332.28 320.723 332.26 321.403 332.26C322.083 332.26 322.703 332.46 323.263 332.86Z" fill="#9B55F6"/>
<rect x="2.5" y="60.5" width="368" height="357" rx="44.5" stroke="url(#paint0_linear_30_72)" stroke-width="5"/>
<path d="M140.993 251.4V274.8L71.6933 240.78V221.7L140.993 187.86V211.26L95.6333 231.42L140.993 251.4ZM226.104 140.52L174.804 295.32H152.844L204.144 140.52H226.104ZM235.521 274.8V251.4L280.881 231.42L235.521 211.26V187.86L304.821 221.7V240.78L235.521 274.8Z" fill="url(#paint1_linear_30_72)"/>
<defs>
<linearGradient id="paint0_linear_30_72" x1="186.5" y1="58" x2="186.5" y2="420" gradientUnits="userSpaceOnUse">
<stop stop-color="#4200FF"/>
<stop offset="1" stop-color="#FE7478"/>
</linearGradient>
<linearGradient id="paint1_linear_30_72" x1="188" y1="99" x2="188" y2="306" gradientUnits="userSpaceOnUse">
<stop stop-color="#4200FF"/>
<stop offset="0.505208" stop-color="#9B55F6"/>
<stop offset="1" stop-color="#FE7478"/>
</linearGradient>
</defs>
</svg>
