<svg width="273" height="289" viewBox="0 0 273 289" fill="none" xmlns="http://www.w3.org/2000/svg">
<path d="M167.521 42.8758H77.8668C67.3893 42.8758 60.0075 44.8352 55.7212 48.7539C51.6731 52.6727 49.649 59.4729 49.649 69.1545V103.386H142.875L139.303 146.262H49.649V246.19H0V50.137C0 31.9263 4.04812 19.0175 12.1444 11.4105C20.4787 3.8035 34.6472 0 54.6497 0H167.521V42.8758Z" fill="#4100FF"/>
<path d="M273 102.941H136.929V144.105H273V102.941Z" fill="#4200FF"/>
<path d="M174.348 242.897V111.174H131.826V242.897H174.348Z" fill="#4200FF"/>
<path d="M235.012 210.296C235.012 230.252 227.46 245.96 212.356 257.419C197.252 268.682 177.964 274.313 154.492 274.313C135.918 274.313 117.957 269.373 100.608 259.494C92.0353 254.357 84.9936 247.145 79.4827 237.859C73.9718 228.375 71.2163 217.606 71.2163 205.554L109.793 203.775C109.793 214.445 114.487 222.743 123.876 228.671C133.265 234.598 143.674 237.562 155.104 237.562C180.618 237.562 193.374 228.869 193.374 211.481C193.374 197.255 184.7 188.858 167.351 186.289L131.836 182.733C114.079 180.164 99.9954 174.039 89.586 164.357C79.1765 154.676 73.9718 140.746 73.9718 122.568C73.9718 104.39 81.4217 89.374 96.3215 77.5189C111.221 65.6639 129.999 59.7363 152.655 59.7363C175.515 59.7363 193.885 65.3675 207.764 76.6298C221.643 87.6945 228.583 102.019 228.583 119.604L190.619 121.383C187.149 104.193 175.209 95.5979 154.798 95.5979C142.348 95.5979 132.551 98.1665 125.407 103.304C118.467 108.441 114.997 114.566 114.997 121.679C114.997 128.594 117.549 134.127 122.651 138.276C127.754 142.228 134.081 144.698 141.633 145.686L176.536 149.242C215.52 154.379 235.012 174.73 235.012 210.296Z" fill="#9B55F6"/>
<path d="M174.348 289V203.38H131.826V289H174.348Z" fill="#4200FF"/>
<path d="M273 102.941H153.938V137.519H273V102.941Z" fill="#4200FF"/>
</svg>
