<svg width="373" height="420" viewBox="0 0 373 420" fill="none" xmlns="http://www.w3.org/2000/svg">
<path d="M133.443 367H123.783L115.443 351.16H109.443V367H101.103V333.46C101.103 330.26 101.843 327.94 103.323 326.5C104.803 325.02 107.283 324.28 110.763 324.28H117.843C122.083 324.28 125.443 325.58 127.923 328.18C130.443 330.74 131.703 334 131.703 337.96C131.703 340.84 130.943 343.34 129.423 345.46C127.943 347.54 126.103 348.98 123.903 349.78L133.443 367ZM117.303 344.2C119.063 344.2 120.503 343.6 121.623 342.4C122.783 341.16 123.363 339.64 123.363 337.84C123.363 336 122.803 334.52 121.683 333.4C120.603 332.28 119.143 331.72 117.303 331.72H113.163C110.683 331.72 109.443 332.98 109.443 335.5V344.2H117.303ZM165.441 351.7H145.461C145.461 354.82 145.941 357.1 146.901 358.54C147.901 359.98 149.881 360.7 152.841 360.7C154.761 360.7 156.181 360.1 157.101 358.9C158.021 357.66 158.481 356.48 158.481 355.36H165.501C165.501 359.64 164.341 362.78 162.021 364.78C159.741 366.78 156.701 367.78 152.901 367.78C149.141 367.78 146.221 367.24 144.141 366.16C139.861 363.96 137.721 358.12 137.721 348.64C137.721 343 138.941 338.88 141.381 336.28C143.821 333.64 147.541 332.32 152.541 332.32C161.221 332.32 165.561 337.14 165.561 346.78C165.561 347.82 165.521 349.46 165.441 351.7ZM145.641 346.36H158.481C158.481 343.72 157.981 341.8 156.981 340.6C155.981 339.4 154.441 338.8 152.361 338.8C150.321 338.8 148.681 339.42 147.441 340.66C146.241 341.86 145.641 343.76 145.641 346.36ZM199.992 348.94C199.992 357.86 197.692 363.56 193.092 366.04C191.212 367.04 188.912 367.54 186.192 367.54L180.432 363.82V377.2H172.632V332.98H187.992C192.632 332.98 195.792 334.3 197.472 336.94C199.152 339.54 199.992 343.54 199.992 348.94ZM192.192 350.14C192.192 343.38 190.032 340 185.712 340H180.432V355.9L185.712 359.32C188.032 359.32 189.692 358.6 190.692 357.16C191.692 355.68 192.192 353.34 192.192 350.14ZM224.746 351.52V348.4C224.746 345.44 224.306 343.18 223.426 341.62C222.586 340.06 220.806 339.28 218.086 339.28C213.686 339.28 211.486 342.24 211.486 348.16V351.28C211.486 357.64 213.686 360.82 218.086 360.82C220.926 360.82 222.786 359.76 223.666 357.64C224.386 355.96 224.746 353.92 224.746 351.52ZM232.546 349.72C232.546 357.12 231.146 362.08 228.346 364.6C225.986 366.76 222.566 367.84 218.086 367.84C212.366 367.84 208.506 366.16 206.506 362.8C204.626 359.72 203.686 355.36 203.686 349.72C203.686 344.44 204.626 340.3 206.506 337.3C208.586 333.94 212.366 332.26 217.846 332.26C223.366 332.26 227.186 333.74 229.306 336.7C231.466 339.62 232.546 343.96 232.546 349.72ZM256.964 332.86L254.804 340.54C254.204 340.3 253.524 340.18 252.764 340.18C250.764 340.18 248.304 341.04 245.384 342.76V367H237.584V332.74H243.404L245.204 335.74L253.484 332.32C253.884 332.28 254.424 332.26 255.104 332.26C255.784 332.26 256.404 332.46 256.964 332.86ZM276.803 367H271.943C268.983 367 266.723 366.12 265.163 364.36C263.643 362.6 262.883 360.5 262.883 358.06V340.06H259.583V334.12H262.883V327.4H270.683V334.12H276.203V340.06H270.683V357.58C270.683 359.46 271.583 360.4 273.383 360.4H276.803V367Z" fill="#9B55F6"/>
<rect x="2.5" y="60.5" width="368" height="357" rx="44.5" stroke="url(#paint0_linear_30_72)" stroke-width="5"/>
<path d="M125.361 216.673C121.935 216.035 120.966 211.583 123.8 209.501L246.763 119.167C249.093 117.455 252.379 118.684 252.991 121.497L278.681 239.53C279.293 242.343 276.831 244.897 274.014 244.372L125.361 216.673Z" fill="url(#paint1_linear_30_72)"/>
<rect width="112.469" height="48.4906" rx="10" transform="matrix(0.970573 -0.240807 0.228002 0.973661 106.205 194.6)" fill="url(#paint2_linear_30_72)"/>
<rect width="93.2373" height="26.0217" rx="13.0108" transform="matrix(0.235016 0.971991 -0.968717 0.248167 146.156 194.916)" fill="url(#paint3_linear_30_72)"/>
<defs>
<linearGradient id="paint0_linear_30_72" x1="186.5" y1="58" x2="186.5" y2="420" gradientUnits="userSpaceOnUse">
<stop stop-color="#4200FF"/>
<stop offset="1" stop-color="#FE7478"/>
</linearGradient>
<linearGradient id="paint1_linear_30_72" x1="116.328" y1="214.99" x2="262.542" y2="182.932" gradientUnits="userSpaceOnUse">
<stop stop-color="#4200FF"/>
<stop offset="0.702829" stop-color="#9B55F6"/>
<stop offset="1" stop-color="#FE7478"/>
</linearGradient>
<linearGradient id="paint2_linear_30_72" x1="109.747" y1="19.569" x2="-0.457825" y2="17.2068" gradientUnits="userSpaceOnUse">
<stop stop-color="#9B55F6"/>
<stop offset="0.981586" stop-color="#4200FF"/>
</linearGradient>
<linearGradient id="paint3_linear_30_72" x1="43.5545" y1="24.0455" x2="43.129" y2="-3.74397" gradientUnits="userSpaceOnUse">
<stop stop-color="#4200FF"/>
<stop offset="0.965138" stop-color="#6420FB"/>
</linearGradient>
</defs>
</svg>
