<svg width="150" height="150" viewBox="0 0 150 150" fill="none" xmlns="http://www.w3.org/2000/svg">
<circle cx="75" cy="75" r="75" fill="url(#paint0_linear_65_144)"/>
<circle cx="74.5" cy="75.5" r="59.5" fill="white"/>
<path d="M48.1315 44.105C48.1315 45.359 47.7895 46.3217 47.1055 46.993C46.4342 47.6643 45.4905 48 44.2745 48H42.4505C40.9558 48 39.8918 47.7403 39.2585 47.221C38.6378 46.7017 38.3275 45.8023 38.3275 44.523V34.472H44.0465C45.3385 34.472 46.3075 34.795 46.9535 35.441C47.6122 36.087 47.9415 36.999 47.9415 38.177C47.9415 38.861 47.7642 39.4437 47.4095 39.925C47.0675 40.4063 46.6875 40.7483 46.2695 40.951C47.5108 41.5337 48.1315 42.585 48.1315 44.105ZM43.8375 39.754C44.8128 39.754 45.3005 39.2663 45.3005 38.291C45.3005 37.3157 44.8128 36.828 43.8375 36.828H40.9685V39.754H43.8375ZM45.4905 43.972C45.4905 43.364 45.3828 42.908 45.1675 42.604C44.9522 42.2873 44.5658 42.129 44.0085 42.129H40.9685V44.257C40.9685 44.7763 41.0952 45.1373 41.3485 45.34C41.6145 45.5427 42.0452 45.644 42.6405 45.644H44.0085C44.9965 45.644 45.4905 45.0867 45.4905 43.972ZM58.7753 43.155H52.4483C52.4483 44.143 52.6003 44.865 52.9043 45.321C53.221 45.777 53.848 46.005 54.7853 46.005C55.3933 46.005 55.843 45.815 56.1343 45.435C56.4257 45.0423 56.5713 44.6687 56.5713 44.314H58.7943C58.7943 45.6693 58.427 46.6637 57.6923 47.297C56.9703 47.9303 56.0077 48.247 54.8043 48.247C53.6137 48.247 52.689 48.076 52.0303 47.734C50.675 47.0373 49.9973 45.188 49.9973 42.186C49.9973 40.4 50.3837 39.0953 51.1563 38.272C51.929 37.436 53.107 37.018 54.6903 37.018C57.439 37.018 58.8133 38.5443 58.8133 41.597C58.8133 41.9263 58.8007 42.4457 58.7753 43.155ZM52.5053 41.464H56.5713C56.5713 40.628 56.413 40.02 56.0963 39.64C55.7797 39.26 55.292 39.07 54.6333 39.07C53.9873 39.07 53.468 39.2663 53.0753 39.659C52.6953 40.039 52.5053 40.6407 52.5053 41.464ZM65.6885 48H64.1495C63.2122 48 62.4965 47.7213 62.0025 47.164C61.5212 46.6067 61.2805 45.9417 61.2805 45.169V39.469H60.2355V37.588H61.2805V35.46H63.7505V37.588H65.4985V39.469H63.7505V45.017C63.7505 45.6123 64.0355 45.91 64.6055 45.91H65.6885V48ZM72.3682 48H70.8292C69.8919 48 69.1762 47.7213 68.6822 47.164C68.2009 46.6067 67.9602 45.9417 67.9602 45.169V39.469H66.9152V37.588H67.9602V35.46H70.4302V37.588H72.1782V39.469H70.4302V45.017C70.4302 45.6123 70.7152 45.91 71.2852 45.91H72.3682V48ZM82.5439 43.155H76.2169C76.2169 44.143 76.3689 44.865 76.6729 45.321C76.9896 45.777 77.6166 46.005 78.5539 46.005C79.1619 46.005 79.6116 45.815 79.9029 45.435C80.1942 45.0423 80.3399 44.6687 80.3399 44.314H82.5629C82.5629 45.6693 82.1956 46.6637 81.4609 47.297C80.7389 47.9303 79.7762 48.247 78.5729 48.247C77.3822 48.247 76.4576 48.076 75.7989 47.734C74.4436 47.0373 73.7659 45.188 73.7659 42.186C73.7659 40.4 74.1522 39.0953 74.9249 38.272C75.6976 37.436 76.8756 37.018 78.4589 37.018C81.2076 37.018 82.5819 38.5443 82.5819 41.597C82.5819 41.9263 82.5692 42.4457 82.5439 43.155ZM76.2739 41.464H80.3399C80.3399 40.628 80.1816 40.02 79.8649 39.64C79.5482 39.26 79.0606 39.07 78.4019 39.07C77.7559 39.07 77.2366 39.2663 76.8439 39.659C76.4639 40.039 76.2739 40.6407 76.2739 41.464ZM90.5781 37.189L89.8941 39.621C89.7041 39.545 89.4887 39.507 89.2481 39.507C88.6147 39.507 87.8357 39.7793 86.9111 40.324V48H84.4411V37.151H86.2841L86.8541 38.101L89.4761 37.018C89.6027 37.0053 89.7737 36.999 89.9891 36.999C90.2044 36.999 90.4007 37.0623 90.5781 37.189ZM101.276 48H99.7374C98.8001 48 98.0844 47.7213 97.5904 47.164C97.1091 46.6067 96.8684 45.9417 96.8684 45.169V39.469H95.8234V37.588H96.8684V35.46H99.3384V37.588H101.086V39.469H99.3384V45.017C99.3384 45.6123 99.6234 45.91 100.193 45.91H101.276V48ZM109.191 43.098V42.11C109.191 41.1727 109.052 40.457 108.773 39.963C108.507 39.469 107.943 39.222 107.082 39.222C105.689 39.222 104.992 40.1593 104.992 42.034V43.022C104.992 45.036 105.689 46.043 107.082 46.043C107.981 46.043 108.57 45.7073 108.849 45.036C109.077 44.504 109.191 43.858 109.191 43.098ZM111.661 42.528C111.661 44.8713 111.218 46.442 110.331 47.24C109.584 47.924 108.501 48.266 107.082 48.266C105.271 48.266 104.048 47.734 103.415 46.67C102.82 45.6947 102.522 44.314 102.522 42.528C102.522 40.856 102.82 39.545 103.415 38.595C104.074 37.531 105.271 36.999 107.006 36.999C108.754 36.999 109.964 37.4677 110.635 38.405C111.319 39.3297 111.661 40.704 111.661 42.528ZM54.3145 74H52.7755C51.8382 74 51.1225 73.7213 50.6285 73.164C50.1472 72.6067 49.9065 71.9417 49.9065 71.169V65.469H48.8615V63.588H49.9065V61.46H52.3765V63.588H54.1245V65.469H52.3765V71.017C52.3765 71.6123 52.6615 71.91 53.2315 71.91H54.3145V74ZM63.8252 74H62.1722L61.4122 72.689L58.7712 74.114C57.3019 74.114 56.3139 73.582 55.8072 72.518C55.5539 71.9987 55.3765 71.4413 55.2752 70.846C55.1865 70.238 55.1422 69.611 55.1422 68.965C55.1422 68.3063 55.1485 67.825 55.1612 67.521C55.1739 67.2043 55.2055 66.8433 55.2562 66.438C55.3069 66.02 55.3765 65.6717 55.4652 65.393C55.5665 65.1143 55.7059 64.8293 55.8832 64.538C56.0605 64.234 56.2759 63.9933 56.5292 63.816C57.0992 63.4233 57.8402 63.227 58.7522 63.227H61.3552L63.8252 63.075V74ZM61.3552 70.542V65.45H59.4742C58.7775 65.45 58.2899 65.716 58.0112 66.248C57.7452 66.78 57.6122 67.578 57.6122 68.642C57.6122 69.6933 57.7389 70.4343 57.9922 70.865C58.2582 71.2957 58.7522 71.511 59.4742 71.511L61.3552 70.542ZM75.8366 74H72.8726L70.0226 70.162L68.9396 71.701V74H66.4696V59.712H68.9396V68.737L72.3976 63.588H75.1906L71.6376 68.452L75.8366 74ZM85.2529 69.155H78.9259C78.9259 70.143 79.0779 70.865 79.3819 71.321C79.6986 71.777 80.3256 72.005 81.2629 72.005C81.8709 72.005 82.3206 71.815 82.6119 71.435C82.9032 71.0423 83.0489 70.6687 83.0489 70.314H85.2719C85.2719 71.6693 84.9046 72.6637 84.1699 73.297C83.4479 73.9303 82.4852 74.247 81.2819 74.247C80.0912 74.247 79.1666 74.076 78.5079 73.734C77.1526 73.0373 76.4749 71.188 76.4749 68.186C76.4749 66.4 76.8612 65.0953 77.6339 64.272C78.4066 63.436 79.5846 63.018 81.1679 63.018C83.9166 63.018 85.2909 64.5443 85.2909 67.597C85.2909 67.9263 85.2782 68.4457 85.2529 69.155ZM78.9829 67.464H83.0489C83.0489 66.628 82.8906 66.02 82.5739 65.64C82.2572 65.26 81.7696 65.07 81.1109 65.07C80.4649 65.07 79.9456 65.2663 79.5529 65.659C79.1729 66.039 78.9829 66.6407 78.9829 67.464ZM99.4131 74H97.7601L97.0001 72.689L94.3591 74.114C92.8897 74.114 91.9017 73.582 91.3951 72.518C91.1417 71.9987 90.9644 71.4413 90.8631 70.846C90.7744 70.238 90.7301 69.611 90.7301 68.965C90.7301 68.3063 90.7364 67.825 90.7491 67.521C90.7617 67.2043 90.7934 66.8433 90.8441 66.438C90.8947 66.02 90.9644 65.6717 91.0531 65.393C91.1544 65.1143 91.2937 64.8293 91.4711 64.538C91.6484 64.234 91.8637 63.9933 92.1171 63.816C92.6871 63.4233 93.4281 63.227 94.3401 63.227H96.9431L99.4131 63.075V74ZM96.9431 70.542V65.45H95.0621C94.3654 65.45 93.8777 65.716 93.5991 66.248C93.3331 66.78 93.2001 67.578 93.2001 68.642C93.2001 69.6933 93.3267 70.4343 93.5801 70.865C93.8461 71.2957 94.3401 71.511 95.0621 71.511L96.9431 70.542ZM50.0479 96.998V97.283C49.9719 98.233 49.5666 98.9487 48.8319 99.43C48.1099 99.9113 47.2042 100.152 46.1149 100.152C44.5062 100.152 43.3789 99.8607 42.7329 99.278C42.1376 98.746 41.8399 97.9607 41.8399 96.922V96.694H44.0819C44.0819 97.2767 44.2339 97.6757 44.5379 97.891C44.8419 98.1063 45.3676 98.214 46.1149 98.214C47.1282 98.214 47.6349 97.8467 47.6349 97.112C47.6349 96.504 47.4576 96.0987 47.1029 95.896C46.9382 95.7947 46.7292 95.7187 46.4759 95.668L44.5569 95.345C42.8849 95.079 42.0489 94.034 42.0489 92.21C42.0489 91.1967 42.4162 90.4113 43.1509 89.854C43.8982 89.284 44.8419 88.999 45.9819 88.999C48.5786 88.999 49.8769 90.12 49.8769 92.362V92.609H47.7299C47.7046 92.0137 47.5462 91.6083 47.2549 91.393C46.9636 91.1777 46.5519 91.07 46.0199 91.07C45.5006 91.07 45.1079 91.1777 44.8419 91.393C44.5759 91.5957 44.4429 91.8237 44.4429 92.077C44.4429 92.799 44.7342 93.2107 45.3169 93.312L47.6159 93.73C49.2372 94.034 50.0479 95.1233 50.0479 96.998ZM57.6664 96.029L59.9084 96.01C59.8958 96.1113 59.8831 96.295 59.8704 96.561C59.8578 96.827 59.8451 97.0107 59.8324 97.112C59.8324 97.2007 59.8198 97.3463 59.7944 97.549C59.7691 97.7517 59.7374 97.9037 59.6994 98.005C59.6741 98.0937 59.6361 98.214 59.5854 98.366C59.3574 99.0247 58.7368 99.544 57.7234 99.924C57.0774 100.152 56.3998 100.266 55.6904 100.266C54.9938 100.266 54.3604 100.152 53.7904 99.924C53.2204 99.696 52.7708 99.4047 52.4414 99.05C51.6941 98.2647 51.3204 96.7953 51.3204 94.642C51.3204 92.476 51.6941 91.0003 52.4414 90.215C52.7708 89.8603 53.2204 89.569 53.7904 89.341C54.3604 89.113 54.9938 88.999 55.6904 88.999C57.0584 88.999 58.0971 89.341 58.8064 90.025C59.5158 90.709 59.8704 91.659 59.8704 92.875H57.6284C57.6284 92.3177 57.4891 91.906 57.2104 91.64C56.9318 91.3613 56.4124 91.222 55.6524 91.222C54.9051 91.222 54.4048 91.4563 54.1514 91.925C53.9108 92.3937 53.7904 93.0967 53.7904 94.034V95.022C53.7904 96.5293 54.0818 97.454 54.6644 97.796C54.9304 97.9607 55.2788 98.043 55.7094 98.043C56.1401 98.043 56.4884 98.005 56.7544 97.929C57.0331 97.8403 57.2294 97.6947 57.3434 97.492C57.4701 97.2893 57.5524 97.093 57.5904 96.903C57.6284 96.7003 57.6538 96.409 57.6664 96.029ZM67.728 89.189L67.044 91.621C66.854 91.545 66.6387 91.507 66.398 91.507C65.7647 91.507 64.9857 91.7793 64.061 92.324V100H61.591V89.151H63.434L64.004 90.101L66.626 89.018C66.7527 89.0053 66.9237 88.999 67.139 88.999C67.3543 88.999 67.5507 89.0623 67.728 89.189ZM77.5063 95.155H71.1793C71.1793 96.143 71.3313 96.865 71.6353 97.321C71.952 97.777 72.579 98.005 73.5163 98.005C74.1243 98.005 74.574 97.815 74.8653 97.435C75.1566 97.0423 75.3023 96.6687 75.3023 96.314H77.5253C77.5253 97.6693 77.158 98.6637 76.4233 99.297C75.7013 99.9303 74.7386 100.247 73.5353 100.247C72.3446 100.247 71.42 100.076 70.7613 99.734C69.406 99.0373 68.7283 97.188 68.7283 94.186C68.7283 92.4 69.1146 91.0953 69.8873 90.272C70.66 89.436 71.838 89.018 73.4213 89.018C76.17 89.018 77.5443 90.5443 77.5443 93.597C77.5443 93.9263 77.5316 94.4457 77.5063 95.155ZM71.2363 93.464H75.3023C75.3023 92.628 75.144 92.02 74.8273 91.64C74.5106 91.26 74.023 91.07 73.3643 91.07C72.7183 91.07 72.199 91.2663 71.8063 91.659C71.4263 92.039 71.2363 92.6407 71.2363 93.464ZM87.9155 95.155H81.5885C81.5885 96.143 81.7405 96.865 82.0445 97.321C82.3612 97.777 82.9882 98.005 83.9255 98.005C84.5335 98.005 84.9832 97.815 85.2745 97.435C85.5658 97.0423 85.7115 96.6687 85.7115 96.314H87.9345C87.9345 97.6693 87.5672 98.6637 86.8325 99.297C86.1105 99.9303 85.1478 100.247 83.9445 100.247C82.7538 100.247 81.8292 100.076 81.1705 99.734C79.8152 99.0373 79.1375 97.188 79.1375 94.186C79.1375 92.4 79.5238 91.0953 80.2965 90.272C81.0692 89.436 82.2472 89.018 83.8305 89.018C86.5792 89.018 87.9535 90.5443 87.9535 93.597C87.9535 93.9263 87.9408 94.4457 87.9155 95.155ZM81.6455 93.464H85.7115C85.7115 92.628 85.5532 92.02 85.2365 91.64C84.9198 91.26 84.4322 91.07 83.7735 91.07C83.1275 91.07 82.6082 91.2663 82.2155 91.659C81.8355 92.039 81.6455 92.6407 81.6455 93.464ZM98.6097 100H96.1397V93.065C96.1397 92.4443 96.013 92.02 95.7597 91.792C95.5063 91.564 95.1517 91.45 94.6957 91.45L92.4727 92.381V100H90.0027V89.151H91.8457L92.4157 90.443L95.4557 89.037C96.3043 89.037 97.039 89.3537 97.6597 89.987C98.293 90.6077 98.6097 91.5197 98.6097 92.723V100ZM106.67 95.725H100.818V93.426H106.67V95.725ZM64.669 122.998V123.283C64.593 124.233 64.1877 124.949 63.453 125.43C62.731 125.911 61.8253 126.152 60.736 126.152C59.1273 126.152 58 125.861 57.354 125.278C56.7587 124.746 56.461 123.961 56.461 122.922V122.694H58.703C58.703 123.277 58.855 123.676 59.159 123.891C59.463 124.106 59.9887 124.214 60.736 124.214C61.7493 124.214 62.256 123.847 62.256 123.112C62.256 122.504 62.0787 122.099 61.724 121.896C61.5593 121.795 61.3503 121.719 61.097 121.668L59.178 121.345C57.506 121.079 56.67 120.034 56.67 118.21C56.67 117.197 57.0373 116.411 57.772 115.854C58.5193 115.284 59.463 114.999 60.603 114.999C63.1997 114.999 64.498 116.12 64.498 118.362V118.609H62.351C62.3257 118.014 62.1673 117.608 61.876 117.393C61.5847 117.178 61.173 117.07 60.641 117.07C60.1217 117.07 59.729 117.178 59.463 117.393C59.197 117.596 59.064 117.824 59.064 118.077C59.064 118.799 59.3553 119.211 59.938 119.312L62.237 119.73C63.8583 120.034 64.669 121.123 64.669 122.998ZM75.1185 126H72.6485V119.198C72.6485 118.033 72.1925 117.45 71.2805 117.45L68.9245 118.381V126H66.4545V111.712H68.9245V116.443L72.0595 115.037C73.1742 115.037 73.9595 115.354 74.4155 115.987C74.8842 116.62 75.1185 117.507 75.1185 118.647V126ZM83.4279 121.098V120.11C83.4279 119.173 83.2886 118.457 83.0099 117.963C82.7439 117.469 82.1803 117.222 81.3189 117.222C79.9256 117.222 79.2289 118.159 79.2289 120.034V121.022C79.2289 123.036 79.9256 124.043 81.3189 124.043C82.2183 124.043 82.8073 123.707 83.0859 123.036C83.3139 122.504 83.4279 121.858 83.4279 121.098ZM85.8979 120.528C85.8979 122.871 85.4546 124.442 84.5679 125.24C83.8206 125.924 82.7376 126.266 81.3189 126.266C79.5076 126.266 78.2853 125.734 77.6519 124.67C77.0566 123.695 76.7589 122.314 76.7589 120.528C76.7589 118.856 77.0566 117.545 77.6519 116.595C78.3106 115.531 79.5076 114.999 81.2429 114.999C82.9909 114.999 84.2006 115.468 84.8719 116.405C85.5559 117.33 85.8979 118.704 85.8979 120.528ZM92.5093 126H90.9703C90.033 126 89.3173 125.721 88.8233 125.164C88.342 124.607 88.1013 123.942 88.1013 123.169V117.469H87.0563V115.588H88.1013V113.46H90.5713V115.588H92.3193V117.469H90.5713V123.017C90.5713 123.612 90.8563 123.91 91.4263 123.91H92.5093V126Z" fill="#7820EB"/>
<defs>
<linearGradient id="paint0_linear_65_144" x1="75" y1="0" x2="75" y2="150" gradientUnits="userSpaceOnUse">
<stop stop-color="#7820EB"/>
<stop offset="0.5" stop-color="#9B55F6"/>
<stop offset="1" stop-color="#FE7478"/>
</linearGradient>
</defs>
</svg>
