<svg width="150" height="150" viewBox="0 0 150 150" fill="none" xmlns="http://www.w3.org/2000/svg">
<circle cx="75" cy="75" r="75" fill="url(#paint0_linear_65_138)"/>
<circle cx="74.5" cy="75.5" r="59.5" fill="white"/>
<path d="M51.3148 53.032H53.6368C53.6368 54.664 53.2288 55.918 52.4128 56.794C51.5968 57.67 50.4448 58.108 48.9568 58.108C45.6808 58.108 44.0428 56.182 44.0428 52.33V51.25C44.0428 48.214 44.8828 46.312 46.5628 45.544C47.2228 45.232 48.0208 45.076 48.9568 45.076C50.3248 45.076 51.4348 45.454 52.2868 46.21C53.1508 46.954 53.5828 48.034 53.5828 49.45H51.2428C51.1108 48.742 50.8768 48.208 50.5408 47.848C50.2048 47.488 49.6768 47.308 48.9568 47.308C48.1168 47.308 47.4928 47.572 47.0848 48.1C46.7968 48.472 46.6288 49.108 46.5808 50.008C46.5568 50.296 46.5448 50.686 46.5448 51.178V52.294C46.5448 53.674 46.7368 54.616 47.1208 55.12C47.5168 55.624 48.1288 55.876 48.9568 55.876C49.7968 55.876 50.3728 55.648 50.6848 55.192C51.0088 54.724 51.2188 54.004 51.3148 53.032ZM57.8384 58L55.4984 58.018V44.464H57.8384V58ZM61.5401 43.798C62.1041 43.798 62.4701 43.888 62.6381 44.068C62.8061 44.236 62.8901 44.602 62.8901 45.166C62.8901 45.718 62.8001 46.084 62.6201 46.264C62.4521 46.432 62.0861 46.516 61.5221 46.516C60.9701 46.516 60.6041 46.426 60.4241 46.246C60.2561 46.066 60.1721 45.7 60.1721 45.148C60.1721 44.596 60.2561 44.236 60.4241 44.068C60.6041 43.888 60.9761 43.798 61.5401 43.798ZM62.6921 58H60.3521V48.1H62.6921V58ZM70.5651 54.238L72.6891 54.22C72.6771 54.316 72.6651 54.49 72.6531 54.742C72.6411 54.994 72.6291 55.168 72.6171 55.264C72.6171 55.348 72.6051 55.486 72.5811 55.678C72.5571 55.87 72.5271 56.014 72.4911 56.11C72.4671 56.194 72.4311 56.308 72.3831 56.452C72.1671 57.076 71.5791 57.568 70.6191 57.928C70.0071 58.144 69.3651 58.252 68.6931 58.252C68.0331 58.252 67.4331 58.144 66.8931 57.928C66.3531 57.712 65.9271 57.436 65.6151 57.1C64.9071 56.356 64.5531 54.964 64.5531 52.924C64.5531 50.872 64.9071 49.474 65.6151 48.73C65.9271 48.394 66.3531 48.118 66.8931 47.902C67.4331 47.686 68.0331 47.578 68.6931 47.578C69.9891 47.578 70.9731 47.902 71.6451 48.55C72.3171 49.198 72.6531 50.098 72.6531 51.25H70.5291C70.5291 50.722 70.3971 50.332 70.1331 50.08C69.8691 49.816 69.3771 49.684 68.6571 49.684C67.9491 49.684 67.4751 49.906 67.2351 50.35C67.0071 50.794 66.8931 51.46 66.8931 52.348V53.284C66.8931 54.712 67.1691 55.588 67.7211 55.912C67.9731 56.068 68.3031 56.146 68.7111 56.146C69.1191 56.146 69.4491 56.11 69.7011 56.038C69.9651 55.954 70.1511 55.816 70.2591 55.624C70.3791 55.432 70.4571 55.246 70.4931 55.066C70.5291 54.874 70.5531 54.598 70.5651 54.238ZM83.4811 58H80.6731L77.9731 54.364L76.9471 55.822V58H74.6071V44.464H76.9471V53.014L80.2231 48.136H82.8691L79.5031 52.744L83.4811 58ZM94.4434 53.356V52.42C94.4434 51.532 94.3114 50.854 94.0474 50.386C93.7954 49.918 93.2614 49.684 92.4454 49.684C91.1254 49.684 90.4654 50.572 90.4654 52.348V53.284C90.4654 55.192 91.1254 56.146 92.4454 56.146C93.2974 56.146 93.8554 55.828 94.1194 55.192C94.3354 54.688 94.4434 54.076 94.4434 53.356ZM96.7834 52.816C96.7834 55.036 96.3634 56.524 95.5234 57.28C94.8154 57.928 93.7894 58.252 92.4454 58.252C90.7294 58.252 89.5714 57.748 88.9714 56.74C88.4074 55.816 88.1254 54.508 88.1254 52.816C88.1254 51.232 88.4074 49.99 88.9714 49.09C89.5954 48.082 90.7294 47.578 92.3734 47.578C94.0294 47.578 95.1754 48.022 95.8114 48.91C96.4594 49.786 96.7834 51.088 96.7834 52.816ZM106.629 58H104.289V51.43C104.289 50.842 104.169 50.44 103.929 50.224C103.689 50.008 103.353 49.9 102.921 49.9L100.815 50.782V58H98.4748V47.722H100.221L100.761 48.946L103.641 47.614C104.445 47.614 105.141 47.914 105.729 48.514C106.329 49.102 106.629 49.966 106.629 51.106V58ZM27.6909 76.582C27.6909 79.258 27.0009 80.968 25.6209 81.712C25.0569 82.012 24.3669 82.162 23.5509 82.162L21.8229 81.046V85.06H19.4829V71.794H24.0909C25.4829 71.794 26.4309 72.19 26.9349 72.982C27.4389 73.762 27.6909 74.962 27.6909 76.582ZM25.3509 76.942C25.3509 74.914 24.7029 73.9 23.4069 73.9H21.8229V78.67L23.4069 79.696C24.1029 79.696 24.6009 79.48 24.9009 79.048C25.2009 78.604 25.3509 77.902 25.3509 76.942ZM35.0092 71.758L34.3612 74.062C34.1812 73.99 33.9772 73.954 33.7492 73.954C33.1492 73.954 32.4112 74.212 31.5352 74.728V82H29.1952V71.722H30.9412L31.4812 72.622L33.9652 71.596C34.0852 71.584 34.2472 71.578 34.4512 71.578C34.6552 71.578 34.8412 71.638 35.0092 71.758ZM42.1309 77.356V76.42C42.1309 75.532 41.9989 74.854 41.7349 74.386C41.4829 73.918 40.9489 73.684 40.1329 73.684C38.8129 73.684 38.1529 74.572 38.1529 76.348V77.284C38.1529 79.192 38.8129 80.146 40.1329 80.146C40.9849 80.146 41.5429 79.828 41.8069 79.192C42.0229 78.688 42.1309 78.076 42.1309 77.356ZM44.4709 76.816C44.4709 79.036 44.0509 80.524 43.2109 81.28C42.5029 81.928 41.4769 82.252 40.1329 82.252C38.4169 82.252 37.2589 81.748 36.6589 80.74C36.0949 79.816 35.8129 78.508 35.8129 76.816C35.8129 75.232 36.0949 73.99 36.6589 73.09C37.2829 72.082 38.4169 71.578 40.0609 71.578C41.7169 71.578 42.8629 72.022 43.4989 72.91C44.1469 73.786 44.4709 75.088 44.4709 76.816ZM50.6983 73.9H48.7903V82H46.4503V73.9H45.4783V72.118H46.4503V71.128C46.4503 70.396 46.6843 69.766 47.1523 69.238C47.6203 68.71 48.2983 68.446 49.1863 68.446H50.6983V70.426H49.6003C49.0603 70.426 48.7903 70.708 48.7903 71.272V72.118H50.6983V73.9ZM53.6827 67.798C54.2467 67.798 54.6127 67.888 54.7807 68.068C54.9487 68.236 55.0327 68.602 55.0327 69.166C55.0327 69.718 54.9427 70.084 54.7627 70.264C54.5947 70.432 54.2287 70.516 53.6647 70.516C53.1127 70.516 52.7467 70.426 52.5667 70.246C52.3987 70.066 52.3147 69.7 52.3147 69.148C52.3147 68.596 52.3987 68.236 52.5667 68.068C52.7467 67.888 53.1187 67.798 53.6827 67.798ZM54.8347 82H52.4947V72.1H54.8347V82ZM59.7017 82L57.3617 82.018V68.464H59.7017V82ZM69.9194 77.41H63.9254C63.9254 78.346 64.0694 79.03 64.3574 79.462C64.6574 79.894 65.2514 80.11 66.1394 80.11C66.7154 80.11 67.1414 79.93 67.4174 79.57C67.6934 79.198 67.8314 78.844 67.8314 78.508H69.9374C69.9374 79.792 69.5894 80.734 68.8934 81.334C68.2094 81.934 67.2974 82.234 66.1574 82.234C65.0294 82.234 64.1534 82.072 63.5294 81.748C62.2454 81.088 61.6034 79.336 61.6034 76.492C61.6034 74.8 61.9694 73.564 62.7014 72.784C63.4334 71.992 64.5494 71.596 66.0494 71.596C68.6534 71.596 69.9554 73.042 69.9554 75.934C69.9554 76.246 69.9434 76.738 69.9194 77.41ZM63.9794 75.808H67.8314C67.8314 75.016 67.6814 74.44 67.3814 74.08C67.0814 73.72 66.6194 73.54 65.9954 73.54C65.3834 73.54 64.8914 73.726 64.5194 74.098C64.1594 74.458 63.9794 75.028 63.9794 75.808ZM84.4683 76.582C84.4683 79.258 83.7783 80.968 82.3983 81.712C81.8343 82.012 81.1443 82.162 80.3283 82.162L78.6003 81.046V85.06H76.2603V71.794H80.8683C82.2603 71.794 83.2083 72.19 83.7123 72.982C84.2163 73.762 84.4683 74.962 84.4683 76.582ZM82.1283 76.942C82.1283 74.914 81.4803 73.9 80.1843 73.9H78.6003V78.67L80.1843 79.696C80.8803 79.696 81.3783 79.48 81.6783 79.048C81.9783 78.604 82.1283 77.902 82.1283 76.942ZM87.5206 67.798C88.0846 67.798 88.4506 67.888 88.6186 68.068C88.7866 68.236 88.8706 68.602 88.8706 69.166C88.8706 69.718 88.7806 70.084 88.6006 70.264C88.4326 70.432 88.0666 70.516 87.5026 70.516C86.9506 70.516 86.5846 70.426 86.4046 70.246C86.2366 70.066 86.1526 69.7 86.1526 69.148C86.1526 68.596 86.2366 68.236 86.4046 68.068C86.5846 67.888 86.9566 67.798 87.5206 67.798ZM88.6726 82H86.3326V72.1H88.6726V82ZM96.5456 78.238L98.6696 78.22C98.6576 78.316 98.6456 78.49 98.6336 78.742C98.6216 78.994 98.6096 79.168 98.5976 79.264C98.5976 79.348 98.5856 79.486 98.5616 79.678C98.5376 79.87 98.5076 80.014 98.4716 80.11C98.4476 80.194 98.4116 80.308 98.3636 80.452C98.1476 81.076 97.5596 81.568 96.5996 81.928C95.9876 82.144 95.3456 82.252 94.6736 82.252C94.0136 82.252 93.4136 82.144 92.8736 81.928C92.3336 81.712 91.9076 81.436 91.5956 81.1C90.8876 80.356 90.5336 78.964 90.5336 76.924C90.5336 74.872 90.8876 73.474 91.5956 72.73C91.9076 72.394 92.3336 72.118 92.8736 71.902C93.4136 71.686 94.0136 71.578 94.6736 71.578C95.9696 71.578 96.9536 71.902 97.6256 72.55C98.2976 73.198 98.6336 74.098 98.6336 75.25H96.5096C96.5096 74.722 96.3776 74.332 96.1136 74.08C95.8496 73.816 95.3576 73.684 94.6376 73.684C93.9296 73.684 93.4556 73.906 93.2156 74.35C92.9876 74.794 92.8736 75.46 92.8736 76.348V77.284C92.8736 78.712 93.1496 79.588 93.7016 79.912C93.9536 80.068 94.2836 80.146 94.6916 80.146C95.0996 80.146 95.4296 80.11 95.6816 80.038C95.9456 79.954 96.1316 79.816 96.2396 79.624C96.3596 79.432 96.4376 79.246 96.4736 79.066C96.5096 78.874 96.5336 78.598 96.5456 78.238ZM105.016 82H103.558C102.67 82 101.992 81.736 101.524 81.208C101.068 80.68 100.84 80.05 100.84 79.318V73.918H99.8496V72.136H100.84V70.12H103.18V72.136H104.836V73.918H103.18V79.174C103.18 79.738 103.45 80.02 103.99 80.02H105.016V82ZM114.638 82H112.892L112.352 80.776L109.472 82.108C108.668 82.108 107.966 81.814 107.366 81.226C106.778 80.626 106.484 79.756 106.484 78.616V71.722H108.824V78.112C108.824 79.252 109.28 79.822 110.192 79.822L112.298 78.688V71.722H114.638V82ZM122.724 71.758L122.076 74.062C121.896 73.99 121.692 73.954 121.464 73.954C120.864 73.954 120.126 74.212 119.25 74.728V82H116.91V71.722H118.656L119.196 72.622L121.68 71.596C121.8 71.584 121.962 71.578 122.166 71.578C122.37 71.578 122.556 71.638 122.724 71.758ZM131.988 77.41H125.994C125.994 78.346 126.138 79.03 126.426 79.462C126.726 79.894 127.32 80.11 128.208 80.11C128.784 80.11 129.21 79.93 129.486 79.57C129.762 79.198 129.9 78.844 129.9 78.508H132.006C132.006 79.792 131.658 80.734 130.962 81.334C130.278 81.934 129.366 82.234 128.226 82.234C127.098 82.234 126.222 82.072 125.598 81.748C124.314 81.088 123.672 79.336 123.672 76.492C123.672 74.8 124.038 73.564 124.77 72.784C125.502 71.992 126.618 71.596 128.118 71.596C130.722 71.596 132.024 73.042 132.024 75.934C132.024 76.246 132.012 76.738 131.988 77.41ZM126.048 75.808H129.9C129.9 75.016 129.75 74.44 129.45 74.08C129.15 73.72 128.688 73.54 128.064 73.54C127.452 73.54 126.96 73.726 126.588 74.098C126.228 74.458 126.048 75.028 126.048 75.808ZM33.6484 106H32.1904C31.3024 106 30.6244 105.736 30.1564 105.208C29.7004 104.68 29.4724 104.05 29.4724 103.318V97.918H28.4824V96.136H29.4724V94.12H31.8124V96.136H33.4684V97.918H31.8124V103.174C31.8124 103.738 32.0824 104.02 32.6224 104.02H33.6484V106ZM41.1465 101.356V100.42C41.1465 99.532 41.0145 98.854 40.7505 98.386C40.4985 97.918 39.9645 97.684 39.1485 97.684C37.8285 97.684 37.1685 98.572 37.1685 100.348V101.284C37.1685 103.192 37.8285 104.146 39.1485 104.146C40.0005 104.146 40.5585 103.828 40.8225 103.192C41.0385 102.688 41.1465 102.076 41.1465 101.356ZM43.4865 100.816C43.4865 103.036 43.0665 104.524 42.2265 105.28C41.5185 105.928 40.4925 106.252 39.1485 106.252C37.4325 106.252 36.2745 105.748 35.6745 104.74C35.1105 103.816 34.8285 102.508 34.8285 100.816C34.8285 99.232 35.1105 97.99 35.6745 97.09C36.2985 96.082 37.4325 95.578 39.0765 95.578C40.7325 95.578 41.8785 96.022 42.5145 96.91C43.1625 97.786 43.4865 99.088 43.4865 100.816ZM54.7975 102.238L56.9215 102.22C56.9095 102.316 56.8975 102.49 56.8855 102.742C56.8735 102.994 56.8615 103.168 56.8495 103.264C56.8495 103.348 56.8375 103.486 56.8135 103.678C56.7895 103.87 56.7595 104.014 56.7235 104.11C56.6995 104.194 56.6635 104.308 56.6155 104.452C56.3995 105.076 55.8115 105.568 54.8515 105.928C54.2395 106.144 53.5975 106.252 52.9255 106.252C52.2655 106.252 51.6655 106.144 51.1255 105.928C50.5855 105.712 50.1595 105.436 49.8475 105.1C49.1395 104.356 48.7855 102.964 48.7855 100.924C48.7855 98.872 49.1395 97.474 49.8475 96.73C50.1595 96.394 50.5855 96.118 51.1255 95.902C51.6655 95.686 52.2655 95.578 52.9255 95.578C54.2215 95.578 55.2055 95.902 55.8775 96.55C56.5495 97.198 56.8855 98.098 56.8855 99.25H54.7615C54.7615 98.722 54.6295 98.332 54.3655 98.08C54.1015 97.816 53.6095 97.684 52.8895 97.684C52.1815 97.684 51.7075 97.906 51.4675 98.35C51.2395 98.794 51.1255 99.46 51.1255 100.348V101.284C51.1255 102.712 51.4015 103.588 51.9535 103.912C52.2055 104.068 52.5355 104.146 52.9435 104.146C53.3515 104.146 53.6815 104.11 53.9335 104.038C54.1975 103.954 54.3835 103.816 54.4915 103.624C54.6115 103.432 54.6895 103.246 54.7255 103.066C54.7615 102.874 54.7855 102.598 54.7975 102.238ZM66.8135 106H64.4735V99.556C64.4735 98.452 64.0415 97.9 63.1775 97.9L60.9455 98.782V106H58.6055V92.464H60.9455V96.946L63.9155 95.614C64.9715 95.614 65.7155 95.914 66.1475 96.514C66.5915 97.114 66.8135 97.954 66.8135 99.034V106ZM76.1976 106H74.6316L73.9116 104.758L71.4096 106.108C70.0176 106.108 69.0816 105.604 68.6016 104.596C68.3616 104.104 68.1936 103.576 68.0976 103.012C68.0136 102.436 67.9716 101.842 67.9716 101.23C67.9716 100.606 67.9776 100.15 67.9896 99.862C68.0016 99.562 68.0316 99.22 68.0796 98.836C68.1276 98.44 68.1936 98.11 68.2776 97.846C68.3736 97.582 68.5056 97.312 68.6736 97.036C68.8416 96.748 69.0456 96.52 69.2856 96.352C69.8256 95.98 70.5276 95.794 71.3916 95.794H73.8576L76.1976 95.65V106ZM73.8576 102.724V97.9H72.0756C71.4156 97.9 70.9536 98.152 70.6896 98.656C70.4376 99.16 70.3116 99.916 70.3116 100.924C70.3116 101.92 70.4316 102.622 70.6716 103.03C70.9236 103.438 71.3916 103.642 72.0756 103.642L73.8576 102.724ZM86.7128 106H84.3728V99.43C84.3728 98.842 84.2528 98.44 84.0128 98.224C83.7728 98.008 83.4368 97.9 83.0048 97.9L80.8988 98.782V106H78.5588V95.722H80.3048L80.8448 96.946L83.7248 95.614C84.5288 95.614 85.2248 95.914 85.8128 96.514C86.4128 97.102 86.7128 97.966 86.7128 99.106V106ZM94.0972 95.794L96.4372 95.65V105.532C96.4372 106.672 96.1132 107.542 95.4652 108.142C94.8292 108.754 93.8812 109.06 92.6212 109.06C91.6492 109.06 90.7972 108.868 90.0652 108.484C89.6812 108.292 89.3752 108.004 89.1472 107.62C88.9192 107.236 88.8052 106.78 88.8052 106.252L90.9832 106.144C90.9832 106.48 91.1032 106.72 91.3432 106.864C91.5832 107.008 91.9912 107.08 92.5672 107.08C93.1552 107.08 93.5512 106.936 93.7552 106.648C93.9712 106.36 94.0792 105.946 94.0792 105.406L94.1692 103.858L91.6492 105.208C90.2692 105.208 89.3392 104.74 88.8592 103.804C88.4272 102.976 88.2112 101.962 88.2112 100.762C88.2112 99.334 88.3192 98.326 88.5352 97.738C88.7632 97.09 89.0872 96.622 89.5072 96.334C90.0472 95.974 90.7552 95.794 91.6312 95.794H94.0972ZM94.0972 101.824V97.9H92.3152C91.6432 97.9 91.1812 98.128 90.9292 98.584C90.6772 99.04 90.5512 99.676 90.5512 100.492C90.5512 101.308 90.6772 101.89 90.9292 102.238C91.1932 102.574 91.6552 102.742 92.3152 102.742L94.0972 101.824ZM106.746 101.41H100.752C100.752 102.346 100.896 103.03 101.184 103.462C101.484 103.894 102.078 104.11 102.966 104.11C103.542 104.11 103.968 103.93 104.244 103.57C104.52 103.198 104.658 102.844 104.658 102.508H106.764C106.764 103.792 106.416 104.734 105.72 105.334C105.036 105.934 104.124 106.234 102.984 106.234C101.856 106.234 100.98 106.072 100.356 105.748C99.0715 105.088 98.4295 103.336 98.4295 100.492C98.4295 98.8 98.7955 97.564 99.5275 96.784C100.26 95.992 101.376 95.596 102.876 95.596C105.48 95.596 106.782 97.042 106.782 99.934C106.782 100.246 106.77 100.738 106.746 101.41ZM100.806 99.808H104.658C104.658 99.016 104.508 98.44 104.208 98.08C103.908 97.72 103.446 97.54 102.822 97.54C102.21 97.54 101.718 97.726 101.346 98.098C100.986 98.458 100.806 99.028 100.806 99.808ZM114.274 91.798C114.838 91.798 115.204 91.888 115.372 92.068C115.54 92.236 115.624 92.602 115.624 93.166C115.624 93.718 115.534 94.084 115.354 94.264C115.186 94.432 114.82 94.516 114.256 94.516C113.704 94.516 113.338 94.426 113.158 94.246C112.99 94.066 112.906 93.7 112.906 93.148C112.906 92.596 112.99 92.236 113.158 92.068C113.338 91.888 113.71 91.798 114.274 91.798ZM115.426 106H113.086V96.1H115.426V106ZM122.435 106H120.977C120.089 106 119.411 105.736 118.943 105.208C118.487 104.68 118.259 104.05 118.259 103.318V97.918H117.269V96.136H118.259V94.12H120.599V96.136H122.255V97.918H120.599V103.174C120.599 103.738 120.869 104.02 121.409 104.02H122.435V106Z" fill="#7820EB"/>
<defs>
<linearGradient id="paint0_linear_65_138" x1="75" y1="0" x2="75" y2="150" gradientUnits="userSpaceOnUse">
<stop stop-color="#7820EB"/>
<stop offset="0.5" stop-color="#9B55F6"/>
<stop offset="1" stop-color="#FE7478"/>
</linearGradient>
</defs>
</svg>
