<svg width="150" height="150" viewBox="0 0 150 150" fill="none" xmlns="http://www.w3.org/2000/svg">
<circle cx="75" cy="75" r="75" fill="url(#paint0_linear_65_125)"/>
<circle cx="74.5" cy="75.5" r="59.5" fill="white"/>
<path d="M45.9133 51.376H49.0093C49.0093 53.552 48.4653 55.224 47.3773 56.392C46.2893 57.56 44.7533 58.144 42.7693 58.144C38.4013 58.144 36.2173 55.576 36.2173 50.44V49C36.2173 44.952 37.3373 42.416 39.5773 41.392C40.4573 40.976 41.5213 40.768 42.7693 40.768C44.5933 40.768 46.0733 41.272 47.2093 42.28C48.3613 43.272 48.9373 44.712 48.9373 46.6H45.8173C45.6413 45.656 45.3293 44.944 44.8813 44.464C44.4333 43.984 43.7293 43.744 42.7693 43.744C41.6493 43.744 40.8173 44.096 40.2733 44.8C39.8893 45.296 39.6653 46.144 39.6013 47.344C39.5693 47.728 39.5533 48.248 39.5533 48.904V50.392C39.5533 52.232 39.8093 53.488 40.3213 54.16C40.8493 54.832 41.6653 55.168 42.7693 55.168C43.8893 55.168 44.6573 54.864 45.0733 54.256C45.5053 53.632 45.7853 52.672 45.9133 51.376ZM54.6114 58L51.4914 58.024V39.952H54.6114V58ZM59.5469 39.064C60.2989 39.064 60.7869 39.184 61.0109 39.424C61.2349 39.648 61.3469 40.136 61.3469 40.888C61.3469 41.624 61.2269 42.112 60.9869 42.352C60.7629 42.576 60.2749 42.688 59.5229 42.688C58.7869 42.688 58.2989 42.568 58.0589 42.328C57.8349 42.088 57.7229 41.6 57.7229 40.864C57.7229 40.128 57.8349 39.648 58.0589 39.424C58.2989 39.184 58.7949 39.064 59.5469 39.064ZM61.0829 58H57.9629V44.8H61.0829V58ZM71.5803 52.984L74.4123 52.96C74.3963 53.088 74.3803 53.32 74.3643 53.656C74.3483 53.992 74.3323 54.224 74.3163 54.352C74.3163 54.464 74.3003 54.648 74.2683 54.904C74.2363 55.16 74.1963 55.352 74.1483 55.48C74.1163 55.592 74.0683 55.744 74.0043 55.936C73.7163 56.768 72.9323 57.424 71.6523 57.904C70.8363 58.192 69.9803 58.336 69.0843 58.336C68.2043 58.336 67.4043 58.192 66.6843 57.904C65.9643 57.616 65.3963 57.248 64.9803 56.8C64.0363 55.808 63.5643 53.952 63.5643 51.232C63.5643 48.496 64.0363 46.632 64.9803 45.64C65.3963 45.192 65.9643 44.824 66.6843 44.536C67.4043 44.248 68.2043 44.104 69.0843 44.104C70.8123 44.104 72.1243 44.536 73.0203 45.4C73.9163 46.264 74.3643 47.464 74.3643 49H71.5323C71.5323 48.296 71.3563 47.776 71.0043 47.44C70.6523 47.088 69.9963 46.912 69.0363 46.912C68.0923 46.912 67.4603 47.208 67.1403 47.8C66.8363 48.392 66.6843 49.28 66.6843 50.464V51.712C66.6843 53.616 67.0523 54.784 67.7883 55.216C68.1243 55.424 68.5643 55.528 69.1083 55.528C69.6523 55.528 70.0923 55.48 70.4283 55.384C70.7803 55.272 71.0283 55.088 71.1723 54.832C71.3323 54.576 71.4363 54.328 71.4843 54.088C71.5323 53.832 71.5643 53.464 71.5803 52.984ZM88.8016 58H85.0576L81.4576 53.152L80.0896 55.096V58H76.9696V39.952H80.0896V51.352L84.4576 44.848H87.9856L83.4976 50.992L88.8016 58ZM101.858 58H99.914C98.73 58 97.826 57.648 97.202 56.944C96.594 56.24 96.29 55.4 96.29 54.424V47.224H94.97V44.848H96.29V42.16H99.41V44.848H101.618V47.224H99.41V54.232C99.41 54.984 99.77 55.36 100.49 55.36H101.858V58ZM111.856 51.808V50.56C111.856 49.376 111.68 48.472 111.328 47.848C110.992 47.224 110.28 46.912 109.192 46.912C107.432 46.912 106.552 48.096 106.552 50.464V51.712C106.552 54.256 107.432 55.528 109.192 55.528C110.328 55.528 111.072 55.104 111.424 54.256C111.712 53.584 111.856 52.768 111.856 51.808ZM114.976 51.088C114.976 54.048 114.416 56.032 113.296 57.04C112.352 57.904 110.984 58.336 109.192 58.336C106.904 58.336 105.36 57.664 104.56 56.32C103.808 55.088 103.432 53.344 103.432 51.088C103.432 48.976 103.808 47.32 104.56 46.12C105.392 44.776 106.904 44.104 109.096 44.104C111.304 44.104 112.832 44.696 113.68 45.88C114.544 47.048 114.976 48.784 114.976 51.088ZM44.692 83.88H36.7C36.7 85.128 36.892 86.04 37.276 86.616C37.676 87.192 38.468 87.48 39.652 87.48C40.42 87.48 40.988 87.24 41.356 86.76C41.724 86.264 41.908 85.792 41.908 85.344H44.716C44.716 87.056 44.252 88.312 43.324 89.112C42.412 89.912 41.196 90.312 39.676 90.312C38.172 90.312 37.004 90.096 36.172 89.664C34.46 88.784 33.604 86.448 33.604 82.656C33.604 80.4 34.092 78.752 35.068 77.712C36.044 76.656 37.532 76.128 39.532 76.128C43.004 76.128 44.74 78.056 44.74 81.912C44.74 82.328 44.724 82.984 44.692 83.88ZM36.772 81.744H41.908C41.908 80.688 41.708 79.92 41.308 79.44C40.908 78.96 40.292 78.72 39.46 78.72C38.644 78.72 37.988 78.968 37.492 79.464C37.012 79.944 36.772 80.704 36.772 81.744ZM57.5284 90H55.4404L54.4804 88.344L51.1444 90.144C49.2884 90.144 48.0404 89.472 47.4004 88.128C47.0804 87.472 46.8564 86.768 46.7284 86.016C46.6164 85.248 46.5604 84.456 46.5604 83.64C46.5604 82.808 46.5684 82.2 46.5844 81.816C46.6004 81.416 46.6404 80.96 46.7044 80.448C46.7684 79.92 46.8564 79.48 46.9684 79.128C47.0964 78.776 47.2724 78.416 47.4964 78.048C47.7204 77.664 47.9924 77.36 48.3124 77.136C49.0324 76.64 49.9684 76.392 51.1204 76.392H54.4084V71.952H57.5284V90ZM54.4084 85.632V79.2H52.0324C51.1524 79.2 50.5364 79.536 50.1844 80.208C49.8484 80.88 49.6804 81.888 49.6804 83.232C49.6804 84.56 49.8404 85.496 50.1604 86.04C50.4964 86.584 51.1204 86.856 52.0324 86.856L54.4084 85.632ZM62.6055 71.064C63.3575 71.064 63.8455 71.184 64.0695 71.424C64.2935 71.648 64.4055 72.136 64.4055 72.888C64.4055 73.624 64.2855 74.112 64.0455 74.352C63.8215 74.576 63.3335 74.688 62.5815 74.688C61.8455 74.688 61.3575 74.568 61.1175 74.328C60.8935 74.088 60.7815 73.6 60.7815 72.864C60.7815 72.128 60.8935 71.648 61.1175 71.424C61.3575 71.184 61.8535 71.064 62.6055 71.064ZM64.1415 90H61.0215V76.8H64.1415V90ZM73.4869 90H71.5429C70.3589 90 69.4549 89.648 68.8309 88.944C68.2229 88.24 67.9189 87.4 67.9189 86.424V79.224H66.5989V76.848H67.9189V74.16H71.0389V76.848H73.2469V79.224H71.0389V86.232C71.0389 86.984 71.3989 87.36 72.1189 87.36H73.4869V90ZM91.0785 90H88.9905L88.0305 88.344L84.6945 90.144C82.8385 90.144 81.5905 89.472 80.9505 88.128C80.6305 87.472 80.4065 86.768 80.2785 86.016C80.1665 85.248 80.1105 84.456 80.1105 83.64C80.1105 82.808 80.1185 82.2 80.1345 81.816C80.1505 81.416 80.1905 80.96 80.2545 80.448C80.3185 79.92 80.4065 79.48 80.5185 79.128C80.6465 78.776 80.8225 78.416 81.0465 78.048C81.2705 77.664 81.5425 77.36 81.8625 77.136C82.5825 76.64 83.5185 76.392 84.6705 76.392H87.9585L91.0785 76.2V90ZM87.9585 85.632V79.2H85.5825C84.7025 79.2 84.0865 79.536 83.7345 80.208C83.3985 80.88 83.2305 81.888 83.2305 83.232C83.2305 84.56 83.3905 85.496 83.7105 86.04C84.0465 86.584 84.6705 86.856 85.5825 86.856L87.9585 85.632ZM105.099 90H101.979V81.24C101.979 80.456 101.819 79.92 101.499 79.632C101.179 79.344 100.731 79.2 100.155 79.2L97.3468 80.376V90H94.2268V76.296H96.5548L97.2748 77.928L101.115 76.152C102.187 76.152 103.115 76.552 103.899 77.352C104.699 78.136 105.099 79.288 105.099 80.808V90ZM118.233 76.296L113.025 91.536C112.785 92.224 112.473 92.76 112.089 93.144C111.449 93.784 110.553 94.104 109.401 94.104H107.937V91.296H108.897C109.345 91.296 109.673 91.216 109.881 91.056C110.105 90.912 110.297 90.616 110.457 90.168L110.697 89.496L106.569 76.296H109.857L112.305 85.824L114.945 76.296H118.233ZM61.7682 122H59.8242C58.6402 122 57.7362 121.648 57.1122 120.944C56.5042 120.24 56.2002 119.4 56.2002 118.424V111.224H54.8802V108.848H56.2002V106.16H59.3202V108.848H61.5282V111.224H59.3202V118.232C59.3202 118.984 59.6802 119.36 60.4002 119.36H61.7682V122ZM74.6217 115.88H66.6297C66.6297 117.128 66.8217 118.04 67.2057 118.616C67.6057 119.192 68.3977 119.48 69.5817 119.48C70.3497 119.48 70.9177 119.24 71.2857 118.76C71.6537 118.264 71.8377 117.792 71.8377 117.344H74.6457C74.6457 119.056 74.1817 120.312 73.2537 121.112C72.3417 121.912 71.1257 122.312 69.6057 122.312C68.1017 122.312 66.9337 122.096 66.1017 121.664C64.3897 120.784 63.5337 118.448 63.5337 114.656C63.5337 112.4 64.0217 110.752 64.9977 109.712C65.9737 108.656 67.4617 108.128 69.4617 108.128C72.9337 108.128 74.6697 110.056 74.6697 113.912C74.6697 114.328 74.6537 114.984 74.6217 115.88ZM66.7017 113.744H71.8377C71.8377 112.688 71.6377 111.92 71.2377 111.44C70.8377 110.96 70.2217 110.72 69.3897 110.72C68.5737 110.72 67.9177 110.968 67.4217 111.464C66.9417 111.944 66.7017 112.704 66.7017 113.744ZM87.9861 122H84.4821L82.0581 117.8L79.7781 122H76.0341L80.4741 115.016L76.2021 108.296H79.7061L82.1061 112.256L84.4341 108.296H87.9381L83.6661 115.016L87.9861 122ZM96.0103 122H94.0663C92.8823 122 91.9783 121.648 91.3543 120.944C90.7463 120.24 90.4423 119.4 90.4423 118.424V111.224H89.1223V108.848H90.4423V106.16H93.5623V108.848H95.7703V111.224H93.5623V118.232C93.5623 118.984 93.9223 119.36 94.6423 119.36H96.0103V122Z" fill="#7820EB"/>
<defs>
<linearGradient id="paint0_linear_65_125" x1="75" y1="0" x2="75" y2="150" gradientUnits="userSpaceOnUse">
<stop stop-color="#7820EB"/>
<stop offset="0.5" stop-color="#9B55F6"/>
<stop offset="1" stop-color="#FE7478"/>
</linearGradient>
</defs>
</svg>
