<svg width="110" height="136" viewBox="0 0 110 136" fill="none" xmlns="http://www.w3.org/2000/svg">
<line x1="10.8285" y1="40.7807" x2="46.6767" y2="100.905" stroke="#8C9CB0" stroke-width="6"/>
<line x1="29.0149" y1="38.0871" x2="59.7419" y2="89.622" stroke="#8C9CB0" stroke-width="6"/>
<line x1="41.568" y1="25.9455" x2="74.3435" y2="80.916" stroke="#8C9CB0" stroke-width="6"/>
<path d="M12.3649 43.3575L11.3407 41.6397C6.53247 33.5755 9.172 23.1403 17.2362 18.3321L17.6657 18.076V18.076C25.4927 13.4093 35.6209 15.9712 40.2877 23.7982L41.568 25.9455" stroke="#8C9CB0" stroke-width="6"/>
<path d="M46.6767 100.905L52.6941 110.997C60.1185 123.449 76.2316 127.525 88.6837 120.1V120.1V120.1C100.424 113.1 104.267 97.9079 97.267 86.1674L90.4814 74.7868" stroke="#8C9CB0" stroke-width="6"/>
<path d="M57.1814 85.3275L64.4791 97.567C66.9539 101.718 72.3249 103.076 76.4756 100.602V100.602V100.602C80.3891 98.2681 81.6701 93.204 79.3367 89.2905L71.7829 76.6215" stroke="#8C9CB0" stroke-width="6"/>
<line x1="63.8513" y1="30.1232" x2="92.0178" y2="77.3635" stroke="#8C9CB0" stroke-width="6"/>
</svg>
