<svg width="82" height="82" viewBox="0 0 82 82" fill="none" xmlns="http://www.w3.org/2000/svg">
<circle cx="41" cy="41" r="41" fill="#8C9CB0"/>
<ellipse cx="25.5" cy="32.5" rx="5.5" ry="6.5" fill="#273443"/>
<ellipse cx="56.5" cy="32.5" rx="5.5" ry="6.5" fill="#273443"/>
<path d="M62.125 51.4976C62.125 59.7819 52.0661 66.9976 42.125 66.9976C32.1839 66.9976 21.625 59.7819 21.625 51.4976C38.5 51.4976 31.0589 51.9976 41 51.9976C50.9411 51.9976 44.125 51.4976 62.125 51.4976Z" fill="#273443"/>
<path d="M60.5001 52.5C60.5001 57.4882 41.4121 57.9565 41.4121 57.9565C41.4121 57.9565 21.9855 57.0347 22.5 52.5C38.9012 52.5 30.6607 52.9566 40.3227 52.9566C49.9847 52.9566 43.0055 52.5 60.5001 52.5Z" fill="#8C9CB0"/>
</svg>
