<svg width="142" height="243" viewBox="0 0 142 243" fill="none" xmlns="http://www.w3.org/2000/svg">
<rect x="51" y="178" width="40" height="65" rx="15" fill="#273443"/>
<path d="M142 130C142 171.974 110.212 206 71 206C31.7878 206 0 171.974 0 130C71 130 31.7878 130 71 130C110.212 130 71 130 142 130Z" fill="#273443"/>
<circle cx="15.5" cy="130.5" r="15.5" fill="#273443"/>
<circle cx="126.5" cy="130.5" r="15.5" fill="#273443"/>
<path d="M122.153 136.5C119.151 164.408 97.0535 185.5 71 185.5C44.9465 185.5 22.8487 164.408 19.8469 136.5L63.75 136.5L64.5 136.5L70.0938 136.5L70.8867 136.5H70.9858H70.9982H70.9993H70.9997H70.9997H70.9998H71L122.153 136.5Z" stroke="#3D7FFF" stroke-width="13"/>
<rect x="34" y="8" width="74" height="163" rx="37" fill="#3D7FFF" stroke="#273443" stroke-width="16"/>
<circle cx="122.5" cy="129.5" r="6.5" fill="#3D7FFF"/>
<circle cx="19.5" cy="129.5" r="6.5" fill="#3D7FFF"/>
<rect x="62" y="181" width="18" height="50" rx="9" fill="#3D7FFF"/>
</svg>
