<svg width="85" height="42" viewBox="0 0 85 42" fill="none" xmlns="http://www.w3.org/2000/svg">
<path d="M15.5178 41.938L1.33993 25.0851C0.273315 23.8172 0.436454 21.9247 1.70432 20.8581V20.8581C2.97218 19.7915 4.86466 19.9546 5.93128 21.2225L16.5684 33.8666L55.5628 1.06161C56.725 0.0838709 58.4598 0.233412 59.4376 1.39562V1.39562C60.4153 2.55784 60.2658 4.29261 59.1035 5.27035L15.5178 41.938Z" fill="#3BA1FF"/>
<path d="M39.4999 41.9379L31.1864 32.0559L35.7778 28.1933L40.5506 33.8666L79.545 1.06161C80.7072 0.0838694 82.442 0.233412 83.4197 1.39562V1.39562C84.3975 2.55783 84.2479 4.2926 83.0857 5.27034L39.4999 41.9379Z" fill="#3BA1FF"/>
</svg>
