<svg width="94" height="98" viewBox="0 0 94 98" fill="none" xmlns="http://www.w3.org/2000/svg">
<path d="M63.3279 29.8937C63.2679 29.0674 62.5495 28.4462 61.7233 28.5061L48.2586 29.4828C47.4324 29.5428 46.8112 30.2612 46.8711 31.0874C46.931 31.9137 47.6494 32.5349 48.4757 32.475L60.4442 31.6068L61.3124 43.5753C61.3724 44.4016 62.0908 45.0228 62.917 44.9629C63.7433 44.903 64.3645 44.1846 64.3046 43.3583L63.3279 29.8937ZM46.5365 49.9833L62.9664 30.9833L60.6972 29.0211L44.2672 48.0211L46.5365 49.9833Z" fill="#FF5E5E"/>
<path d="M12.4019 14.0022L12.6203 15.5109C17.4609 48.9439 41.8584 76.2242 74.5456 84.7532L75.9139 85.1102" stroke="#FF5E5E" stroke-width="4"/>
<path d="M20.8138 10.0481C23.9284 8.91699 27.3704 10.5249 28.5015 13.6396L32.9392 25.8587C34.0703 28.9734 32.4624 32.4153 29.3477 33.5465L18.936 37.3277L10.402 13.8294L20.8138 10.0481Z" fill="#FF5E5E"/>
<path d="M56.3667 66.6296C57.593 63.5512 61.0827 62.0497 64.1612 63.2761L76.2382 68.0871C79.3166 69.3135 80.818 72.8032 79.5917 75.8816L75.6269 85.8342L52.4019 76.5822L56.3667 66.6296Z" fill="#FF5E5E"/>
</svg>
